<svg xmlns="http://www.w3.org/2000/svg" viewBox="0 0 24.09 30"><defs><style>.cls-1{fill:#3691ff;}.cls-2{fill:#2174f9;}.cls-3{fill:#116cef;}.cls-4{fill:#226cff;}.cls-5{fill:#203320;}.cls-6{fill:#142713;}</style></defs><title>blue-rectange-dustbin</title><g id="Layer_2" data-name="Layer 2"><g id="Layer_1-2" data-name="Layer 1"><path class="cls-1" d="M24.07,7.15l0,.09c0,.25,0,.5,0,.75a.45.45,0,0,1-.27.46L23,9c-.14.19-.37.24-.55.38-1.12.63-2.22,1.28-3.34,1.92l-3.47,2c-.95.56-1.91,1.11-2.86,1.65a1.39,1.39,0,0,1-.72.2,2.37,2.37,0,0,1-1.19-.49c-1-.6-2.05-1.18-3.07-1.77L4.47,10.93,2.07,9.55c-.22-.12-.23-.11-.23.14V23.63a2.25,2.25,0,0,1,0,.26c0,.07,0,.17-.12.15a.24.24,0,0,1-.05-.16v-14a1.75,1.75,0,0,0,0-.51c-.07-.16-.25-.19-.38-.28L.84,8.82C.65,8.7.46,8.6.27,8.49a.55.55,0,0,1-.2-.17A.44.44,0,0,1,0,8.16a.37.37,0,0,1,0-.11,4.52,4.52,0,0,0,0-.52c0-.1,0-.2.1-.25s.21,0,.3.1C1.51,8,2.57,8.6,3.63,9.21l3.72,2.15,4.11,2.37a1.12,1.12,0,0,0,1.16,0c1.3-.73,2.59-1.49,3.88-2.23,2-1.16,4-2.34,6.06-3.5.47-.27,1-.52,1.39-.83A.14.14,0,0,1,24.07,7.15Z"/><path class="cls-2" d="M20.79,4.9,21,5a6,6,0,0,1,.87.45c.33.18.64.38,1,.56a.22.22,0,0,1,.11.1h0a5.7,5.7,0,0,1,.94.51.23.23,0,0,1,.14.19.55.55,0,0,1,0,.31,10.75,10.75,0,0,1-1.48.92c-1.21.71-2.43,1.4-3.64,2.1l-3.37,1.94-3,1.71a1.1,1.1,0,0,1-1.11,0c-2-1.16-4.06-2.35-6.09-3.52L.31,7.37a.57.57,0,0,0-.13-.08A.23.23,0,0,1,0,7.13a.41.41,0,0,1,.22-.49,4.07,4.07,0,0,1,.53-.31c.1-.07.22-.12.33-.19.27-.17.56-.31.84-.49S2.69,5.24,3.05,5s.74-.41,1.11-.62S4.71,4,5,3.89c.08,0,.15-.1.24-.14.38-.21.75-.45,1.14-.66l.48-.27c.19-.12.4-.23.59-.36.46-.25.9-.52,1.36-.78.29-.17.58-.34.88-.5s.72-.43,1.08-.63A3.68,3.68,0,0,1,11.9,0a1.53,1.53,0,0,1,1,.31c.15.1.31.18.47.27l.71.41,1.14.67c.36.2.71.41,1.07.6s.57.35.87.51l.24.14c.34.21.7.4,1.05.61l.68.38c.15.11.32.19.48.29s.64.36.95.55A.9.9,0,0,1,20.79,4.9Z"/><path class="cls-3" d="M22.4,24c-.13.23-.4.29-.59.44a4.69,4.69,0,0,1-.76.49c-.11.05-.2.12-.3.17-.38.21-.75.45-1.14.66-.16.08-.32.18-.48.27l-.59.35c-.37.19-.72.42-1.08.62l-.33.19c-.27.17-.55.32-.83.48s-.67.4-1,.58l-.08.05L14.07,29l-.75.44a3.3,3.3,0,0,0-.32.18c-.22.09-.39.3-.65.3,0,0,0,0,0,0s-.09-.05-.09,0a.38.38,0,0,1-.36,0s0-.06,0-.1a.27.27,0,0,0,.13-.24V15.47a.65.65,0,0,1,.07-.43,1.38,1.38,0,0,0,.81-.27l2.45-1.4c1.42-.83,2.83-1.66,4.26-2.48l2.81-1.61c0,1.48,0,3,0,4.45V24Z"/><path class="cls-4" d="M12.06,15q0,7.31,0,14.6c0,.18,0,.29-.24.26s-.22,0-.32-.06l-.25-.13c-.53-.32-1.06-.62-1.6-.93l-.81-.47-.27-.16-1.14-.66L7,27.22c-.19-.12-.39-.24-.59-.34-.35-.22-.72-.42-1.08-.63a1.46,1.46,0,0,0-.3-.17c-.28-.17-.57-.34-.87-.5-.72-.43-1.46-.85-2.2-1.28a.37.37,0,0,1-.19-.2.14.14,0,0,1,0-.06c.07-.08,0-.18,0-.28V9.48c0-.13,0-.16.15-.09.68.38,1.35.79,2,1.17s1.53.9,2.29,1.35,1.77,1,2.66,1.51l2.32,1.34A1.41,1.41,0,0,0,12.06,15Z"/><path class="cls-4" d="M1.73,9.8c0,1,0,2,0,3V23.66c0,.09,0,.17,0,.26s-.08-.07-.09-.12c0-.34,0-.68,0-1V10.58c0-.22,0-.45,0-.67a.24.24,0,0,1,0-.08A.09.09,0,0,1,1.73,9.8Z"/><path class="cls-5" d="M12.06,12.11c-.43-.19-.83-.46-1.25-.69L5.18,8.17l-1-.62c0-.1.08-.12.14-.15.48-.27,1-.53,1.42-.81L8.24,5.11l3.45-2c.12-.07.25-.19.4-.07a.34.34,0,0,1,.05.24c0,2.81,0,5.63,0,8.44C12.13,11.86,12.16,12,12.06,12.11Z"/><path class="cls-6" d="M12.06,12.11V3.34c0-.11.07-.22,0-.31.07-.15.16,0,.23,0,.35.18.68.39,1,.58L19,6.93c.26.16.53.29.78.45.07,0,.21.07.14.21L13.33,11.4C12.91,11.64,12.5,11.9,12.06,12.11Z"/><path class="cls-1" d="M20,7.59c-.07-.18-.24-.21-.38-.29L15.33,4.86l-3-1.72C12.25,3.08,12.16,3,12,3a8.1,8.1,0,0,0-1.12.61L8.11,5.25,5.78,6.61l-1.65.94L3.18,7l1.08-.63L8.47,4l3.49-2a.17.17,0,0,1,.2,0L15.8,4l3.66,2.11L20.94,7Z"/><path class="cls-2" d="M22.17,24.08V9.56h0V24.07Z"/><path class="cls-2" d="M12.33,29.89h-.08l-.13,0C12.21,29.85,12.27,29.83,12.33,29.89Z"/><polygon class="cls-4" points="1.93 9.39 1.63 9.28 1.67 23.88 1.78 24.2 1.93 9.39"/></g></g></svg>