<svg xmlns="http://www.w3.org/2000/svg" viewBox="0 0 35 55.34"><defs><style>.cls-1{fill:#fff;}.cls-2{fill:#ec1c24;}.cls-3{fill:#e00516;}.cls-4{fill:#fbfbfb;}.cls-5{fill:#fcfcfc;}.cls-6{fill:#fafafa;}.cls-7{fill:#f9f9f9;}.cls-8{fill:#f8f8f8;}.cls-9{fill:#e4e4e4;}.cls-10{fill:#f5f5f5;}.cls-11{fill:#b8b8b8;}.cls-12{fill:#e3e3e3;}.cls-13{fill:#e0e0e0;}.cls-14{fill:#c7c7c7;}.cls-15{fill:#8e8e8e;}.cls-16{fill:#949494;}.cls-17{fill:#cbcbcb;}.cls-18{fill:#f1f1f1;}.cls-19{fill:#b3b3b3;}.cls-20{fill:#dedede;}.cls-21{fill:#bdbdbd;}.cls-22{fill:#a2a2a2;}.cls-23{fill:#b6b6b6;}.cls-24{fill:#c8c8c8;}.cls-25{fill:#cecece;}.cls-26{fill:#cfcfcf;}.cls-27{fill:#8c8c8c;}.cls-28{fill:#c6c6c6;}.cls-29{fill:#fefefe;}.cls-30{fill:#f3f3f3;}.cls-31{fill:#ececec;}.cls-32{fill:#eee;}.cls-33{fill:#d4d4d4;}.cls-34{fill:#efefef;}.cls-35{fill:#e7e7e7;}.cls-36{fill:#d1d1d1;}.cls-37{fill:#adadad;}.cls-38{fill:#9f9f9f;}.cls-39{fill:#ddd;}.cls-40{fill:#c9c9c9;}.cls-41{fill:#cacaca;}.cls-42{fill:#d8d8d8;}.cls-43{fill:#d5d5d5;}.cls-44{fill:#c1c1c1;}.cls-45{fill:#959595;}.cls-46{fill:silver;}.cls-47{fill:#b9b9b9;}.cls-48{fill:#d2d2d2;}.cls-49{fill:#e1e1e1;}.cls-50{fill:#cdcdcd;}.cls-51{fill:#ccc;}.cls-52{fill:#f7f7f7;}.cls-53{fill:#9e9e9e;}.cls-54{fill:#d7d7d7;}.cls-55{fill:#b4b4b4;}.cls-56{fill:#d0d0d0;}.cls-57{fill:#ebebeb;}.cls-58{fill:#9a9a9a;}.cls-59{fill:#d6d6d6;}.cls-60{fill:#a8a8a8;}.cls-61{fill:#eaeaea;}.cls-62{fill:#9d9d9d;}.cls-63{fill:gray;}.cls-64{fill:#6b6b6b;}.cls-65{fill:#dfdfdf;}.cls-66{fill:#dbdbdb;}.cls-67{fill:#bcbcbc;}.cls-68{fill:#f0f0f0;}.cls-69{fill:#848484;}.cls-70{fill:#696969;}.cls-71{fill:#c2c2c2;}.cls-72{fill:#bebebe;}.cls-73{fill:#868686;}.cls-74{fill:#919191;}.cls-75{fill:#7e7e7e;}.cls-76{fill:#969696;}.cls-77{fill:#7f7f7f;}.cls-78{fill:#d9d9d9;}.cls-79{fill:#f4f4f4;}.cls-80{fill:#e6e6e6;}.cls-81{fill:#a6a6a6;}.cls-82{fill:#6e6e6e;}.cls-83{fill:#8f8f8f;}.cls-84{fill:#b0b0b0;}.cls-85{fill:#a5a5a5;}.cls-86{fill:#e9e9e9;}.cls-87{fill:#757575;}.cls-88{fill:#d3d3d3;}.cls-89{fill:#787878;}.cls-90{fill:#b2b2b2;}.cls-91{fill:#6c6c6c;}.cls-92{fill:#797979;}.cls-93{fill:#6a6a6a;}.cls-94{fill:#909090;}.cls-95{fill:#dcdcdc;}.cls-96{fill:#9b9b9b;}.cls-97{fill:#b7b7b7;}.cls-98{fill:#aeaeae;}</style></defs><title>circle-dumping</title><g id="Layer_2" data-name="Layer 2"><g id="Layer_1-2" data-name="Layer 1"><circle class="cls-1" cx="17.01" cy="17.64" r="13.89"/><path class="cls-2" d="M35,17.19a19.7,19.7,0,0,0-.78-5.07c0-.56-.33-1-.44-1.52A19.37,19.37,0,0,0,30.86,6c-.34-.41-.74-.75-1.1-1.14l-.16-.16a17.74,17.74,0,0,0-4.35-3c-.51-.24-1-.45-1.56-.67s-1.33-.42-2-.61A23.12,23.12,0,0,0,19.2,0h-.44a.13.13,0,0,1-.21,0H16.6a.14.14,0,0,1-.22,0h-.54a10.49,10.49,0,0,1-1.27.15A16.93,16.93,0,0,0,5.81,4.39,17.36,17.36,0,0,0,.23,14.61a4.35,4.35,0,0,1-.1.52A15.33,15.33,0,0,0,0,18a3.55,3.55,0,0,0,0,.65,23.86,23.86,0,0,0,1.18,4.78c.21.55.38,1.11.57,1.67.67,1.78,1.42,3.53,2.16,5.28.27.52.5,1.05.73,1.59.46.87.83,1.79,1.28,2.67A24.84,24.84,0,0,1,7.1,37a1.06,1.06,0,0,0,.12.2c.31.42.39,1,.82,1.34l2.65,5a2.63,2.63,0,0,0,.71,1.32c.92,1.61,1.83,3.23,2.74,4.84A3,3,0,0,0,15,51.05l2.61,4.29c.12-.19.21-.32.29-.46,2.56-4.26,5.05-8.56,7.39-13L27,38.81a26.88,26.88,0,0,0,2.15-4.12c0-.06,0-.15,0-.21l.18-.44c1.15-2.42,2.26-4.85,3.26-7.33.66-1.63,1.17-3.32,1.75-5a2.31,2.31,0,0,0,.34-.79A8.25,8.25,0,0,0,35,18.58C35,18.12,35,17.65,35,17.19Zm-4.29,3.2a13.28,13.28,0,0,1-8.86,9.83,12.19,12.19,0,0,1-5.9.59A6.93,6.93,0,0,1,14,30.4a11.7,11.7,0,0,1-4.1-1.89c-.31-.21-.59-.46-.88-.69a5.86,5.86,0,0,1-1.17-1.11A11.58,11.58,0,0,1,5,22.2a8,8,0,0,1-.61-2,13.3,13.3,0,0,1,.92-8.32,1.76,1.76,0,0,1,.14-.23,12.65,12.65,0,0,1,6.26-6.29,12.82,12.82,0,0,1,7.82-1.23c.31,0,.63.12.94.19a6.07,6.07,0,0,1,1.67.5,11.79,11.79,0,0,1,4.61,2.83,5.6,5.6,0,0,1,1.11,1.17,12.08,12.08,0,0,1,2.58,4.84,6.39,6.39,0,0,1,.41,1.89A11.64,11.64,0,0,1,30.71,20.39Z"/><path class="cls-3" d="M23,16.94a2.61,2.61,0,0,1,.57.09.74.74,0,0,1,.52.44,1.17,1.17,0,0,0,.66.63.76.76,0,0,1,.35.29.67.67,0,0,0,.61.27H26a.38.38,0,0,1,.27.1,1.82,1.82,0,0,0,1,.49,3.71,3.71,0,0,1,.67.2,1.26,1.26,0,0,0,.47.08,5.83,5.83,0,0,1,.59,0,1,1,0,0,1,.29.09.33.33,0,0,1,0,.6,2,2,0,0,1-.82.34c-.56.07-1.1.24-1.65.33a2.17,2.17,0,0,0-1,.4,4.79,4.79,0,0,1-.53.34,1.17,1.17,0,0,1-.76.14,1.22,1.22,0,0,0-1,.19l-.2.12a.68.68,0,0,1-.76,0,.79.79,0,0,0-.76-.05c-.23.09-.43.23-.66.32a2.38,2.38,0,0,1-1.51.21,1.61,1.61,0,0,1-.55-.25L19,22.17a.51.51,0,0,0-.53,0,2.39,2.39,0,0,0-.35.28,1,1,0,0,1-.39.23H17.4a.89.89,0,0,1-.39-.12,1.59,1.59,0,0,0-1.23-.08,1.63,1.63,0,0,1-.49.09.41.41,0,0,0-.22,0,1.23,1.23,0,0,1-.57-.17,3.35,3.35,0,0,0-1.81-.35l-2.2.14a1.53,1.53,0,0,1-.37,0,.74.74,0,0,1-.58-.31A.47.47,0,0,0,9,21.67a.36.36,0,0,1-.39-.14,2.29,2.29,0,0,0-.45-.43A1.69,1.69,0,0,0,7,20.83a1.73,1.73,0,0,1-.6,0,.59.59,0,0,1-.28-.15.43.43,0,0,1,0-.69,1,1,0,0,1,.74-.31A1.36,1.36,0,0,0,8.08,19a1.14,1.14,0,0,1,1-.51,2,2,0,0,0,1.13-.35s0-.07.09,0,0,0,0,.06a2.06,2.06,0,0,1-.49.71,1.55,1.55,0,0,1-.62.42.17.17,0,0,0-.13.22,1.87,1.87,0,0,0,.14.5.54.54,0,0,1,0,.56.18.18,0,0,0,.16.27,2.53,2.53,0,0,0,1.28-.14,5,5,0,0,0,.85-.46c.13-.08.24-.17.37-.24a.83.83,0,0,0,.33-.34,1.5,1.5,0,0,1,.39-.48c.11-.09.1-.13,0-.22a1.52,1.52,0,0,0-.48-.31,1,1,0,0,1-.56-.51,1,1,0,0,0-.33-.33c-.05-.05-.1,0-.14,0a2.08,2.08,0,0,1-.36.2c-.09,0-.19.08-.27,0s.06-.07.09-.1a2.71,2.71,0,0,0,.87-1.14,3.59,3.59,0,0,1,.17-.34.91.91,0,0,1,.53-.49l.08,0a1.5,1.5,0,0,0,1.07-1,2.15,2.15,0,0,1,.14-.26,1.11,1.11,0,0,1,.76-.62,6.47,6.47,0,0,0,1.89-.81,4.48,4.48,0,0,1,1.5-.49l.76-.17h.28a.35.35,0,0,1,.29.22,3.05,3.05,0,0,1,.13.32.85.85,0,0,0,.55.53l.4.14a.9.9,0,0,1,.6.57,1.67,1.67,0,0,0,.08.2.88.88,0,0,0,.51.54,1.52,1.52,0,0,1,.94,1,.59.59,0,0,0,.06.14,1,1,0,0,0,.63.61A.14.14,0,0,0,23,16.94Z"/><path class="cls-3" d="M10.38,18.29a.39.39,0,0,0,.06-.11c.07-.06.16,0,.24,0A2.27,2.27,0,0,0,11,18a.27.27,0,0,1,.4.12.13.13,0,0,1,0,.12,1,1,0,0,1-.14.15.24.24,0,0,0,0,.37.35.35,0,0,1,.12.15.26.26,0,0,0,.34.19s.08,0,.11,0,.08,0,.11,0a1.14,1.14,0,0,1,.25-.18.33.33,0,0,1,.36.18c0,.06,0,.08-.08.1a1.58,1.58,0,0,0-.43.34.5.5,0,0,0-.16.4.15.15,0,0,1-.08.15,6.22,6.22,0,0,1-1.78.81.61.61,0,0,1-.19,0,1.34,1.34,0,0,0-.4,0,.2.2,0,0,1-.17-.2c0-.1.1-.12.19-.12a1.09,1.09,0,0,0,.45-.17l-.41,0c-.15,0-.2,0-.22-.17s-.14-.29-.11-.47a.5.5,0,0,0,0-.17q0-.16.15-.15c.07.05,0,.1,0,.15s0,.07,0,.09.06.08.06.13,0,.13.11.13a.13.13,0,0,0,.14-.11c0-.12,0-.16.17-.14s.1,0,.08-.07a.81.81,0,0,1,0-.27.49.49,0,0,1-.39.11s-.06,0-.07-.05.06-.07.1-.09a1.54,1.54,0,0,0,.67-.71A.85.85,0,0,1,10.38,18.29Z"/><path class="cls-4" d="M10.38,18.29a1.8,1.8,0,0,1-.93,1,.11.11,0,0,1-.09.05h0c-.07,0-.18,0-.14.14s0,.12,0,.18.1.25.1.38,0,.07,0,.1.06.14.15.12.28.05.42,0a.07.07,0,0,1,.07.06.07.07,0,0,1-.06.08c-.17,0-.29.18-.47.12s-.14,0-.13.08,0,.19.13.19a2.94,2.94,0,0,1,.42,0,2,2,0,0,0,.73-.19A9.08,9.08,0,0,0,11.8,20s.09,0,.08-.1a.58.58,0,0,1,.22-.52,1.86,1.86,0,0,1,.48-.33l-.21-.18c-.09-.06-.16,0-.23.07a1.67,1.67,0,0,1-.16.12.07.07,0,0,1-.1,0,.13.13,0,0,0-.12,0,.27.27,0,0,1-.39-.19.17.17,0,0,0-.1-.13.27.27,0,0,1,0-.43,0,0,0,0,1,0,0c.2-.16.19-.28-.05-.4,0,0,0,0-.07,0l-.19.12a.57.57,0,0,1-.5.13.17.17,0,0,1,0-.12.26.26,0,0,0,.29,0l.36-.23a.09.09,0,0,1,.15,0,2.41,2.41,0,0,1,.4.44.89.89,0,0,0,.6.45c.2.05.3.22.45.34s0,.13,0,.17a1.59,1.59,0,0,0-.48.58A.41.41,0,0,1,12,20c-.33.21-.65.44-1,.62a2.66,2.66,0,0,1-1.66.31.19.19,0,0,1-.17-.16.18.18,0,0,1,0-.23.1.1,0,0,0,0-.09,1.26,1.26,0,0,0-.15-.5A1.25,1.25,0,0,1,9,19.41s0-.06.08-.07a2,2,0,0,0,1.12-1l.08-.12A.11.11,0,0,0,10.38,18.29Z"/><path class="cls-3" d="M18.6,12.65a.34.34,0,0,1-.28,0A.39.39,0,0,1,18.6,12.65Z"/><path class="cls-3" d="M17.4,22.69a.34.34,0,0,1,.28,0A.39.39,0,0,1,17.4,22.69Z"/><path class="cls-3" d="M23,16.94c-.1,0-.12,0-.16,0Z"/><path class="cls-3" d="M15.07,22.58a.22.22,0,0,1,.22,0A.41.41,0,0,1,15.07,22.58Z"/><path class="cls-5" d="M23.31,20.18a.7.7,0,0,1-.08.3c.08,0,.08-.08.14-.09s-.06.14,0,.22.07-.06.11-.07,0,0,0,0c0,.19,0,.19.19.15s.23-.06.27,0-.1.13-.17.17a1.67,1.67,0,0,0-.37.46s0,.08-.09.07,0-.07,0-.11a.7.7,0,0,1,0-.29c0-.14,0-.14-.11-.13a.16.16,0,0,1-.07,0c0-.07.11-.08.06-.13s-.12,0-.19,0,.09-.09.09-.16-.15.07-.23,0,.15-.08.1-.15-.12,0-.18,0h-.05c0-.05,0-.06,0-.08s.11-.06.06-.12-.08,0-.12,0a.29.29,0,0,1-.16,0c0-.07.08-.1.11-.14s.05,0,0-.07a.06.06,0,0,0-.08,0,.31.31,0,0,1-.25.05c0-.06.09-.09.14-.14s.06,0,0-.07-.06,0-.1,0a.38.38,0,0,1-.24.07c0-.07.08-.09.11-.14s.1,0,.06-.11-.08,0-.12,0a.39.39,0,0,1-.26.06c0-.11.14-.15.19-.23v0c0-.05-.14-.05-.09-.13s.1,0,.14.05,0,0,.07,0,0,0,0-.06l0,0s-.09-.06,0-.11.06,0,.1.06l0,.05.22-.28a.5.5,0,0,1-.06.35s-.05.08,0,.11.06,0,.09-.05l.13-.17a.41.41,0,0,1-.06.3c0,.05,0,.09,0,.12s.06,0,.09-.05.06-.1.13-.13a.44.44,0,0,1-.07.28s0,.06,0,.08,0,0,.06,0L23,19.8a.39.39,0,0,1-.05.29s0,.07,0,.09.06,0,.07,0,.07-.09.12-.15a.35.35,0,0,1-.06.26s0,.06,0,.09.05,0,.07,0Z"/><path class="cls-5" d="M19.76,19.75a8.35,8.35,0,0,1,.17,1,1,1,0,0,0,.24.48,3.68,3.68,0,0,1-1-.06c-.36-.06-.7-.17-1-.25a2.52,2.52,0,0,1-1-.55s-.06,0,0-.08a.81.81,0,0,1,.19-.38,1.39,1.39,0,0,0,.36-.44,2.39,2.39,0,0,1,.35-.36c0-.05.07,0,.11,0a4,4,0,0,0,1.44.31c.06,0,.07,0,.08.09a1.42,1.42,0,0,0,0,.2S19.77,19.73,19.76,19.75Z"/><path class="cls-5" d="M15.35,21.15c-.06-.06-.14,0-.21-.06s0,0-.05.06-.07.28-.1.42-.06.14-.14.15a1.47,1.47,0,0,1-1.11-.33.19.19,0,0,1-.05-.19,3,3,0,0,0,.1-.43.18.18,0,0,1,.19-.15,1.47,1.47,0,0,1,.54.06l-.07-.14a.29.29,0,0,1,.23-.42,1.12,1.12,0,0,1,1,.53c.16.26.12.34-.18.5A.25.25,0,0,1,15.35,21.15Z"/><path class="cls-4" d="M14.92,16.89c.12.1.13.16,0,.26l-.42.37a.33.33,0,0,1-.48,0,.69.69,0,0,1-.56.5.53.53,0,0,0-.31.19c-.06.06-.12.09-.2,0s-.06-.12,0-.2a.55.55,0,0,1,.33-.3c.05,0,.11,0,0-.11s0-.17.1-.2c.36-.07.33-.05.29-.39a.56.56,0,0,1,.1-.43c.06-.06,0-.17.1-.24s.08-.07.15,0,.09.09.06.14,0,.29.1.42c.06,0,.09-.13.18-.11s.12.16.14.27a1.15,1.15,0,0,1,.29-.18A.08.08,0,0,1,14.92,16.89Z"/><path class="cls-6" d="M24.22,18.94a.19.19,0,0,1,.22-.15.61.61,0,0,1,.65.42.2.2,0,0,0,.17.17.22.22,0,0,1,.14,0,.56.56,0,0,0,.27-.15c.07-.06.16-.07.2,0,.14.28.33.2.54.11a.11.11,0,0,1,.13,0,1,1,0,0,1,.54.54.28.28,0,0,1,0,.29,1.68,1.68,0,0,1-.45.47.46.46,0,0,1-.71-.2s0-.08-.08-.09a.66.66,0,0,1-.14,0,.2.2,0,0,0-.11.06c-.06.07-.12.11-.21,0s-.13,0-.2,0a.54.54,0,0,1-.64-.49.24.24,0,0,1,.1-.22c.1-.1.1-.16,0-.22a.64.64,0,0,1-.37-.5S24.2,19,24.22,18.94Z"/><path class="cls-4" d="M15.69,14a3.58,3.58,0,0,1,.93-.44,2.13,2.13,0,0,1,.94-.18h.09c.22,0,.3.11.22.32a6.82,6.82,0,0,1-.19.78c0,.07-.05.09-.12.11a2.7,2.7,0,0,0-.93.32c-.07,0-.1,0-.13,0a5.84,5.84,0,0,1-.47-.64A.59.59,0,0,0,15.69,14Z"/><path class="cls-6" d="M21,15.64a.67.67,0,0,0,.05.63.16.16,0,0,1,0,.24.65.65,0,0,1-.53.17.41.41,0,0,1-.34-.29c0-.08,0-.17-.07-.25a.2.2,0,0,0-.21-.14c-.2,0-.27,0-.3-.24a5.85,5.85,0,0,1,0-.59,4,4,0,0,1,0-.49s0,0,.05-.07a.43.43,0,0,1,.49-.28.63.63,0,0,1,.43.56.39.39,0,0,0,.19.38.47.47,0,0,1,.23.27S21,15.61,21,15.64Z"/><path class="cls-6" d="M22.19,17.89a.61.61,0,0,1,.5-.67l.2,0c.22,0,.23,0,.28.2a.32.32,0,0,0,.16.2,1.33,1.33,0,0,1,.56,1c0,.07,0,.12-.07.14a.58.58,0,0,0-.21.2.21.21,0,0,1-.29.07c-.15-.08-.31-.14-.46-.21A1.1,1.1,0,0,1,22.19,17.89Z"/><path class="cls-6" d="M19,15.81c0,.13-.14.14-.24.11a.13.13,0,0,0-.17.08s0,.11-.12.08-.05,0,0,.06,0,.19,0,.28,0,.1-.11.1a.61.61,0,0,1-.47-.56c0-.1.1-.07.15-.07a.32.32,0,0,0,.28-.21c.07-.13,0-.28.06-.41s.06-.07.11-.06a.5.5,0,0,1,.29.18s.08,0,.07.09a.81.81,0,0,1,.18.26A0,0,0,0,1,19,15.81Z"/><path class="cls-6" d="M19.9,18.74a.93.93,0,0,0-.24,0c-.17,0-.25,0-.27-.19a1.53,1.53,0,0,1,.1-.76l.1-.22s0-.07.07-.07a.1.1,0,0,1,.08.08c0,.12.11.14.21.14a1.5,1.5,0,0,1,.47.08.7.7,0,0,1,.29.19c.15.16.15.22,0,.4s-.16.23-.23.36-.11.12-.2,0a.27.27,0,0,0-.16-.08Z"/><path class="cls-4" d="M12.79,21.06c0,.06,0,.12,0,.19s-.05,0-.08.05-.1,0-.12,0-.22.09-.33.12-.27-.05-.36-.15-.05-.06,0-.08S12,21.07,12,21s0-.27.16-.33l0,0c0-.06.06-.17.18-.11s.15,0,.16.14.14.06.22.08h.08c0,.06,0,.09-.05.13A1.23,1.23,0,0,0,12.79,21.06Z"/><path class="cls-6" d="M22.28,17.22c0,.08,0,.11-.09.09a.14.14,0,0,0-.16.08c0,.06-.07.07-.13.06a.65.65,0,0,0-.24,0c-.08,0-.28-.11-.3-.2a.08.08,0,0,1,0,0c.13-.06.07-.18.09-.28s0-.22.14-.27l.05-.05s0-.14.12-.11.2,0,.2.15a0,0,0,0,0,0,0c.1,0,.17.07.31,0a.29.29,0,0,0,0,.4S22.3,17.19,22.28,17.22Z"/><path class="cls-7" d="M7.46,20.11a.87.87,0,0,1,.3-.54.26.26,0,0,1,.31,0,.32.32,0,0,0,.37,0,.49.49,0,0,1,.24-.08.21.21,0,0,1,.19.1.15.15,0,0,1,0,.19l-.68.78a.09.09,0,0,1-.16,0,.6.6,0,0,1-.09-.13c0-.09-.08-.18-.22-.09S7.46,20.27,7.46,20.11Z"/><path class="cls-8" d="M15.49,18a.36.36,0,0,1,.21-.42.27.27,0,0,1,.4.22.92.92,0,0,0,.11.33s.06.06,0,.1-.06,0-.09,0a.17.17,0,0,0-.17.05c-.13.15-.27.05-.41,0s-.06-.06-.06-.11,0-.14,0-.2Z"/><path class="cls-3" d="M21.8,19.15A.14.14,0,0,1,22,19c.13,0,.11.1.11.15a.13.13,0,0,1-.16.12A.11.11,0,0,1,21.8,19.15Z"/><path class="cls-3" d="M19.62,14.61a.61.61,0,0,0,0,.3,2.11,2.11,0,0,1,0,.26,1.56,1.56,0,0,1,0-.57C19.57,14.54,19.61,14.58,19.62,14.61Z"/><path class="cls-3" d="M21.55,19.38l.28.37,0,0a1,1,0,0,1-.25-.39Z"/><path class="cls-3" d="M21.52,19a.2.2,0,0,0,0,.23c0,.05.06.1.05.16h0a.42.42,0,0,1-.11-.32C21.44,19,21.48,19,21.52,19Z"/><path class="cls-3" d="M22.07,18.91a.46.46,0,0,1,.38.15Z"/><path class="cls-3" d="M21.69,18.91a.45.45,0,0,1,.39,0Z"/><path class="cls-3" d="M19.9,18.74a.36.36,0,0,1,.25,0A.28.28,0,0,1,19.9,18.74Z"/><path class="cls-9" d="M18.79,15.48l-.07-.09c.06,0,.12-.08.18,0S18.78,15.39,18.79,15.48Z"/><path class="cls-3" d="M21.52,19a.15.15,0,0,1,.17-.08C21.64,19,21.6,19,21.52,19Z"/><path class="cls-3" d="M25.68,20.34a.12.12,0,0,1,.14,0C25.77,20.41,25.73,20.36,25.68,20.34Z"/><path class="cls-3" d="M15.49,18v.22c0-.08-.06-.15,0-.22Z"/><path class="cls-3" d="M15.35,21.15h.19A.14.14,0,0,1,15.35,21.15Z"/><path class="cls-3" d="M21,15.64v-.1h0l0,0a.43.43,0,0,1,0,.16h0Z"/><path class="cls-3" d="M26.54,19.33h-.13c0-.07.1,0,.16,0S26.55,19.32,26.54,19.33Z"/><path class="cls-3" d="M24.22,18.94v.13h0a.86.86,0,0,1,0-.16S24.21,18.93,24.22,18.94Z"/><path class="cls-3" d="M22.44,19.11l-.06.1,0,0S22.38,19.12,22.44,19.11Z"/><path class="cls-3" d="M12.79,21.06c-.06-.06,0-.12,0-.19S12.79,21,12.79,21.06Z"/><path class="cls-3" d="M23.22,21.37a.22.22,0,0,1,0-.14A.17.17,0,0,1,23.22,21.37Z"/><path class="cls-3" d="M14.92,16.89h-.1c0-.06.07,0,.11,0v0A0,0,0,0,0,14.92,16.89Z"/><path class="cls-3" d="M19,15.81v-.07c.05,0,0,.07,0,.11Z"/><path class="cls-3" d="M23.75,20.65h.11S23.78,20.66,23.75,20.65Z"/><path class="cls-3" d="M24.49,20a.08.08,0,0,1,0-.08S24.49,19.94,24.49,20Z"/><path class="cls-3" d="M22.28,17.22s0,0,0-.08S22.32,17.2,22.28,17.22Z"/><path class="cls-3" d="M25.4,19.38a.17.17,0,0,1-.14,0A.1.1,0,0,1,25.4,19.38Z"/><path class="cls-3" d="M19.76,19.75V19.7l0-.08C19.79,19.68,19.8,19.71,19.76,19.75Z"/><path class="cls-7" d="M10.83,19.55a.18.18,0,0,1,.06-.18.22.22,0,0,0,0-.17.21.21,0,0,1,.11-.23.17.17,0,0,1,.17,0c.07,0,.06.09.06.14v.06c0,.16.05.19.21.15s.32,0,.29.21a.23.23,0,0,1-.12.15.17.17,0,0,0-.11.2c0,.07,0,.11-.08.12a.36.36,0,0,0-.38.27.15.15,0,0,1-.17.09.12.12,0,0,1-.12-.13c0-.05,0,0-.07,0l-.14.06a.15.15,0,0,1-.21-.07.11.11,0,0,1,0-.18c.05,0,0-.07,0-.11a.11.11,0,0,1,.05-.13.11.11,0,0,1,.12,0C10.77,19.8,10.83,19.75,10.83,19.55Z"/><path class="cls-8" d="M9.52,19.36c.12,0,.25,0,.33-.11a.06.06,0,0,1,.08,0s0,.06,0,.09a.24.24,0,0,0,0,.22c0,.08,0,.15-.14.11s-.13,0-.12.09-.1.15-.18.16-.14-.05-.14-.14,0-.11,0-.14-.06-.06,0-.11.07-.08.06-.14h0C9.39,19.34,9.46,19.39,9.52,19.36Z"/><path class="cls-10" d="M10.67,18.9c.08.13,0,.22-.07.31s.05.14,0,.17-.06-.13-.16-.11a1.33,1.33,0,0,1-.2,0,1.73,1.73,0,0,1,.1-.24s0-.08-.06-.09-.06,0,0-.06.05,0,.08,0,.08,0,.11-.05h0l0-.2s0,0,.05,0,0,0,0,0,0,.11.06.13.2-.09.33-.12c0,.09-.12.11-.16.15A.12.12,0,0,0,10.67,18.9Z"/><path class="cls-3" d="M9.87,20.84a1.19,1.19,0,0,1-.42,0A.75.75,0,0,1,9.87,20.84Z"/><path class="cls-11" d="M10.55,19.38s0-.12,0-.17v0a.33.33,0,0,1,0,.14v.1A.11.11,0,0,1,10.55,19.38Z"/><path class="cls-3" d="M9.52,19.36c-.06.06-.12,0-.18,0s.07-.05.11-.06S9.49,19.35,9.52,19.36Z"/><path class="cls-3" d="M10.38,18.8s0,0,0,0,0-.11,0-.17Z"/><path class="cls-3" d="M10.52,18.76c-.07,0-.08,0-.06-.13Z"/><path class="cls-3" d="M10.67,18.9s-.05-.08,0-.11A.1.1,0,0,1,10.67,18.9Z"/><path class="cls-3" d="M9.22,19.7a.55.55,0,0,1,0-.18C9.25,19.58,9.22,19.64,9.22,19.7Z"/><path class="cls-3" d="M10.24,19.32a.08.08,0,0,1,.08,0S10.27,19.32,10.24,19.32Z"/><path class="cls-3" d="M10.61,19.38a.22.22,0,0,1,0-.14A.12.12,0,0,1,10.61,19.38Z"/><path class="cls-3" d="M11.88,19.1H12S11.91,19.17,11.88,19.1Z"/><path class="cls-3" d="M9.28,19.52a.09.09,0,0,0,0,.11C9.23,19.63,9.25,19.58,9.28,19.52Z"/><path class="cls-3" d="M11.79,19c-.2.07-.27,0-.34-.16a.2.2,0,0,0-.11-.13.17.17,0,0,1,0-.3c.07,0,.1-.12.18-.17a1.29,1.29,0,0,0,.68.6c-.12.07-.18.25-.37.16,0,0,0,0,0,0s0,0,0,0h0S11.78,19,11.79,19Z"/><path class="cls-3" d="M12,19.9c0-.32.23-.48.47-.62C12.25,19.46,12.18,19.72,12,19.9Z"/><path class="cls-3" d="M9.49,20.39s.11-.05.12,0-.06.07-.07.06-.16,0-.17-.06S9.45,20.42,9.49,20.39Z"/><path class="cls-3" d="M11.79,19h0c0-.05,0,0,0,0s0,0,0,0h0Z"/><path class="cls-3" d="M23.4,21c0-.14.14-.2.31-.23a1.92,1.92,0,0,0-.28.3C23.38,21.1,23.39,21.06,23.4,21Z"/><path class="cls-3" d="M23.4,21s0,0,0,.07,0,.06-.08,0Z"/><path class="cls-3" d="M22.43,19.75a0,0,0,0,1-.05,0s0,0,0,0a0,0,0,0,1,0,0S22.45,19.75,22.43,19.75Z"/><path class="cls-3" d="M18,19.38c.05-.05.07-.11.15-.11h0s0,.07,0,.1,0,0,0,0l-.11.12a.54.54,0,0,0-.09.12s-.05.05,0,.09.11,0,.15,0,.05-.14.14-.17,0,0,0,0-.07.19-.1.28l-.06.1-.06.12a2.39,2.39,0,0,1-.13.21c-.05.08,0,.13,0,.17l0,0a.15.15,0,0,0,0,.06s0,0,0,.05,0,.07.05.08.05,0,.08,0a.19.19,0,0,0,.13,0l0,0s0,0,0,0a.49.49,0,0,1,0-.12.12.12,0,0,1,.06-.06c.05,0,.05.06.05.1a.62.62,0,0,1,0,.13.06.06,0,0,1,0,0s0,.11-.12.08a2,2,0,0,1-.94-.5c-.08-.06-.05-.25.07-.36a2.76,2.76,0,0,0,.43-.47A.71.71,0,0,1,18,19.38Z"/><path class="cls-3" d="M19.67,20.76l0,.22c0,.16,0,.16-.15.14l-.16,0s-.08,0-.09-.06a1,1,0,0,1,0-.43c0-.05.1,0,.16,0s0,.08.06.1.08,0,.07-.07a.57.57,0,0,1,0-.22s0-.05,0-.05l.07.27C19.67,20.66,19.64,20.71,19.67,20.76Z"/><path class="cls-3" d="M18.85,21s-.05,0-.05,0a1.21,1.21,0,0,1,0-.19v-.33c0-.05,0-.12-.06-.13a0,0,0,0,1-.05,0s-.05-.07-.1-.07h0a.18.18,0,0,1-.07,0l0,0h-.07s0,0,0,.06a.36.36,0,0,1,0,.11l0,0s0,0-.05-.06v-.07a.08.08,0,0,0,0-.11c-.05,0-.1-.09-.13,0s0,.05,0,.06,0,0-.05-.05a.11.11,0,0,1,0-.08l.06-.14s0,0,0-.06l0,0,0,0c.05,0,.05-.07.08-.1a.06.06,0,0,1,.07,0l0,0a.52.52,0,0,1,0,.11.12.12,0,0,0,0,.09s.1,0,.13,0,.05,0,.08,0l0,0,.07,0c0,.06.05,0,.08,0h0a.07.07,0,0,1,0,0c0,.05,0,0,0,0s0,0,.06,0,0,.08,0,.13a1,1,0,0,0,0,.17,1.23,1.23,0,0,0,0,.27.31.31,0,0,1,0,.21Z"/><path class="cls-3" d="M18.18,19.56l0,0c0-.09.06-.14.09-.21s0-.06.08,0a7.24,7.24,0,0,0,1.12.25c0,.05-.09,0-.14.05h-.18s-.05,0-.08.05-.08-.07-.13,0,0,0,0,0-.09-.05-.14-.07-.07,0-.08.07,0,.1-.07.15h0a.09.09,0,0,1,0,0c0-.05,0-.1,0-.14v0l0,0,0,0h-.08s0,0,0,0l0,0,0,0h-.06S18.23,19.56,18.18,19.56Z"/><path class="cls-12" d="M19.55,20.41a.88.88,0,0,0,0,.16c.05.12,0,.18-.12.16s0-.12,0-.17a2,2,0,0,1,0-.35v-.12s0-.08.05-.09,0,.05.05.08,0,.12,0,.17v0S19.52,20.36,19.55,20.41Z"/><path class="cls-3" d="M19.69,20a2.26,2.26,0,0,1,.1.73,1.26,1.26,0,0,1-.12-.61S19.63,20,19.69,20Z"/><path class="cls-3" d="M19.49,20.09l0-.09a.15.15,0,0,1-.07-.1.08.08,0,0,1,0-.07c.05-.19.05-.19-.12-.28,0-.05.12,0,.17,0s.07,0,.07.08,0,.32,0,.49C19.52,20.1,19.51,20.1,19.49,20.09Z"/><path class="cls-3" d="M18.57,20.22c.09,0,.12,0,.12.09s0,.16,0,.24a.07.07,0,0,1,0,.05c0,.11,0,.23-.05.33h0s-.05,0-.06-.07a.7.7,0,0,1,0-.29s0-.09,0-.13,0,0,0-.05,0-.09,0-.11S18.55,20.24,18.57,20.22Z"/><path class="cls-3" d="M18.85,21v0c.07,0,0-.11,0-.17a.88.88,0,0,1,0-.16c0-.07,0-.13,0-.19s0,0,.05,0a.85.85,0,0,1,0,.35c0,.06,0,.12,0,.17l.06,0,0,0a0,0,0,0,1,0,0A.64.64,0,0,1,18.85,21Z"/><path class="cls-13" d="M18.82,20.8c0,.05,0,.11,0,.16h0l0,0a1.18,1.18,0,0,1,0-.26,1.49,1.49,0,0,1,0-.21l0,0s0,0,0,0S18.8,20.68,18.82,20.8Z"/><path class="cls-3" d="M18.6,20.87l0,.06a.6.6,0,0,1-.22-.06l0,0c.08-.05,0-.15.09-.23s0,0,0,0l0,0A2.44,2.44,0,0,0,18.6,20.87Z"/><path class="cls-3" d="M18.66,20.93a1,1,0,0,1,0-.34c.05,0,0,.09.06.14a.34.34,0,0,1,0,.22S18.67,21,18.66,20.93Z"/><path class="cls-3" d="M18.33,19.27l-.06.06a.12.12,0,0,1-.08,0l-.06,0h0C18.17,19.09,18.25,19.26,18.33,19.27Z"/><path class="cls-3" d="M19.08,21v0a.09.09,0,0,1,.08,0,.48.48,0,0,1,.17.05l.06.06A.81.81,0,0,1,19.08,21Z"/><path class="cls-14" d="M19.64,19.86a.27.27,0,0,1,0-.2c.07.05.05.12.05.18S19.66,19.86,19.64,19.86Z"/><path class="cls-3" d="M19.64,19.86l0,0,0,.13s0,.09,0,.12A.85.85,0,0,1,19.64,19.86Z"/><path class="cls-3" d="M19.49,20.09h0l0,.16C19.47,20.22,19.51,20.14,19.49,20.09Z"/><path class="cls-3" d="M18.72,21v-.22h0c.05.06,0,.13,0,.2v0Z"/><path class="cls-3" d="M18,19.38a.18.18,0,0,1-.1.14A.17.17,0,0,1,18,19.38Z"/><path class="cls-3" d="M18.29,20.85c.07,0,.05-.09.11-.09s0,.06,0,.09S18.32,20.86,18.29,20.85Z"/><path class="cls-3" d="M18.38,20.85l0-.09v0s0,0,0,0a.2.2,0,0,1,0,.08.07.07,0,0,1,0,.06h0Z"/><path class="cls-3" d="M19.55,20.41c0-.05,0-.1,0-.14a.06.06,0,0,1,0,.07Z"/><path class="cls-3" d="M19.67,20.76a.16.16,0,0,1,0-.15A.36.36,0,0,1,19.67,20.76Z"/><path class="cls-3" d="M14.83,20.21a1.07,1.07,0,0,1,.82.52c.1.18,0,.31-.18.31a1.19,1.19,0,0,1-.72-.3s-.05-.1-.12,0l0,0c.06-.1-.06-.16-.07-.24S14.59,20.22,14.83,20.21Z"/><path class="cls-3" d="M14.65,21.63a1.49,1.49,0,0,1-.79-.26.37.37,0,0,1,0-.38s.05,0,.07,0a1.79,1.79,0,0,0,.95.28c.08,0,.09,0,.07.08a1,1,0,0,0,0,.17c0,.07-.05.1-.11.09A.17.17,0,0,0,14.65,21.63Z"/><path class="cls-3" d="M13.91,20.74a1.24,1.24,0,0,1,1.08.32A1.3,1.3,0,0,1,13.91,20.74Z"/><path class="cls-3" d="M14.65,21.63a.1.1,0,0,1,.14,0A.33.33,0,0,1,14.65,21.63Z"/><path class="cls-3" d="M14,16.68c.16.16.18.38.3.57,0-.1,0-.18.06-.25s0-.1.07-.09,0,.06,0,.11a1.13,1.13,0,0,1,0,.3l.2-.17.17-.13s.11-.06.14,0,0,.07-.07.1l-.38.35q-.25.2-.39-.09A.91.91,0,0,1,14,16.68Z"/><path class="cls-3" d="M13.83,17.07c.1.21.19.41,0,.62a.54.54,0,0,1-.34.23.89.89,0,0,0-.42.24s0,.05-.07,0,0-.05,0-.08a.38.38,0,0,1,.2-.21l.27-.13a.53.53,0,0,0,.31-.57A.16.16,0,0,1,13.83,17.07Z"/><path class="cls-3" d="M13.65,17.52c-.08.08-.11.16-.22.13a.06.06,0,0,1,0-.07s0,0,0,0Z"/><path class="cls-3" d="M13.82,17c-.05-.05,0-.11,0-.19Z"/><path class="cls-15" d="M14,16.64a.14.14,0,0,1,0-.16Z"/><path class="cls-3" d="M24.53,18.91a.43.43,0,0,1,.44.27c.16.36.38.42.69.18.1-.08.15-.08.21,0a.28.28,0,0,0,.37.12.56.56,0,0,1,.75.39.22.22,0,0,1,0,.21,1.71,1.71,0,0,1-.44.45.37.37,0,0,1-.56-.18.25.25,0,0,0-.4-.1.26.26,0,0,1-.24.06.37.37,0,0,0-.23,0,.47.47,0,0,1-.5-.43.27.27,0,0,1,.07-.13c.15-.16.14-.27,0-.38a.57.57,0,0,1-.24-.19c0-.1-.11-.21,0-.32A.25.25,0,0,0,24.53,18.91Z"/><path class="cls-3" d="M24.53,18.91a.14.14,0,0,1-.17,0A.33.33,0,0,1,24.53,18.91Z"/><path class="cls-3" d="M16.58,14.21s0,0,.05,0l.08,0,.1-.06.11,0s.1,0,.14,0,.05-.06.07-.1a.35.35,0,0,1,0-.11h0s0,0,0,0,0,.05,0,.07a.11.11,0,0,0,.08,0s0,0,.08,0a.08.08,0,0,1,0,0v0a.11.11,0,0,1,0,.08l0,0c-.08,0,0,.11-.09.15s0,0-.05,0,0-.05,0-.07,0,0,0,.07a.48.48,0,0,1,0,.12c0,.06,0,.12-.1.07a.18.18,0,0,1,0-.1.37.37,0,0,0,0-.11s0,0,0,0h0a.24.24,0,0,0-.13.07h0l-.1,0-.08,0-.07.06-.07,0a.09.09,0,0,1-.05-.12S16.57,14.24,16.58,14.21Z"/><path class="cls-3" d="M16.22,14.16c-.12,0-.11-.15-.19-.2s0,0,0,0c.24-.14.27-.12.43.23l0,0s-.05.05-.08.07S16.31,14.12,16.22,14.16Z"/><path class="cls-3" d="M16.78,14.72c0,.06-.1.08-.15.11a2.37,2.37,0,0,1-.17-.36s0,0,0-.05.07,0,.11,0,.06,0,.09,0a.14.14,0,0,1,0,.06C16.72,14.56,16.79,14.63,16.78,14.72Z"/><path class="cls-16" d="M17.09,14.14s0,0,0,0,0,.07,0,.11,0,0,0,0,0,0,0,0,0,0,0,0a.14.14,0,0,1,0,.12c0,.09,0,.19,0,.28s-.08,0-.11.08H17a.37.37,0,0,1,0-.18l0,0c.06,0,0-.09,0-.14A.2.2,0,0,1,17.09,14.14Z"/><path class="cls-17" d="M16.78,14.24s.06-.06.11,0a.45.45,0,0,1,.08.23c0,.06.05.13,0,.19v0h-.06s0-.08,0-.12a.41.41,0,0,0-.05-.09l0-.09,0,0S16.75,14.27,16.78,14.24Z"/><path class="cls-18" d="M17.54,14.53h-.06a.09.09,0,0,1,0-.1,2.25,2.25,0,0,1,.06-.36s.06-.05.1,0A.73.73,0,0,1,17.54,14.53Z"/><path class="cls-3" d="M16.73,13.7c0-.06.07-.11.13,0s0,.07.06.11a.24.24,0,0,1,0,.08.13.13,0,0,1-.06.07l-.07,0,0,0a.05.05,0,0,1,0,0l0,0,0,0a.14.14,0,0,1,0-.06Z"/><path class="cls-19" d="M17.54,14.53c0-.16.08-.31.05-.48a0,0,0,0,1,.05,0s0,.05,0,.07v.06s0,.11-.05.16S17.64,14.49,17.54,14.53Z"/><path class="cls-20" d="M16.22,14.16c0-.1.06-.07.1,0s0,.07.06.1.11.11.1.2-.09,0-.12-.09,0,0,0,0a.47.47,0,0,1-.14-.14Z"/><path class="cls-3" d="M17.06,14.64a.1.1,0,0,1,.09-.06c0-.06,0-.14,0-.19s0,0,.05-.06.05.08.08.13a.12.12,0,0,1,0,.1A1,1,0,0,1,17.06,14.64Z"/><path class="cls-20" d="M16.8,14.1l-.08.06c-.11,0-.08-.07-.11-.12l0,0a.06.06,0,0,1,0,0s0,0,0,0h.06l0,0,.06,0,0,0,0,0S16.82,14.08,16.8,14.1Z"/><path class="cls-3" d="M17.68,14.11s0,0,0-.06,0-.08,0-.12l0-.11c0-.07,0-.13,0-.19s.09.07.12.12,0,.1,0,.13Z"/><path class="cls-3" d="M17.51,14.08l0,.45h-.05c-.07,0-.08,0-.09-.07a.19.19,0,0,1,0-.08.22.22,0,0,0,.06-.15C17.46,14.18,17.41,14.09,17.51,14.08Z"/><path class="cls-3" d="M17.73,13.51c.11.11.06.22,0,.33A.26.26,0,0,1,17.73,13.51Z"/><path class="cls-3" d="M17.36,14.43s0,.09.07.1a.17.17,0,0,1-.12,0l0-.09c0-.09-.08-.2,0-.29l0,.07s0,0,0,0A.66.66,0,0,1,17.36,14.43Z"/><path class="cls-21" d="M16.78,14.72a.51.51,0,0,1-.1-.24.1.1,0,0,1,.1,0l0,0a0,0,0,0,1,0,0l0,.13s0,.07,0,.1Z"/><path class="cls-22" d="M16.78,14.5v0a.13.13,0,0,1,0-.05h0a.1.1,0,0,1,.06.09s0,.09,0,.14h0a.1.1,0,0,1-.1.06s0-.06,0-.09S16.79,14.54,16.78,14.5Z"/><path class="cls-6" d="M17.73,13.51a.53.53,0,0,0,0,.33v0c-.07,0,0-.07-.06-.11a.35.35,0,0,0-.05-.2l-.11,0s0,0,0,0S17.66,13.42,17.73,13.51Z"/><path class="cls-3" d="M17.5,13.49l0,0c0,.05-.1,0-.14.06s0,.1-.06.14-.06-.12-.12-.15,0,0,0,0A1,1,0,0,1,17.5,13.49Z"/><path class="cls-23" d="M16.89,13.82s0-.09,0-.13l0,0a0,0,0,0,1,.06,0,.08.08,0,0,1,0,0l0,0a.09.09,0,0,1,0,.07S16.92,13.86,16.89,13.82Z"/><path class="cls-3" d="M17,14.64c0-.07,0-.13,0-.2h0c0,.07.06.13,0,.2Z"/><path class="cls-3" d="M16.61,14c.06,0,0,.13.11.12s0,0-.09,0S16.55,14.1,16.61,14Z"/><path class="cls-3" d="M17.2,13.52v0s0,0,0,0a.2.2,0,0,1-.13,0s-.08,0,0-.07Z"/><path class="cls-24" d="M17,13.55s0,0,.05,0a.05.05,0,0,1,0,0,.08.08,0,0,1-.11.08.16.16,0,0,1,0-.15Z"/><path class="cls-3" d="M16.5,13.86s-.07,0-.05-.07,0,0,0,0,.06,0,.08.08l0,0H16.5Z"/><path class="cls-3" d="M16.22,14.19c.07,0,.09.09.14.14S16.24,14.26,16.22,14.19Z"/><path class="cls-3" d="M17,13.57s0,.1,0,.14,0,0,0,0l0,0s0-.07,0-.1Z"/><path class="cls-3" d="M17,13.58a.17.17,0,0,1,0,.1l-.06,0C16.88,13.58,17,13.61,17,13.58Z"/><path class="cls-3" d="M16.36,14.35l.11.09s0,0,0,0l0,0C16.39,14.47,16.37,14.41,16.36,14.35Z"/><path class="cls-3" d="M16.22,14.33s.06.05,0,.11-.06-.07-.08-.11Z"/><path class="cls-3" d="M17.62,14.33c0-.06,0-.13.05-.16A.19.19,0,0,1,17.62,14.33Z"/><path class="cls-3" d="M16.48,14.16h0s0,.07.09.05a.07.07,0,0,1-.07,0C16.46,14.23,16.43,14.21,16.48,14.16Z"/><path class="cls-3" d="M16.22,14.33h0a.08.08,0,0,1,0-.08A.1.1,0,0,1,16.22,14.33Z"/><path class="cls-17" d="M16.57,13.82h0s0,0,0,0a0,0,0,0,1,0,0v.07h-.05l0-.05a.06.06,0,0,1,0,0Z"/><path class="cls-3" d="M16.73,13.7v.05s0,0,0,0l0,0a.07.07,0,0,1,0,0S16.7,13.65,16.73,13.7Z"/><path class="cls-25" d="M16.5,13.9v0h0s0,0,0,0h0s0,0,0,0h0S16.51,13.92,16.5,13.9Z"/><path class="cls-3" d="M16.5,13.9l0,0a0,0,0,0,1,0,0h0S16.49,13.94,16.5,13.9Z"/><path class="cls-26" d="M16.67,13.71s0,0,0,0v0l-.05,0s0,0,0,0Z"/><path class="cls-27" d="M16.61,13.76l0,0h0s0,0,0,0h0A0,0,0,0,1,16.61,13.76Z"/><path class="cls-28" d="M16.61,14l0,0,0,0h0Z"/><path class="cls-3" d="M16.61,13.8h0l0,0h-.05v0A0,0,0,0,1,16.61,13.8Z"/><path class="cls-29" d="M16.53,13.88h0Z"/><path class="cls-3" d="M16.61,13.8h0s0,0,0,0Z"/><path class="cls-3" d="M20.8,15.92a.91.91,0,0,0,.14.42.07.07,0,0,1,0,.11.62.62,0,0,1-.43.14.33.33,0,0,1-.29-.25,1.74,1.74,0,0,0-.05-.22.29.29,0,0,0-.34-.21c-.11,0-.17,0-.17-.14s0-.22,0-.33a3.66,3.66,0,0,0,.05-.57c0-.26.08-.41.26-.45a.45.45,0,0,1,.44.3c0,.11,0,.21,0,.31,0-.06,0-.12,0-.18a.58.58,0,0,0,.33.56.22.22,0,0,1,.09.24c0,.09,0,.18-.05.26s0-.06,0-.09V16s0,0,0,0h0S20.77,15.94,20.8,15.92Z"/><path class="cls-3" d="M20.43,14.85v.21c0-.12-.07-.22,0-.34Z"/><path class="cls-3" d="M20.8,15.92V16h0V15.8h0l0,.11Z"/><path class="cls-3" d="M22.31,17.67a.48.48,0,0,1,.43-.36h.2c.08,0,.13,0,.13.1a.41.41,0,0,0,.2.28,1.28,1.28,0,0,1,.52.83c0,.08,0,.13-.07.17a1.7,1.7,0,0,0-.19.19.11.11,0,0,1-.16,0c-.17-.08-.35-.14-.51-.23a1,1,0,0,1-.55-.73A2.61,2.61,0,0,0,22.31,17.67Z"/><path class="cls-3" d="M22.31,17.67a.34.34,0,0,1,0,.28A.45.45,0,0,1,22.31,17.67Z"/><path class="cls-3" d="M18.27,16.39A1,1,0,0,1,18,16c.28,0,.4-.19.45-.55.06.07,0,.15.07.23s.14,0,.18.13c-.15,0-.19.15-.31.2S18.4,16.27,18.27,16.39Z"/><path class="cls-3" d="M18.49,15.37c.14,0,.12.11.19.15s.12.14.18.22C18.72,15.75,18.69,15.72,18.49,15.37Z"/><path class="cls-3" d="M19.66,17.69a.27.27,0,0,0,.28.15,1.41,1.41,0,0,1,.53.12.53.53,0,0,1,.15.11c.13.12.13.16,0,.3l-.21.33s0,.09-.07,0a.73.73,0,0,0-.64-.08c-.22,0-.26,0-.26-.21A1.85,1.85,0,0,1,19.66,17.69Z"/><path class="cls-3" d="M12.11,21.14c.09-.06.14-.16.25-.2a.34.34,0,0,0-.17-.08.23.23,0,0,1,.28-.1h0c.06,0,.18,0,.17.07s0,.26-.09.38-.17.1-.25,0-.08-.11-.15,0S12.11,21.19,12.11,21.14Z"/><path class="cls-3" d="M12.11,21.14a.05.05,0,0,0,.06,0l-.13.09C12,21.2,12.09,21.18,12.11,21.14Z"/><path class="cls-3" d="M12.38,20.63s-.06.06-.1,0,0,0,0-.05S12.34,20.59,12.38,20.63Z"/><path class="cls-3" d="M12.19,21l-.07,0s0,0,0,0,0-.05,0-.05S12.14,21,12.19,21Z"/><path class="cls-3" d="M21.66,17.11c.05-.06.09-.14.19-.14a.5.5,0,0,0-.19-.1c.09-.12.19-.13.45,0a2.62,2.62,0,0,0,0,.28c0,.11-.11.14-.16.22s-.05,0-.08,0l-.17-.17S21.66,17.14,21.66,17.11Z"/><path class="cls-3" d="M21.66,17.11l0,0a.27.27,0,0,1-.11.1s-.05.08-.09,0,0-.05.05-.08S21.61,17.1,21.66,17.11Z"/><path class="cls-3" d="M22.11,17.11a.34.34,0,0,1,0-.28c.07,0,0,.06,0,.1a.28.28,0,0,1,0,.18Z"/><path class="cls-3" d="M21.86,16.64s-.07.06-.11,0S21.8,16.6,21.86,16.64Z"/><path class="cls-3" d="M21.61,17s0,0,0,0,0,0,0,0,0,0,0,0S21.61,17,21.61,17Z"/><path class="cls-3" d="M22.11,17.11v-.18A.23.23,0,0,1,22.11,17.11Z"/><path class="cls-3" d="M8.27,19.74l.33-.13c.06,0,.13,0,.17,0s0,.11,0,.15c-.19.22-.38.43-.57.66-.07.07-.1.06-.14,0s0-.09-.07-.14-.12-.12-.23-.06-.16,0-.15-.1a.71.71,0,0,1,.25-.47.16.16,0,0,1,.22,0,.72.72,0,0,0,.2.09s0,0,0,0S8.28,19.78,8.27,19.74Z"/><path class="cls-3" d="M8.27,19.74l0,0a.09.09,0,0,1-.11,0l0,0Z"/><path class="cls-3" d="M15.88,17.64c.1,0,.12.08.13.16a.8.8,0,0,0,.09.3c-.06,0-.14,0-.18.09s-.18,0-.27,0,0,0,0,0a2.31,2.31,0,0,1,0-.37.19.19,0,0,1,.18-.19Z"/><path class="cls-3" d="M15.88,17.64a.07.07,0,0,1-.11,0A.11.11,0,0,1,15.88,17.64Z"/><path class="cls-3" d="M11.06,19.1a.07.07,0,0,1,.09-.06c.06,0,0,.06,0,.09,0,.23.13.36.35.26,0,0,.11-.05.14,0a.11.11,0,0,1-.05.15c-.1.06-.19.13-.17.27s0,.05-.06.05a.38.38,0,0,0-.37.29.1.1,0,0,1-.1.07c-.05-.18-.11-.21-.29-.14a.45.45,0,0,1-.11,0s-.09,0,0-.08.08-.14,0-.26c.12.06.22.09.31,0a.27.27,0,0,0,.09-.29.06.06,0,0,1,0,0c.12-.09.09-.23.12-.36,0,0,0,.09,0,.16C11.06,19.2,11.08,19.15,11.06,19.1Z"/><path class="cls-3" d="M11.06,19.1a.17.17,0,0,1,0,.17v-.15A0,0,0,0,1,11.06,19.1Z"/><path class="cls-3" d="M9.81,19.5s0,0-.06,0a.17.17,0,0,0-.16.19c0,.06,0,.09-.08.09s0-.06,0-.09a.15.15,0,0,1,0-.07s-.1-.1-.06-.13a.29.29,0,0,1,.22-.06h0C9.71,19.46,9.77,19.43,9.81,19.5Z"/><path class="cls-3" d="M9.81,19.5s-.1,0-.15,0S9.78,19.38,9.81,19.5Z"/><path class="cls-3" d="M10.33,19.18a.35.35,0,0,0,.06-.16.13.13,0,0,1,.12-.14c.06,0,.09.09.09.14a.15.15,0,0,1-.12.14Z"/><path class="cls-30" d="M18.18,19.27s.08,0,.09.06l-.11.19a2.12,2.12,0,0,0-.12.2c-.06.13-.12.13-.2,0a.18.18,0,0,1,.05-.12.31.31,0,0,1,.09-.11c0-.06.07-.09.09-.14h0S18.14,19.3,18.18,19.27Z"/><path class="cls-31" d="M18,20.2s0,0,0-.05,0-.11.07-.12.08.06.11.09,0,0,0,0-.05,0,0,0a.18.18,0,0,1,0,.16.43.43,0,0,0-.05.12l0,.11s0,.08-.05.11-.06-.07-.06-.12,0-.08,0-.12a.2.2,0,0,1,0-.08.16.16,0,0,1,0-.09A.18.18,0,0,1,18,20.2Z"/><path class="cls-13" d="M18,20.68a.17.17,0,0,1,0-.12c.05,0,0-.07.05-.1a.21.21,0,0,1,.05-.13s0-.09,0-.14-.07-.05,0-.08.05,0,.08,0,.06,0,0,.09v.07a1.33,1.33,0,0,0,0,.2,0,0,0,0,1,0,0,.31.31,0,0,0,0,.1.25.25,0,0,1,0,.07A.06.06,0,0,1,18,20.68Z"/><path class="cls-32" d="M18,20.06v.07s0,.07,0,.1l0,.11s0,.08,0,.1-.16-.05-.08-.19L18,20S18,20,18,20.06Z"/><path class="cls-33" d="M18.43,20.72l0,0c-.05,0,0-.08,0-.11s0-.17,0-.25,0,0,0-.07v0l.07-.08s0-.05,0,0l.06.06a.47.47,0,0,1,0,.17.53.53,0,0,0,0,.12C18.48,20.59,18.49,20.67,18.43,20.72Z"/><path class="cls-34" d="M18.18,19.56c.05-.06.09-.15.14,0l0,0v0l0,0s0,0,0,0l0,0a.27.27,0,0,0-.07.08.14.14,0,0,1-.08.07h0s0,0,0,0Z"/><path class="cls-35" d="M17.6,20.07a2.56,2.56,0,0,0-.11.24s0,.07-.07,0,0-.06,0-.08.09-.16.14-.24S17.61,20,17.6,20.07Z"/><path class="cls-36" d="M18.13,20.7a.06.06,0,0,1,0-.08c.05,0,0-.07.06-.08v0s0,0,.06,0,0,.12,0,.17a.14.14,0,0,1,0,.06C18.22,20.74,18.17,20.79,18.13,20.7Z"/><path class="cls-37" d="M17.65,20.1a.84.84,0,0,1,.11-.21s0,0,0,0,0,0,0,.06l-.12.19Z"/><path class="cls-3" d="M18.41,20.36a.63.63,0,0,1,0,.27s0-.09,0-.12a.14.14,0,0,1,0-.06S18.35,20.36,18.41,20.36Z"/><path class="cls-38" d="M18.18,19.27c0,.06,0,.12-.11.11s.05-.07.06-.11S18.17,19.23,18.18,19.27Z"/><path class="cls-39" d="M17.9,19.64s0,.09-.06.11-.05-.08,0-.12S17.89,19.63,17.9,19.64Z"/><path class="cls-40" d="M18.07,19.38c0,.07,0,.1-.08.14s0,0,0,0A.24.24,0,0,1,18.07,19.38Z"/><path class="cls-41" d="M17.6,20.07l0,0s0-.1.08-.11h0C17.67,20,17.63,20,17.6,20.07Z"/><path class="cls-42" d="M18.27,20.71v-.06s0-.06,0-.09h0v.14s0,0,0,0Z"/><path class="cls-43" d="M18,19.52h0l-.09.12h0S17.88,19.52,18,19.52Z"/><path class="cls-44" d="M18,20.39l0,0a.12.12,0,0,1,0,.11s-.05,0-.05-.05S17.89,20.39,18,20.39Z"/><path class="cls-3" d="M18,20.53l0-.11c.07,0,0,.09,0,.14Z"/><path class="cls-43" d="M17.82,20.05c0-.08,0-.11.05-.13s0,0,0,0S17.87,20,17.82,20.05Z"/><path class="cls-45" d="M17.72,20.22a.11.11,0,0,1,0-.1s0,0,0,0A.1.1,0,0,1,17.72,20.22Z"/><path class="cls-36" d="M18,20.06l0,0,.06-.11h0A.34.34,0,0,1,18,20.06Z"/><path class="cls-46" d="M17.65,19.92a.1.1,0,0,1,.07-.1c0,.06,0,.09-.07.1Z"/><path class="cls-3" d="M18.29,20.74l0,0v.06s0,0,0,0S18.28,20.76,18.29,20.74Z"/><path class="cls-3" d="M18,20.39l-.05.09v0a.15.15,0,0,1,0-.11.05.05,0,0,1,0,0S18,20.38,18,20.39Z"/><path class="cls-47" d="M18,19.92h0a.13.13,0,0,1,.05-.09l0,0S18.08,19.91,18,19.92Z"/><path class="cls-48" d="M18.32,20.56h0s0,0,0,0,0-.06,0-.08h0v.06S18.35,20.55,18.32,20.56Z"/><path class="cls-3" d="M19.28,19.55c.21,0,.25.08.16.27a.43.43,0,0,0,0,.11c0,.05,0,.1,0,.15s0,.07,0,.1,0,0,0,0-.06.25,0,.36l0,0a0,0,0,0,1,0,0,.33.33,0,0,1-.14,0c-.06-.05,0-.12-.05-.18a.07.07,0,0,0-.07,0H19l0,0h-.08l-.05,0,0-.12v0a.12.12,0,0,1,.05-.07s0,0,0,0,0,.05.05.06h.19c0-.16,0-.31,0-.47a.23.23,0,0,1,0-.16Z"/><path class="cls-10" d="M19.11,20.34h.05c0,.05,0,.11,0,.16s0-.13.06-.13,0,.15,0,.22a3.12,3.12,0,0,0,0,.44.18.18,0,0,1-.16,0l0,0a.61.61,0,0,0,0-.13s0,0,0-.06a.39.39,0,0,0,0-.15,1.09,1.09,0,0,1,0-.18A.15.15,0,0,1,19.11,20.34Z"/><path class="cls-3" d="M19.42,20.59v0s0,0,0,0v.17C19.39,20.7,19.43,20.64,19.42,20.59Z"/><path class="cls-49" d="M18.32,20a.11.11,0,0,1-.05-.11.22.22,0,0,0,.06-.13l.05-.06,0,0a.09.09,0,0,1,.06,0v0s0,.06,0,.08a.94.94,0,0,0-.06.15S18.36,20,18.32,20Z"/><path class="cls-20" d="M18.69,20.56v-.25l0,0c.08,0,.08.08.05.14h0s0,.08,0,.12l0,0Z"/><path class="cls-50" d="M18.89,20.17h-.06a.08.08,0,0,1,0-.07c0-.06,0-.11,0-.17s0-.06.07-.07.05,0,.06,0v0a.65.65,0,0,1-.08.22Z"/><path class="cls-36" d="M18.86,20.29h.05a.11.11,0,0,1,0,.14v.18s0,0,0,0,0-.09,0-.14Z"/><path class="cls-25" d="M18.55,20.06a.27.27,0,0,1-.09,0,.19.19,0,0,1,0-.13.16.16,0,0,1,.06-.08.07.07,0,0,1,.06,0s0,.06,0,.1v0a.09.09,0,0,1,0,.05Z"/><path class="cls-38" d="M18.66,20.12s-.07,0-.09,0,.05-.12.08-.18a.06.06,0,0,1,.07,0s0,0,0,0a.41.41,0,0,1,0,.19S18.67,20.13,18.66,20.12Z"/><path class="cls-3" d="M18.82,20.8c0-.13,0-.25,0-.38s0,0,0,0A2.8,2.8,0,0,1,18.82,20.8Z"/><path class="cls-51" d="M18.82,20.39l0,0h0l-.05-.14C18.8,20.26,18.82,20.28,18.82,20.39Z"/><path class="cls-3" d="M18.89,20.63l0,0v.26s0,.09-.05.09a.31.31,0,0,0,0-.19C18.87,20.71,18.86,20.67,18.89,20.63Z"/><path class="cls-3" d="M18.5,20.39a.33.33,0,0,1,.05-.16h0l0,.05a0,0,0,0,1,0,.05s0,.09-.06.11S18.5,20.41,18.5,20.39Z"/><path class="cls-52" d="M18.66,19.92c0,.06,0,.15-.09.17l0,0h0a.13.13,0,0,1,0-.06l0,0,0,0Z"/><path class="cls-18" d="M18.69,20.11a.31.31,0,0,1,0-.19c.08,0,0,.06.05.1s0,0,0,.06a0,0,0,0,1,0,0h0S18.71,20.13,18.69,20.11Z"/><path class="cls-3" d="M18.27,20.48l-.06,0c-.06-.08,0-.14,0-.21l0,.07s0,0,0,.06v.05Z"/><path class="cls-36" d="M18.25,19.78s-.05.1-.08.14,0,0,0,0a.18.18,0,0,1,0-.1s0,0,0,0S18.24,19.77,18.25,19.78Z"/><path class="cls-3" d="M18.38,20.29a0,0,0,0,0,0,0,.07.07,0,0,1,0,.06,0,0,0,0,1-.05,0s0-.06,0-.09,0-.09.07-.08h0S18.4,20.25,18.38,20.29Z"/><path class="cls-3" d="M18.47,19.92v.14c0-.07-.1,0-.14-.06s.05,0,.06-.05l.07,0S18.47,19.91,18.47,19.92Z"/><path class="cls-53" d="M18.36,19.75c0,.07,0,.12-.09.14l0-.11a.05.05,0,0,1,0,0Z"/><path class="cls-54" d="M18.89,20.63v.13c-.05-.09,0-.19,0-.28S18.88,20.58,18.89,20.63Z"/><path class="cls-3" d="M18.38,20.29a.23.23,0,0,1,0-.12l0,0s0,.05,0,.07S18.43,20.29,18.38,20.29Z"/><path class="cls-55" d="M18.25,19.78h0s0-.08,0-.11h.06s0,0,0,0,0,0,0,0a.07.07,0,0,1,0,0Z"/><path class="cls-3" d="M18.38,20.17l-.05.08,0,0s0-.09.06-.1Z"/><path class="cls-3" d="M18.77,20.11v0s0-.06,0-.07,0,0,0,.07v.07C18.77,20.19,18.79,20.12,18.77,20.11Z"/><path class="cls-3" d="M18,20.22l0-.09s0,.05,0,.07l0,.08C17.93,20.28,17.94,20.25,18,20.22Z"/><path class="cls-45" d="M18.27,20.46c-.05,0,0-.06,0-.09s0,0,0,0,0,0,0,0S18.34,20.44,18.27,20.46Z"/><path class="cls-3" d="M18.18,19.81l-.05.09,0,0,.06-.08S18.2,19.78,18.18,19.81Z"/><path class="cls-56" d="M18.24,20.23l0-.09v0C18.34,20.12,18.25,20.19,18.24,20.23Z"/><path class="cls-3" d="M18.69,20.11h0l-.08,0s0,0,0,0l0,0Z"/><path class="cls-3" d="M18.3,20.34h0s0-.07,0-.11l0,0v.08S18.31,20.35,18.3,20.34Z"/><path class="cls-3" d="M18.46,20.22l0-.07s.05,0,.06,0S18.46,20.2,18.46,20.22Z"/><path class="cls-3" d="M18.29,19.74a0,0,0,0,1,0-.06s0,0,0,0,0,0,0,0l0,0Z"/><path class="cls-57" d="M19.27,19.55v.16a2.75,2.75,0,0,0,0,.41s0,.09,0,.11h0c-.07-.11,0-.23,0-.35s0-.1,0-.13a.17.17,0,0,1,0-.19Z"/><path class="cls-58" d="M19.05,19.61c0-.05,0-.09.08-.08s0,.11,0,.17,0,.12,0,.18-.07,0-.09-.05l0,0a.22.22,0,0,1,0-.08,0,0,0,0,1,0,0A.07.07,0,0,1,19.05,19.61Z"/><path class="cls-37" d="M18.57,19.72a.78.78,0,0,1,.08-.23c0-.07,0-.06.09,0a.08.08,0,0,1,0,.07s0,.08-.05.11l0,0-.06,0S18.58,19.74,18.57,19.72Z"/><path class="cls-41" d="M19.05,19.61a.05.05,0,0,1,0,.05c-.06,0,0,.09-.06.1a.07.07,0,0,1-.06,0,.15.15,0,0,1,0-.17C19,19.42,19,19.57,19.05,19.61Z"/><path class="cls-3" d="M18.46,19.75s0,0,0,0a.2.2,0,0,1,0-.13.06.06,0,0,1,0,0s0,0,0,0h0c.1.05,0,.1,0,.14S18.52,19.77,18.46,19.75Z"/><path class="cls-59" d="M18.57,19.72h.06a.06.06,0,0,1,0,.05.29.29,0,0,1,0,.09v0l0,0h0s0,0,0,0h0c-.07-.05,0-.09,0-.13Z"/><path class="cls-3" d="M18.55,19.73s-.05.08,0,.13l-.06.06h0s0-.08,0-.13,0,0,0,0a.05.05,0,0,0,.06-.06Z"/><path class="cls-60" d="M18.74,19.55s0,0,0-.05.12,0,.17,0h0s0,0-.06,0h0s0,0,0,0,0,0,0,0h0S18.74,19.56,18.74,19.55Z"/><path class="cls-61" d="M18.83,19.58s0,0,.06,0l0,0v.11a.05.05,0,0,1-.05,0h-.08a.05.05,0,0,1,0,0S18.83,19.62,18.83,19.58Z"/><path class="cls-3" d="M19.13,19.71v-.18l.06,0a1.36,1.36,0,0,0,0,.2h0S19.12,19.74,19.13,19.71Z"/><path class="cls-3" d="M18.57,19.44h.05a.1.1,0,0,1,0,.09s0,0,0,0A.11.11,0,0,1,18.57,19.44Z"/><path class="cls-3" d="M18.41,19.5s0,0,.08,0l0,0s0,0,0,0a.09.09,0,0,1-.07,0Z"/><path class="cls-3" d="M18.38,19.55l0,0h0v0h0l0,0h0Z"/><path class="cls-15" d="M18.32,19.58v0h.06s0,0,0,0h0l0,0Z"/><path class="cls-62" d="M18.49,19.5v0h.06v0h-.07Z"/><path class="cls-3" d="M18.55,19.5v0l0,0v0S18.56,19.51,18.55,19.5Z"/><path class="cls-61" d="M18.49,19.5h0a0,0,0,0,1,0,0h0a0,0,0,0,0,0,0h0s0,0,0,0a0,0,0,0,1,0,0Z"/><path class="cls-3" d="M18.53,19.52v0h.05v0Z"/><path class="cls-3" d="M18.43,19.52h0v0h0s0,0,0,0Z"/><path class="cls-3" d="M19.44,20.56h0c-.06-.06,0-.14,0-.22s0-.12.06-.14A1.09,1.09,0,0,1,19.44,20.56Z"/><path class="cls-3" d="M19.44,20.2s0,.1,0,.14-.07-.11,0-.17l0-.09s0,0,0,0Z"/><path class="cls-44" d="M19.44,20.09h0v-.15s.06,0,0,.07S19.45,20.06,19.44,20.09Z"/><path class="cls-3" d="M18.6,20.87c-.05-.09,0-.19,0-.28a0,0,0,0,1,0,0h0A1.05,1.05,0,0,0,18.6,20.87Z"/><path class="cls-63" d="M18.57,20.31l0,0c.13,0,0,.08,0,.12s0,0-.06,0S18.58,20.32,18.57,20.31Z"/><path class="cls-3" d="M18.6,20.34l0,.05,0,0h0a.1.1,0,0,1,0-.05S18.56,20.32,18.6,20.34Z"/><path class="cls-7" d="M18.69,20.56h0a.15.15,0,0,1,0,.17h0c-.06,0,0-.1,0-.14Z"/><path class="cls-64" d="M18.61,20.43h0v.14h0C18.56,20.51,18.56,20.47,18.61,20.43Z"/><path class="cls-65" d="M19.16,21a0,0,0,0,1,0,0h-.12a.75.75,0,0,1-.06-.39v-.07s0-.07,0-.1,0-.09,0-.12h0a.09.09,0,0,1,0,.06.47.47,0,0,0,0,.17s0,.06,0,.09a.49.49,0,0,1,0,.12c0,.05,0,.09,0,.13A.11.11,0,0,0,19.16,21Z"/><path class="cls-10" d="M19,20.45l0,.09c0,.05,0,.11,0,.17s0,.09-.05.1v-.39c0-.05-.06-.12.06-.11h0A.17.17,0,0,1,19,20.45Z"/><path class="cls-33" d="M19,20.81s0-.11,0-.17,0-.1.05-.1v.05a1.22,1.22,0,0,0,0,.27s0,.07,0,.09S19,20.86,19,20.81Z"/><path class="cls-3" d="M19,21c0-.12,0-.24,0-.36a2.86,2.86,0,0,0,0,.42S19,21,19,21Z"/><path class="cls-3" d="M19,20.31c-.09,0-.05.07-.06.11h0v-.14A.11.11,0,0,1,19,20.31Z"/><path class="cls-3" d="M18.72,20.73v-.17h0s0,.06,0,.09v.28C18.71,20.87,18.78,20.78,18.72,20.73Z"/><path class="cls-3" d="M18.77,20.65l0-.09s0-.1,0-.13Z"/><path class="cls-66" d="M18.44,20.87s0,0,0-.06a.4.4,0,0,1,0-.24c.06,0,.05,0,.06.05a1.15,1.15,0,0,0,0,.19C18.53,20.88,18.48,20.86,18.44,20.87Z"/><path class="cls-9" d="M18.54,20.62l0-.06s0,0,0,0,0-.08,0-.1,0-.09.05-.12l0,0s0,0,0,.06a.26.26,0,0,1,0,.19Z"/><path class="cls-3" d="M18.55,20.59l0-.19,0,0v.13l0,0Z"/><path class="cls-3" d="M18.49,20.54a0,0,0,0,0,0,0l0,.25s0-.06,0-.09l0-.21S18.51,20.51,18.49,20.54Z"/><path class="cls-8" d="M26.34,19.61c.06.12.2.17.26.3a.3.3,0,0,1,0,.23s0,0-.05,0a.05.05,0,0,0-.08,0c-.11.11-.22,0-.32,0s0-.09,0-.15,0,0,0-.06a.75.75,0,0,1,0-.16c0-.08.11,0,.13-.08S26.3,19.65,26.34,19.61Z"/><path class="cls-3" d="M17.34,13.55c.05-.06.12,0,.18,0h.13s0,0,0,.06,0,.07-.05.11-.07.16,0,.24,0,0,.06,0,.06.08,0,.11h-.06s-.05,0-.08,0,0,.12-.05.17a.12.12,0,0,1,0-.17V14c0-.05,0-.1,0-.16s0-.12,0-.16l-.07,0S17.32,13.57,17.34,13.55Z"/><path class="cls-67" d="M16.48,14.16a.14.14,0,0,0,0,.09l.07.12s0,.05,0,.07-.07,0-.09,0h0c0-.07,0-.15-.09-.2S16.38,14.1,16.48,14.16Z"/><path class="cls-65" d="M17.09,14.14l0,.16a.07.07,0,0,1-.09,0s-.08-.06,0-.12S17,14.14,17.09,14.14Z"/><path class="cls-49" d="M17.43,13.63c.11,0,0,.13.05.18s0,.11,0,.15l0,0s0-.06,0-.09,0,0,0-.07v0C17.35,13.69,17.36,13.64,17.43,13.63Z"/><path class="cls-3" d="M17.09,14.05c-.05,0-.12,0-.17,0s0,0,0-.05A.2.2,0,0,1,17,14H17S17.1,14,17.09,14.05Z"/><path class="cls-46" d="M17.31,14.18a1.5,1.5,0,0,0,0,.29c-.05,0,0-.1-.05-.14v-.14s0-.1.08-.07Z"/><path class="cls-3" d="M16.78,14.24l0,.09s0,0,0,.05a0,0,0,0,1,0,0l0,0a.07.07,0,0,1-.06,0s0-.07,0-.11S16.73,14.19,16.78,14.24Z"/><path class="cls-68" d="M17.45,14.08v.17s0,.12-.06.13l0,0v-.12l0-.12,0,0Z"/><path class="cls-62" d="M16.9,14l0,.06s-.08,0-.12,0l0,0V14l0,0h.08A.05.05,0,0,1,16.9,14Z"/><path class="cls-3" d="M16.92,14.22s0,.07.06.11.06.07,0,.11H17a.43.43,0,0,1-.06-.22Z"/><path class="cls-34" d="M17.36,14s-.08,0-.11,0a.08.08,0,0,1,0-.09s0-.1.1-.05,0,.05,0,.08S17.39,14,17.36,14Z"/><path class="cls-3" d="M17.31,14.12s0,.07-.08.07-.05-.07,0-.1S17.29,14.06,17.31,14.12Z"/><path class="cls-3" d="M17.09,14.05,17,14h0a.14.14,0,0,1,.08,0s0,0,0,0S17.14,14,17.09,14.05Z"/><path class="cls-9" d="M17.18,14.39c0,.06,0,.13,0,.19,0-.1,0-.21,0-.3Z"/><path class="cls-69" d="M17.29,13.88l0,.09a.07.07,0,0,1-.05-.09s0-.05.06,0S17.3,13.86,17.29,13.88Z"/><path class="cls-46" d="M17.43,14.08a0,0,0,0,1,0,0s0,.06,0,.09,0,.07,0,.1h0v-.05C17.37,14.2,17.27,14.07,17.43,14.08Z"/><path class="cls-70" d="M17.14,13.93l0,0a.05.05,0,0,1,0-.05.06.06,0,0,1,0-.06h0s0,0,0,.05S17.19,13.9,17.14,13.93Z"/><path class="cls-71" d="M16.69,14.28l0,.11h-.06a.05.05,0,0,1,0-.07S16.64,14.26,16.69,14.28Z"/><path class="cls-3" d="M16.63,14.33s0,.05,0,.06v0h0l-.06,0v-.07S16.6,14.33,16.63,14.33Z"/><path class="cls-18" d="M17.25,13.85l-.05,0v-.05a.14.14,0,0,1,0-.06l0,0h0a.09.09,0,0,1,.05.09Z"/><path class="cls-3" d="M17.2,13.78v.05h0l0,0a.12.12,0,0,1,0-.14C17.24,13.65,17.16,13.74,17.2,13.78Z"/><path class="cls-3" d="M17.45,14l0-.15c0,.06,0,.13,0,.18Z"/><path class="cls-3" d="M17.36,14v-.08s0-.05,0-.06a.13.13,0,0,1,0,.09Z"/><path class="cls-52" d="M17.14,14.16v.06h0v-.1Z"/><path class="cls-22" d="M16.65,14.41s0,0,0,0h.06s0,0,.06,0,0,0,0,0-.05.06-.09,0Z"/><path class="cls-72" d="M17,14.44s-.05-.07,0-.11l.08,0C17.09,14.37,17.14,14.44,17,14.44Z"/><path class="cls-3" d="M16.92,14.67a.13.13,0,0,1,0-.14A.14.14,0,0,1,16.92,14.67Z"/><path class="cls-67" d="M16.78,14.39v0h0s0,.05,0,.08h0S16.8,14.4,16.78,14.39Z"/><path class="cls-39" d="M16.8,14.36h0a0,0,0,0,1,0,0Z"/><path class="cls-3" d="M16.9,14l0,0s0,0,0,0h0l.05-.06q.09,0,.06.09S16.94,14,16.9,14Z"/><path class="cls-3" d="M17,14a.11.11,0,0,0-.06-.09l0-.06s.06,0,.08,0,.08.1,0,.17h0Z"/><path class="cls-3" d="M16.75,13.8h0l0,0h0s0,0,0,0S16.74,13.79,16.75,13.8Z"/><path class="cls-73" d="M16.81,13.91s.05,0,.06,0H16.8A0,0,0,0,1,16.81,13.91Z"/><path class="cls-3" d="M16.75,13.8h0v0h0v0S16.75,13.78,16.75,13.8Z"/><path class="cls-3" d="M16.81,13.91v0h0l0,0a0,0,0,0,1,0,0h0Z"/><path class="cls-63" d="M16.8,13.87h0s0,0,0,0,0,0,0,0h0Z"/><path class="cls-3" d="M16.78,13.85h0v0h0l0,0Z"/><path class="cls-74" d="M16.75,14s-.07,0-.08,0h.06l0,0S16.76,14,16.75,14Z"/><path class="cls-3" d="M16.75,14v0s0,0,0,0a0,0,0,0,1,0,0v0h0Z"/><path class="cls-75" d="M16.66,13.94h0v0a.05.05,0,0,1,0,0l0,0v0Z"/><path class="cls-3" d="M16.61,14h0s0,0,0,0v0h0s0,0,0,0h0Z"/><path class="cls-10" d="M16.62,13.94a0,0,0,0,1,0,0v0a0,0,0,0,1,0,0,0,0,0,0,1,0,0v0h0Z"/><path class="cls-27" d="M16.75,14h0v0Z"/><path class="cls-3" d="M16.66,13.94h0s0,0,0,0h0S16.67,14,16.66,13.94Z"/><path class="cls-3" d="M17.6,13.54a0,0,0,0,0,0,0c.06.08,0,.16,0,.25s0-.12-.07-.14A.06.06,0,0,1,17.6,13.54Z"/><path class="cls-3" d="M17.6,13.54v.09c0,.07,0,.13,0,.2s0,0-.05,0,0-.1,0-.16S17.54,13.58,17.6,13.54Z"/><path class="cls-4" d="M17.59,13.85s0,0,0,0,.06.07,0,.11l0,0A.07.07,0,0,1,17.59,13.85Z"/><path class="cls-76" d="M17.35,14.3h0s0,0,0,0a0,0,0,0,1,0,0l0,0S17.35,14.34,17.35,14.3Z"/><path class="cls-3" d="M16.78,14.5s.08.08,0,.14Z"/><path class="cls-77" d="M16.78,14.39l0,0,0,0v-.09Z"/><path class="cls-49" d="M17.26,13.83l0-.09a.58.58,0,0,1-.05-.14l0,0v0c.12,0,0,.14.11.17l0,0C17.34,13.8,17.34,13.85,17.26,13.83Z"/><path class="cls-78" d="M17.32,13.74v0c0-.05,0-.12,0-.16v.08a.11.11,0,0,1,0,.1S17.33,13.75,17.32,13.74Z"/><path class="cls-77" d="M17.12,13.8l0,0a0,0,0,0,1-.05,0,.43.43,0,0,0,0-.07l0,0h0l.09,0C17.14,13.71,17.14,13.75,17.12,13.8Z"/><path class="cls-72" d="M17,13.77c.05,0,.06,0,.06.06s.05.11,0,.13h0a.25.25,0,0,0,0-.17Z"/><path class="cls-79" d="M17.2,13.56v0a.14.14,0,0,1,0,.14v0c-.05,0,0-.1-.06-.12a.05.05,0,0,1-.05,0v0A.14.14,0,0,1,17.2,13.56Z"/><path class="cls-50" d="M17.09,13.62s.05,0,.05,0v.14h0l0-.11Z"/><path class="cls-3" d="M16.55,13.82v0h0S16.53,13.83,16.55,13.82Z"/><path class="cls-3" d="M16.53,13.85h0a0,0,0,0,1,0,.06l0,0Z"/><path class="cls-3" d="M16.64,13.88h0v0h0l0,0s0,0,0,0Z"/><path class="cls-3" d="M16.64,13.85h0v0h0s0,0,0,0Z"/><path class="cls-80" d="M16.72,13.77a0,0,0,0,0,0,0v0h0s0,0,0,0a0,0,0,0,1,0,0h0Z"/><path class="cls-29" d="M16.58,13.94s0,0,0,0h0s0,0,0,0Z"/><path class="cls-3" d="M16.69,13.77v0h-.05v-.06S16.67,13.77,16.69,13.77Z"/><path class="cls-81" d="M16.64,13.8h0s0,0,0,0h0v0Z"/><path class="cls-3" d="M11.15,19.12s0,.08,0,.08,0,0,0,0A.08.08,0,0,1,11.15,19.12Z"/><path class="cls-82" d="M18.16,20.33l0,.14s0,0,0,0A.15.15,0,0,1,18.16,20.33Z"/><path class="cls-3" d="M18,20.22l0,.06,0,.09,0,0A.14.14,0,0,1,18,20.22Z"/><path class="cls-83" d="M18.09,20.44l0,0s0,.09-.06.09S18.06,20.48,18.09,20.44Z"/><path class="cls-3" d="M18.21,20.54l0,.1s0,0,0,0a.06.06,0,0,1,0,0S18.13,20.52,18.21,20.54Z"/><path class="cls-84" d="M18.35,20.37l0-.06,0,.05c-.05,0,0,.08-.06.09h0S18.33,20.39,18.35,20.37Z"/><path class="cls-3" d="M18.49,20.54l0,0,0-.12,0,0S18.53,20.51,18.49,20.54Z"/><path class="cls-3" d="M18.18,19.81l0,0,.07-.11s0,.07,0,.11Z"/><path class="cls-85" d="M18.29,19.64l0,0h0s0,0,0,0h-.07Z"/><path class="cls-20" d="M18.34,19.61h0v0h0s0,0,0,0Z"/><path class="cls-32" d="M18.29,19.64h0s0,0,0,0h0Z"/><path class="cls-3" d="M18.3,20.54v0l0,.09c-.07-.06,0-.12,0-.17h0C18.32,20.48,18.31,20.51,18.3,20.54Z"/><path class="cls-3" d="M18.3,20.54l0-.06v0s0-.08,0-.12h0l0,0,0,.08Z"/><path class="cls-86" d="M19.4,20.17a.32.32,0,0,0,0,.17v.22c-.08,0-.11,0-.11-.09s0-.21,0-.31,0-.08,0-.08S19.39,20.13,19.4,20.17Z"/><path class="cls-80" d="M19.19,20.21h0c-.07,0-.07-.07-.07-.13a.3.3,0,0,0,0-.13c0-.05,0-.15.1-.16A2.77,2.77,0,0,1,19.19,20.21Z"/><path class="cls-85" d="M19.19,20.21c0-.13-.06-.27,0-.41s0,0,0-.05h0s0-.07,0,0v.46Z"/><path class="cls-3" d="M19.22,20.23c.06-.06,0-.14,0-.21a1.62,1.62,0,0,1,0-.31c0,.15,0,.3,0,.45S19.3,20.26,19.22,20.23Z"/><path class="cls-3" d="M19,20.15l0-.06a.17.17,0,0,1,0-.17h0c0-.05,0-.1,0-.14s.06,0,.08.06S19,20,19,20,19,20.13,19,20.15Z"/><path class="cls-3" d="M19.11,20.09s0,.1,0,.13-.1,0-.13,0,0,0,0,0l0-.09s0-.07.05,0S19.12,20.06,19.11,20.09Z"/><path class="cls-46" d="M19.24,20.37c-.09,0,0,.14-.08.2v-.23S19.23,20.31,19.24,20.37Z"/><path class="cls-12" d="M18.94,19.92v.17s0,.07-.07.07A.65.65,0,0,1,18.94,19.92Z"/><path class="cls-79" d="M19,20.17s0,0,0,0,0,0-.05,0L19,20s0,0,0,0A.22.22,0,0,1,19,20.17Z"/><path class="cls-3" d="M19.06,20.38v-.05s0,0,.06,0v.11a0,0,0,0,1,0,0S19.06,20.4,19.06,20.38Z"/><path class="cls-87" d="M19,20.45v-.14a0,0,0,0,1,0,0S19.05,20.42,19,20.45Z"/><path class="cls-3" d="M19.09,20.79v-.14s0,0,0,0a.17.17,0,0,1,0,.14A0,0,0,0,1,19.09,20.79Z"/><path class="cls-3" d="M19.16,21s-.05,0,0-.06,0-.06,0-.08A.17.17,0,0,1,19.16,21Z"/><path class="cls-3" d="M19.14,20.84l0,.08c0-.05-.05-.08,0-.13h0Z"/><path class="cls-3" d="M19.11,20.65h0v-.09a.14.14,0,0,1,0-.11h0Z"/><path class="cls-3" d="M18.46,19.79v.13s0,.06-.08,0S18.38,19.82,18.46,19.79Z"/><path class="cls-88" d="M18.46,19.58c.05.05,0,.09,0,.14l-.05,0a0,0,0,0,1,0,0s0,0,0,0a0,0,0,0,1,0,0l.05,0Z"/><path class="cls-89" d="M18.33,19.75v0l0,0h0s0,0,0,0,0,0,0,0Z"/><path class="cls-3" d="M18.4,19.72h0s0,0,0,0h0a0,0,0,0,1,0,0v.06Z"/><path class="cls-3" d="M18.86,19.69h.05v.06a.09.09,0,0,1,0,.11s0,0-.05.07a.16.16,0,0,1-.07-.07v0A.37.37,0,0,1,18.86,19.69Z"/><path class="cls-3" d="M18.8,19.86c.05,0,.06,0,.06.07a.23.23,0,0,1,0,.16l0-.06s0-.1,0-.13,0,0,0,0Z"/><path class="cls-7" d="M18.91,19.86v-.11H19v0s0,.1,0,.14S18.94,19.87,18.91,19.86Z"/><path class="cls-3" d="M18.55,19.87l0,0a.08.08,0,0,1,0,.08s0,0,0,0Z"/><path class="cls-90" d="M18.55,20h.08s0,0-.05,0,0,0,0,0Z"/><path class="cls-32" d="M18.55,20l0,0,0,0Z"/><path class="cls-31" d="M18.6,19.89a0,0,0,0,0,0,0s0-.07.08-.07l0,0a.05.05,0,0,1,0,0s0,0,0,0l-.06,0h0S18.61,19.91,18.6,19.89Z"/><path class="cls-3" d="M18.72,19.89l0,0h0v0c0,.05,0,.1,0,.13s.05-.09,0-.11Z"/><path class="cls-91" d="M18.6,19.89l0,0v0h0s0,0,0-.08Z"/><path class="cls-4" d="M18.74,20c.05,0,0-.09,0-.13s0,.09,0,.13,0,0,0,.06A.05.05,0,0,1,18.74,20Z"/><path class="cls-3" d="M18.35,19.72h0v-.08s0,0,0,0,0,0,0,0a0,0,0,0,1,0,0h0S18.37,19.71,18.35,19.72Z"/><path class="cls-70" d="M19,20.17V20a.31.31,0,0,1,0-.19l.05.08s0,.06,0,.08a.17.17,0,0,1,0,.12V20C19.07,20.07,19.09,20.14,19,20.17Z"/><path class="cls-3" d="M19.13,20s0-.06,0-.08a.57.57,0,0,1,0-.18l0,0,0,.05C19.12,19.84,19.15,19.91,19.13,20Z"/><path class="cls-68" d="M19.05,19.81A.41.41,0,0,1,19,20h0c0-.06,0-.11,0-.17s0,0,0,0Z"/><path class="cls-8" d="M19,19.75v-.12l0,0v0s0,.08-.05.06Z"/><path class="cls-3" d="M19,19.75l.05-.06v.14l0,0Z"/><path class="cls-3" d="M18.74,19.55l0,0a.07.07,0,0,1,0,.05.14.14,0,0,1,0,.06s0,0-.05,0h0A.15.15,0,0,1,18.74,19.55Z"/><path class="cls-41" d="M18.63,19.77v-.06l0,0a.07.07,0,0,1,0,.06S18.66,19.79,18.63,19.77Z"/><path class="cls-3" d="M18.66,19.75v-.06h0a0,0,0,0,1,0,.06A0,0,0,0,1,18.66,19.75Z"/><path class="cls-92" d="M18.43,19.52s0,0,0,0l0,0v0h-.06Z"/><path class="cls-3" d="M18.43,19.55h0v0h0s0,0,0,0Z"/><path class="cls-93" d="M18.66,19.75h0s0,0,0,0h0s0,.08-.09.07a.12.12,0,0,1,0-.1Z"/><path class="cls-12" d="M18.6,19.89V20h0v-.08Z"/><path class="cls-74" d="M18.75,19.63v-.05h.07c.06.08,0,.08,0,.09S18.75,19.65,18.75,19.63Z"/><path class="cls-3" d="M18.81,19.58a0,0,0,0,1,0,0l0,0Z"/><path class="cls-52" d="M18.86,19.69s0,.11-.05.14a.08.08,0,0,1,0,0v0s0,0,0,0,0,0,0,0Z"/><path class="cls-3" d="M18.78,19.69v0s0,0,0,0a0,0,0,0,1,0,0v-.06l0,0S18.77,19.68,18.78,19.69Z"/><path class="cls-92" d="M18.44,19.55l0,0s0,0-.05,0,0,0,0,0l0,0Z"/><path class="cls-3" d="M18.41,19.55v0s0,0,0,0v0Z"/><path class="cls-3" d="M18.38,19.58h0v0h0s0,0,0,0h0v0Z"/><path class="cls-51" d="M19.08,20.45v.11s0-.12,0-.18Z"/><path class="cls-3" d="M26.48,20a.18.18,0,0,1-.16,0s0,.08,0,.12-.09-.05-.08-.08-.07-.2.07-.24a.15.15,0,0,1,.15.08C26.47,19.92,26.4,20,26.48,20Z"/><path class="cls-94" d="M17.59,13.85V14s-.06,0-.06,0-.08-.19,0-.27S17.54,13.8,17.59,13.85Z"/><path class="cls-89" d="M17.34,13.74v-.11h.09c-.06,0,0,.07,0,.11S17.36,13.75,17.34,13.74Z"/><path class="cls-44" d="M17.34,13.74h.05v0s0,.05,0,.06,0,.13-.07.05l0,0v0s.06,0,.06-.09Z"/><path class="cls-3" d="M17.36,13.83s0-.06,0-.06v.08l0,.06Z"/><path class="cls-82" d="M17.37,14.19s0-.08.05-.08a.11.11,0,0,1,0,.11S17.38,14.2,17.37,14.19Z"/><path class="cls-3" d="M17.37,14.19l0,0v.13l0,0Z"/><path class="cls-49" d="M16.83,13.94h0V14h0S16.82,14,16.83,13.94Z"/><path class="cls-3" d="M16.83,13.94V14h0s0,0,0-.05h0Z"/><path class="cls-46" d="M16.81,13.94V14h0v0h0Z"/><path class="cls-3" d="M17,14s0-.09,0-.13l0,0,0,.05S17.07,14,17,14Z"/><path class="cls-60" d="M17.2,13.74V13.6c0,.05.07.09,0,.14Z"/><path class="cls-95" d="M16.75,13.83v.05h0v-.06h0Z"/><path class="cls-25" d="M16.75,13.88h0v.06h0l0,0,0,0Z"/><path class="cls-3" d="M16.75,13.94h0v0h-.05v0h0Z"/><path class="cls-9" d="M16.72,13.94v0h0v-.06h0S16.73,13.93,16.72,13.94Z"/><path class="cls-46" d="M16.66,13.88v0h0s0,0,0,0l0,0h0v0Z"/><path class="cls-3" d="M16.66,13.88v0h0v0Z"/><path class="cls-3" d="M16.69,13.85h0v0h0v0S16.7,13.87,16.69,13.85Z"/><path class="cls-3" d="M16.7,13.82h0v0h0Z"/><path class="cls-3" d="M18.36,19.61h0v0h0Z"/><path class="cls-94" d="M18.37,19.63s0,0,0,0h0v.05h0Z"/><path class="cls-96" d="M18.35,19.72s0,0,0-.06v.06Z"/><path class="cls-3" d="M18.77,19.78s0,0,0,0v0h0l0,0A.08.08,0,0,1,18.77,19.78Z"/><path class="cls-40" d="M18.77,19.83v0h0l0,0h.05Z"/><path class="cls-53" d="M18.75,19.83h0l0,0h.06A0,0,0,0,1,18.75,19.83Z"/><path class="cls-97" d="M18.74,19.69v0h0s0,0,0,0v0Z"/><path class="cls-79" d="M18.69,19.72h0a.05.05,0,0,1,0,.08h0v-.08Z"/><path class="cls-52" d="M18.75,19.83v0a.06.06,0,0,1,0-.06s0,0,0,0v.07Z"/><path class="cls-98" d="M18.77,19.76h0s0,0,0,0h0S18.8,19.74,18.77,19.76Z"/><path class="cls-3" d="M16.69,13.91v0s0,0,0,0h0v0h-.06Z"/><path class="cls-3" d="M16.72,13.88h0a0,0,0,0,1,0,0h0Z"/><path class="cls-3" d="M16.72,13.91h0v0h0Z"/><path class="cls-3" d="M18.74,19.72v.08h0v-.08Z"/></g></g></svg>