<svg xmlns="http://www.w3.org/2000/svg" viewBox="0 0 35 55.34"><defs><style>.cls-1{fill:#fff;}.cls-2{fill:#07e5d9;}</style></defs><title>circle-collection</title><g id="Layer_2" data-name="Layer 2"><g id="Layer_1-2" data-name="Layer 1"><circle class="cls-1" cx="17.58" cy="17.64" r="13.89"/><path class="cls-2" d="M35,17.19a19.7,19.7,0,0,0-.78-5.07c0-.56-.33-1-.44-1.52A19.37,19.37,0,0,0,30.86,6c-.34-.41-.74-.75-1.1-1.14l-.16-.16a17.74,17.74,0,0,0-4.35-3c-.51-.24-1-.45-1.56-.67s-1.33-.42-2-.61A23.12,23.12,0,0,0,19.2,0h-.44a.13.13,0,0,1-.21,0H16.6a.14.14,0,0,1-.22,0h-.54a10.49,10.49,0,0,1-1.27.15A16.93,16.93,0,0,0,5.81,4.39,17.36,17.36,0,0,0,.23,14.61a4.35,4.35,0,0,1-.1.52A15.33,15.33,0,0,0,0,18a3.55,3.55,0,0,0,0,.65,23.86,23.86,0,0,0,1.18,4.78c.21.55.38,1.11.57,1.67.67,1.78,1.42,3.53,2.16,5.28.27.52.5,1.05.73,1.59.46.87.83,1.79,1.28,2.67A24.84,24.84,0,0,1,7.1,37a1.06,1.06,0,0,0,.12.2c.31.42.39,1,.82,1.34l2.65,5a2.63,2.63,0,0,0,.71,1.32c.92,1.61,1.83,3.23,2.74,4.84A3,3,0,0,0,15,51.05l2.61,4.29c.12-.19.21-.32.29-.46,2.56-4.26,5.05-8.56,7.39-13L27,38.81a26.88,26.88,0,0,0,2.15-4.12c0-.06,0-.15,0-.21l.18-.44c1.15-2.42,2.26-4.85,3.26-7.33.66-1.63,1.17-3.32,1.75-5a2.31,2.31,0,0,0,.34-.79A8.25,8.25,0,0,0,35,18.58C35,18.12,35,17.65,35,17.19Zm-4.29,3.2a13.28,13.28,0,0,1-8.86,9.83,12.19,12.19,0,0,1-5.9.59A6.93,6.93,0,0,1,14,30.4a11.7,11.7,0,0,1-4.1-1.89c-.31-.21-.59-.46-.88-.69a5.86,5.86,0,0,1-1.17-1.11A11.58,11.58,0,0,1,5,22.2a8,8,0,0,1-.61-2,13.3,13.3,0,0,1,.92-8.32,1.76,1.76,0,0,1,.14-.23,12.65,12.65,0,0,1,6.26-6.29,12.82,12.82,0,0,1,7.82-1.23c.31,0,.63.12.94.19a6.07,6.07,0,0,1,1.67.5,11.79,11.79,0,0,1,4.61,2.83,5.6,5.6,0,0,1,1.11,1.17,12.08,12.08,0,0,1,2.58,4.84,6.39,6.39,0,0,1,.41,1.89A11.64,11.64,0,0,1,30.71,20.39Z"/><path class="cls-2" d="M18.9,14.28l-1.09,1.6c-.15.21-.29.42-.59.4a18,18,0,0,1-2.84,0,.57.57,0,0,1-.51-.51c0-.31.17-.45.42-.56.8-.1,1.6,0,2.39-.05a.31.31,0,0,0,.12-.05l.1-.07a18.62,18.62,0,0,0,1.25-1.84,2.53,2.53,0,0,1,1.19-1.12c.13,0,.25-.13.38,0,.08-.06.15-.14.26-.11,1,0,2.07,0,3.1,0a1,1,0,0,1,.35,0,2.16,2.16,0,0,1,1.83,1.52c.12,1.55,0,3.1.06,4.65,0,.16-.06.3-.07.45a.51.51,0,0,1-.59.36.48.48,0,0,1-.48-.42c.1-.14.05-.3.05-.45v0c0,.15.05.31-.05.45-.11-.15-.06-.32-.06-.49,0-1.37,0-2.75,0-4.13a1.13,1.13,0,0,0-.75,0c0,.17,0,.33,0,.5,0,3.72,0,7.43,0,11.15,0,.64-.12.84-.64,1h-.05l-.37,0-.09,0a.76.76,0,0,1-.48-.43c0-1,0-2,0-3.05,0-1.19,0-2.38,0-3.56,0-.14,0-.28,0-.42-.1,0,0,.12,0,.17q0,3.15,0,6.28c0,.15.05.31-.05.44-.11-.15-.06-.32-.06-.49q0-3.09,0-6.2c0-.28,0-.43-.37-.41s-.44,0-.43.4c0,2,0,4.11,0,6.16a.86.86,0,0,1,0,.45.2.2,0,0,1-.05-.15v-.24a.86.86,0,0,0,0,.45c-.05.3-.3.42-.51.58a1.24,1.24,0,0,1-.76-.07c-.23-.1-.3-.33-.4-.52a.77.77,0,0,1,0-.45V14.77C19,14.6,19.11,14.4,18.9,14.28Z"/><path class="cls-2" d="M16.64,19l-1,5.22-.3,1.6c0,.14,0,.31-.16.4a.62.62,0,0,1-.47.12H11.33a.6.6,0,0,1-.47-.12c-.21-1.1-.43-2.21-.64-3.31-.24-1.33-.47-2.66-.71-4a2.41,2.41,0,0,1,1,0l1.19,6.36c0,.07.11.05.17.06.77,0,1.54,0,2.31,0l.13,0,.06,0a19,19,0,0,0,.5-2.38c.27-1.29.52-2.59.77-3.89a1.84,1.84,0,0,1,.87-.07Z"/><path class="cls-2" d="M22.86,10a1.5,1.5,0,0,1-1.2,1.15,1.37,1.37,0,0,0-.57,0,1.47,1.47,0,0,1-1.26-1.47,1.39,1.39,0,0,1,1.26-1.37,1.83,1.83,0,0,1,.66,0,1.4,1.4,0,0,1,1.1,1.08.13.13,0,0,1,0,.1,3.1,3.1,0,0,0,0,.43Z"/><path class="cls-2" d="M12.16,17.55c-.13-.29-.26-.59-.4-.88-.06-.12-.06-.2.09-.24l.15-.07c.72-.34.7-.33,1.06.36.14.29.11.41-.19.51A5.69,5.69,0,0,0,12.16,17.55Z"/><path class="cls-2" d="M13.77,20.58l-.47.85c0,.07-.1,0-.14,0l-.3-.16c-.6-.31-.58-.3-.27-.92.16-.34.36-.36.65-.19A1.22,1.22,0,0,1,13.77,20.58Z"/><path class="cls-2" d="M14.63,18.7c0,.15-.52.59-.75.62s-.77-.7-.69-.78A5.15,5.15,0,0,1,14,17.9C14.09,17.84,14.62,18.53,14.63,18.7Z"/></g></g></svg>