<svg xmlns="http://www.w3.org/2000/svg" viewBox="0 0 35 55.34"><defs><style>.cls-1{fill:#fff;}.cls-2{fill:#f77219;}</style></defs><title>circle-office</title><g id="Layer_2" data-name="Layer 2"><g id="Layer_1-2" data-name="Layer 1"><circle class="cls-1" cx="17.58" cy="17.64" r="13.89"/><path class="cls-2" d="M35,17.19a19.7,19.7,0,0,0-.78-5.07c0-.56-.33-1-.44-1.52A19.37,19.37,0,0,0,30.86,6c-.34-.41-.74-.75-1.1-1.14l-.16-.16a17.74,17.74,0,0,0-4.35-3c-.51-.24-1-.45-1.56-.67s-1.33-.42-2-.61A23.12,23.12,0,0,0,19.2,0h-.44a.13.13,0,0,1-.21,0H16.6a.14.14,0,0,1-.22,0h-.54a10.49,10.49,0,0,1-1.27.15A16.93,16.93,0,0,0,5.81,4.39,17.36,17.36,0,0,0,.23,14.61a4.35,4.35,0,0,1-.1.52A15.33,15.33,0,0,0,0,18a3.55,3.55,0,0,0,0,.65,23.86,23.86,0,0,0,1.18,4.78c.21.55.38,1.11.57,1.67.67,1.78,1.42,3.53,2.16,5.28.27.52.5,1.05.73,1.59.46.87.83,1.79,1.28,2.67A24.84,24.84,0,0,1,7.1,37a1.06,1.06,0,0,0,.12.2c.31.42.39,1,.82,1.34l2.65,5a2.63,2.63,0,0,0,.71,1.32c.92,1.61,1.83,3.23,2.74,4.84A3,3,0,0,0,15,51.05l2.61,4.29c.12-.19.21-.32.29-.46,2.56-4.26,5.05-8.56,7.39-13L27,38.81a26.88,26.88,0,0,0,2.15-4.12c0-.06,0-.15,0-.21l.18-.44c1.15-2.42,2.26-4.85,3.26-7.33.66-1.63,1.17-3.32,1.75-5a2.31,2.31,0,0,0,.34-.79A8.25,8.25,0,0,0,35,18.58C35,18.12,35,17.65,35,17.19Zm-4.29,3.2a13.28,13.28,0,0,1-8.86,9.83,12.19,12.19,0,0,1-5.9.59A6.93,6.93,0,0,1,14,30.4a11.7,11.7,0,0,1-4.1-1.89c-.31-.21-.59-.46-.88-.69a5.86,5.86,0,0,1-1.17-1.11A11.58,11.58,0,0,1,5,22.2a8,8,0,0,1-.61-2,13.3,13.3,0,0,1,.92-8.32,1.76,1.76,0,0,1,.14-.23,12.65,12.65,0,0,1,6.26-6.29,12.82,12.82,0,0,1,7.82-1.23c.31,0,.63.12.94.19a6.07,6.07,0,0,1,1.67.5,11.79,11.79,0,0,1,4.61,2.83,5.6,5.6,0,0,1,1.11,1.17,12.08,12.08,0,0,1,2.58,4.84,6.39,6.39,0,0,1,.41,1.89A11.64,11.64,0,0,1,30.71,20.39Z"/><path class="cls-2" d="M26.37,14.88a1.28,1.28,0,0,0-1.29-1.31h-3.8a1.23,1.23,0,0,0-.63.16A1.26,1.26,0,0,0,20,14.85v4.84c0,.22,0,.22-.22.22s-.68,0-1,0a.85.85,0,0,0-.83.58,1.36,1.36,0,0,0,0,.72.56.56,0,0,0,.59.44c.82,0,1.65,0,2.48,0,.11,0,.13,0,.13.13a4.17,4.17,0,0,0,0,.5c0,.08,0,.11-.11.11a2.79,2.79,0,0,0-.5,0,.94.94,0,0,0-.86.91c0,.5,0,1,0,1.49a.59.59,0,0,0,0,.14.56.56,0,0,0,.6.41.58.58,0,0,0,.5-.57c0-.4,0-.8,0-1.2,0-.08,0-.1.1-.1h1.72c.08,0,.11,0,.1.1v1.18a.61.61,0,0,0,.6.59.6.6,0,0,0,.6-.6V23.4a.93.93,0,0,0-.85-1,3.32,3.32,0,0,0-.63,0c-.07,0-.09,0-.09-.09a4.69,4.69,0,0,0,0-.53c0-.1,0-.12.12-.12h2.79a1.11,1.11,0,0,0,1.14-1.15V14.88Zm-10.57.74a.83.83,0,0,0,0,1.65h2.5c.08,0,.1,0,.1.1,0,.61,0,1.22,0,1.83,0,.07,0,.1.1.09h.88c.1,0,.13,0,.13-.12,0-1.45,0-2.89,0-4.34a2.32,2.32,0,0,1,.24-1.06,1.47,1.47,0,0,1,1.45-.91c1,0,2,0,3,0h.15l-.06,0-.06,0a1.78,1.78,0,0,0-1-.27H20.17a1.64,1.64,0,0,0-.76.18,1.87,1.87,0,0,0-1,1.48,6.71,6.71,0,0,1-.31,1.19.35.35,0,0,1-.41.27Zm5.88-3.48A2.15,2.15,0,1,0,19.54,10,2.16,2.16,0,0,0,21.68,12.14ZM18,22.38c0-.08,0-.11-.09-.13a.92.92,0,0,1-.64-.74,5.45,5.45,0,0,1,0-.7,1.4,1.4,0,0,1,.48-1,.21.21,0,0,0,.08-.16c0-.53,0-1.06,0-1.6,0-.1,0-.11-.13-.11H15.91a1.54,1.54,0,0,1-.43-.05,1.33,1.33,0,0,1-1-1.34,5.84,5.84,0,0,0,0-.73c0-.07,0-.09.09-.09a.16.16,0,0,0,.18,0,1.29,1.29,0,0,1,1.06-.5h1.68a.17.17,0,0,0,.19-.13.36.36,0,0,0,0-.14v-4.8a.65.65,0,0,0,0-.2.81.81,0,0,0-.8-.62H10.84a.68.68,0,0,0-.48.18.81.81,0,0,0-.26.64v4.81a1.06,1.06,0,0,0,0,.25.71.71,0,0,0,.75.55h2.35c.07,0,.1,0,.1.1a3.38,3.38,0,0,0,0,.45c0,.08,0,.1-.1.1h-.75a.64.64,0,0,0-.64.52c0,.07,0,.17-.05.2a.58.58,0,0,1-.23,0H9c-.25,0-.34.1-.34.35v.69c0,.23.11.34.35.34h.8c.11,0,.14,0,.14.13,0,2.23,0,4.47,0,6.71,0,.14,0,.14.14.14H17.9c.08,0,.11,0,.11-.11Zm-4.13-7.8H12a.9.9,0,0,1-.6-.19.65.65,0,0,1-.25-.51v-2.8a.76.76,0,0,1,.79-.73h3.93a.74.74,0,0,1,.8.8V13.8a.72.72,0,0,1-.77.78Z"/><path class="cls-2" d="M18,22.38c0-.08,0-.11-.09-.13a.92.92,0,0,1-.64-.74,5.45,5.45,0,0,1,0-.7,1.4,1.4,0,0,1,.48-1,.21.21,0,0,0,.08-.16c0-.53,0-1.06,0-1.6,0-.1,0-.11-.13-.11H15.91a1.54,1.54,0,0,1-.43-.05,1.33,1.33,0,0,1-1-1.34,5.84,5.84,0,0,0,0-.73c0-.07,0-.09.09-.09a.16.16,0,0,0,.18,0,1.29,1.29,0,0,1,1.06-.5h1.68a.17.17,0,0,0,.19-.13.36.36,0,0,0,0-.14v-4.8a.65.65,0,0,0,0-.2.81.81,0,0,0-.8-.62H10.84a.68.68,0,0,0-.48.18.81.81,0,0,0-.26.64v4.81a1.06,1.06,0,0,0,0,.25.71.71,0,0,0,.75.55h2.35c.07,0,.1,0,.1.1a3.38,3.38,0,0,0,0,.45c0,.08,0,.1-.1.1h-.75a.64.64,0,0,0-.64.52c0,.07,0,.17-.05.2a.58.58,0,0,1-.23,0H9c-.25,0-.34.1-.34.35v.69c0,.23.11.34.35.34h.8c.11,0,.14,0,.14.13,0,2.23,0,4.47,0,6.71,0,.14,0,.14.14.14H17.9c.08,0,.11,0,.11-.11Zm-4.13-7.8H12a.9.9,0,0,1-.6-.19.65.65,0,0,1-.25-.51v-2.8a.76.76,0,0,1,.79-.73h3.93a.74.74,0,0,1,.8.8V13.8a.72.72,0,0,1-.77.78Z"/><path class="cls-2" d="M26.37,17.69V20.5a1.11,1.11,0,0,1-1.14,1.15H22.44c-.09,0-.13,0-.12.12a4.69,4.69,0,0,1,0,.53c0,.07,0,.09.09.09a3.32,3.32,0,0,1,.63,0,.93.93,0,0,1,.85,1v1.36a.6.6,0,0,1-.6.6.61.61,0,0,1-.6-.59V23.59c0-.08,0-.1-.1-.1H20.87c-.08,0-.1,0-.1.1,0,.4,0,.8,0,1.2a.58.58,0,0,1-.5.57.56.56,0,0,1-.6-.41.59.59,0,0,1,0-.14c0-.49,0-1,0-1.49a.94.94,0,0,1,.86-.91,2.79,2.79,0,0,1,.5,0c.09,0,.11,0,.11-.11a4.17,4.17,0,0,1,0-.5c0-.1,0-.13-.13-.13-.83,0-1.66,0-2.48,0a.56.56,0,0,1-.59-.44,1.36,1.36,0,0,1,0-.72.85.85,0,0,1,.83-.58c.34,0,.68,0,1,0s.22,0,.22-.22V14.85a1.26,1.26,0,0,1,.62-1.12,1.23,1.23,0,0,1,.63-.16h3.8a1.28,1.28,0,0,1,1.29,1.31Z"/><path class="cls-2" d="M23.83,10a2.15,2.15,0,1,1-2.14-2.16A2.16,2.16,0,0,1,23.83,10Z"/><path class="cls-2" d="M24.35,12.86H24.2c-1,0-2,0-3,0a1.47,1.47,0,0,0-1.45.91,2.32,2.32,0,0,0-.24,1.06c0,1.45,0,2.89,0,4.34,0,.1,0,.13-.13.12h-.88c-.08,0-.1,0-.1-.09,0-.61,0-1.22,0-1.83,0-.09,0-.1-.1-.1h-2.5a.83.83,0,0,1,0-1.65h1.91a.35.35,0,0,0,.41-.27,6.71,6.71,0,0,0,.31-1.19,1.87,1.87,0,0,1,1-1.48,1.64,1.64,0,0,1,.76-.18h3.09a1.78,1.78,0,0,1,1,.27l.06,0Z"/></g></g></svg>