<svg id="Layer_2" data-name="Layer 2" xmlns="http://www.w3.org/2000/svg" width="24.524" height="24.544" viewBox="0 0 24.524 24.544">
  <g id="Layer_1" data-name="Layer 1" transform="translate(0 0)">
    <path id="Path_2" data-name="Path 2" d="M3.925,13.519a2.466,2.466,0,0,0-.01,4.93,2.521,2.521,0,0,0,2.456-2.467A2.48,2.48,0,0,0,3.925,13.519ZM3.9,17.4a1.371,1.371,0,0,1-1.393-1.371,1.426,1.426,0,0,1,1.4-1.407,1.4,1.4,0,0,1,1.409,1.364A1.414,1.414,0,0,1,3.9,17.4Zm.021-3.884a2.466,2.466,0,0,0-.01,4.93,2.521,2.521,0,0,0,2.456-2.467A2.48,2.48,0,0,0,3.925,13.519ZM3.9,17.4a1.371,1.371,0,0,1-1.393-1.371,1.426,1.426,0,0,1,1.4-1.407,1.4,1.4,0,0,1,1.409,1.364A1.414,1.414,0,0,1,3.9,17.4Zm.021-3.884a2.466,2.466,0,0,0-.01,4.93,2.521,2.521,0,0,0,2.456-2.467A2.48,2.48,0,0,0,3.925,13.519ZM3.9,17.4a1.371,1.371,0,0,1-1.393-1.371,1.426,1.426,0,0,1,1.4-1.407,1.4,1.4,0,0,1,1.409,1.364A1.414,1.414,0,0,1,3.9,17.4Zm.021-3.884a2.466,2.466,0,0,0-.01,4.93,2.521,2.521,0,0,0,2.456-2.467A2.48,2.48,0,0,0,3.925,13.519ZM3.9,17.4a1.371,1.371,0,0,1-1.393-1.371,1.426,1.426,0,0,1,1.4-1.407,1.4,1.4,0,0,1,1.409,1.364A1.414,1.414,0,0,1,3.9,17.4ZM7.576,14.42a3.951,3.951,0,0,0-3.667-2.526A3.962,3.962,0,0,0,.26,14.42a4.116,4.116,0,0,0,.146,3.087A32.181,32.181,0,0,0,2.76,22.063c.366.613.754,1.215,1.131,1.822a.422.422,0,0,0,.158-.195c.344-.545.7-1.087,1.025-1.642a31.9,31.9,0,0,0,2.361-4.58A4.056,4.056,0,0,0,7.576,14.42ZM6.449,17.148a34.462,34.462,0,0,1-2.5,4.754c0,.013-.025.019-.051.04a35.879,35.879,0,0,1-2.494-4.716,3.184,3.184,0,0,1-.173-2.436,2.9,2.9,0,0,1,3-1.833,2.886,2.886,0,0,1,2.535,2.591,3.3,3.3,0,0,1-.32,1.6ZM3.925,13.519a2.466,2.466,0,0,0-.01,4.93,2.521,2.521,0,0,0,2.456-2.467A2.48,2.48,0,0,0,3.925,13.519ZM3.9,17.4a1.371,1.371,0,0,1-1.393-1.371,1.426,1.426,0,0,1,1.4-1.407,1.4,1.4,0,0,1,1.409,1.364A1.414,1.414,0,0,1,3.9,17.4Zm.021-3.884a2.466,2.466,0,0,0-.01,4.93,2.521,2.521,0,0,0,2.456-2.467A2.48,2.48,0,0,0,3.925,13.519ZM3.9,17.4a1.371,1.371,0,0,1-1.393-1.371,1.426,1.426,0,0,1,1.4-1.407,1.4,1.4,0,0,1,1.409,1.364A1.414,1.414,0,0,1,3.9,17.4Zm.021-3.884a2.466,2.466,0,0,0-.01,4.93,2.521,2.521,0,0,0,2.456-2.467A2.48,2.48,0,0,0,3.925,13.519ZM3.9,17.4a1.371,1.371,0,0,1-1.393-1.371,1.426,1.426,0,0,1,1.4-1.407,1.4,1.4,0,0,1,1.409,1.364A1.414,1.414,0,0,1,3.9,17.4Zm18.338.588-7.961-2.076c-.4-.1-.792-.209-1.185-.317.9-.23,1.792-.412,2.694-.6,1.781-.364,3.561-.734,5.343-1.092.138-.029.17-.073.143-.2-.055-.25-.1-.5-.146-.753-.022-.144-.078-.168-.22-.138q-1.685.359-3.372.7l-6.9,1.437a.556.556,0,0,0-.494.422c-.078.342.127.615.547.726l8.188,2.171.01.043-1.6.106-6.12.418c-.589.041-1.181.068-1.767.135a.551.551,0,0,0-.358.922,1.877,1.877,0,0,0,.184.189q1.393,1.317,2.789,2.631c.055.052.12.1.192.158a.675.675,0,0,1-.082.043q-3.285.265-6.568.523c-.143.011-.2.04-.181.193a4.61,4.61,0,0,1,.035.692c-.011.206.07.227.247.211,1.1-.1,2.2-.185,3.293-.277,1.49-.124,2.978-.244,4.466-.374a.539.539,0,0,0,.391-.875,1.5,1.5,0,0,0-.208-.23c-.921-.887-1.845-1.77-2.764-2.657-.052-.051-.138-.081-.136-.184l3.011-.208,5.229-.369,3.345-.238a.475.475,0,0,0,.486-.41C22.865,18.363,22.679,18.1,22.242,17.991ZM24.513,4.2H24.5a.06.06,0,0,0-.021.014,12.4,12.4,0,0,1-1.1,2.951,51.016,51.016,0,0,1-2.626,4.537c-.1.158-.158.128-.252,0-.391-.6-.769-1.214-1.138-1.83-.442-.74-.853-1.5-1.258-2.258a15.547,15.547,0,0,1-1.138-2.634,3.6,3.6,0,0,1,.46-3.2A3.779,3.779,0,0,1,19.96.12c.082-.016.2.017.223-.12-.032.07-.1.041-.146.048a3.91,3.91,0,0,0-3.31,4.031,6.442,6.442,0,0,0,.65,2.161A42.123,42.123,0,0,0,20.556,11.9c.021.032.049.059.082.1A42.445,42.445,0,0,0,23.93,6.117a6.251,6.251,0,0,0,.577-1.887h.021l.019-.013a.048.048,0,0,0-.033-.01ZM3.925,13.519a2.466,2.466,0,0,0-.01,4.93,2.521,2.521,0,0,0,2.456-2.467A2.48,2.48,0,0,0,3.925,13.519ZM3.9,17.4a1.371,1.371,0,0,1-1.393-1.371,1.426,1.426,0,0,1,1.4-1.407,1.4,1.4,0,0,1,1.409,1.364A1.414,1.414,0,0,1,3.9,17.4Zm.021-3.884a2.466,2.466,0,0,0-.01,4.93,2.521,2.521,0,0,0,2.456-2.467A2.48,2.48,0,0,0,3.925,13.519ZM3.9,17.4a1.371,1.371,0,0,1-1.393-1.371,1.426,1.426,0,0,1,1.4-1.407,1.4,1.4,0,0,1,1.409,1.364A1.414,1.414,0,0,1,3.9,17.4Z" transform="translate(-0.022 0)" fill="#fefefe"/>
    <path id="Path_3" data-name="Path 3" d="M117.011,10.307a2.465,2.465,0,1,0-.109,4.928,2.505,2.505,0,0,0,2.5-2.442,2.467,2.467,0,0,0-2.391-2.486Zm-.062,3.876a1.369,1.369,0,0,1-1.4-1.364,1.406,1.406,0,0,1,2.81-.059A1.426,1.426,0,0,1,116.949,14.183Z" transform="translate(-96.352 -8.673)"/>
    <path id="Path_4" data-name="Path 4" d="M113.2,3.5a6.682,6.682,0,0,0-.113-.75,4.027,4.027,0,0,0-1.412-2A3.474,3.474,0,0,0,109.7,0h-.864c-.032.07-.1.041-.146.048a3.91,3.91,0,0,0-3.31,4.031,6.443,6.443,0,0,0,.65,2.161,42.122,42.122,0,0,0,3.179,5.662c.021.032.049.059.082.1a42.444,42.444,0,0,0,3.291-5.885,6.25,6.25,0,0,0,.577-1.887l.01-.022c.024-.073-.022-.158.03-.228v-.1a.364.364,0,0,1,0-.288Zm-3.7-2.44a2.882,2.882,0,0,1,2.608,2.406,3.427,3.427,0,0,1-.317,1.857,32.068,32.068,0,0,1-2.3,4.4l-.22.35c-.274-.475-.545-.916-.807-1.371a27.256,27.256,0,0,1-1.716-3.412,3.225,3.225,0,0,1-.239-2.141A2.879,2.879,0,0,1,109.5,1.06Z" transform="translate(-88.676 0)" fill="#0ba118"/>
    <path id="Path_5" data-name="Path 5" d="M154.46,22.978a.212.212,0,0,1,0-.288Z" transform="translate(-129.94 -19.094)" fill="#3c3c3c"/>
    <path id="Path_6" data-name="Path 6" d="M154.466,25.11v.239l-.019.013h-.021v-.019A.23.23,0,0,1,154.466,25.11Z" transform="translate(-129.946 -21.131)" fill="#454545"/>
    <path id="Path_7" data-name="Path 7" d="M51.17,86.792a.475.475,0,0,1-.486.41q-1.67.122-3.345.238l-5.229.369-3.011.208c0,.1.084.133.136.184.919.887,1.843,1.77,2.764,2.657a1.5,1.5,0,0,1,.193.23.539.539,0,0,1-.395.868c-1.488.13-2.976.25-4.466.374-1.1.092-2.2.179-3.293.277-.177.016-.258,0-.247-.211a4.61,4.61,0,0,0-.035-.693c-.016-.158.038-.182.181-.193q3.285-.254,6.568-.523a.676.676,0,0,0,.082-.043,1.822,1.822,0,0,1-.192-.158q-1.4-1.315-2.789-2.631a1.875,1.875,0,0,1-.184-.189.551.551,0,0,1,.358-.922c.586-.067,1.177-.093,1.767-.135l6.129-.412,1.6-.106-.01-.043-8.2-2.171c-.42-.111-.624-.383-.547-.726a.556.556,0,0,1,.5-.422l6.908-1.426c1.124-.235,2.249-.463,3.372-.7.143-.03.2,0,.22.138.041.252.09.5.146.753.027.128,0,.173-.143.2-1.783.358-3.562.727-5.343,1.092-.894.184-1.787.366-2.694.6.395.1.792.211,1.185.317l7.955,2.076C51.065,86.179,51.25,86.437,51.17,86.792Z" transform="translate(-28.408 -68.074)" fill="#0ba118"/>
    <path id="Path_8" data-name="Path 8" d="M3.925,76.684a2.466,2.466,0,0,0-.01,4.93,2.521,2.521,0,0,0,2.456-2.467A2.48,2.48,0,0,0,3.925,76.684ZM3.9,80.568A1.371,1.371,0,0,1,2.511,79.2a1.426,1.426,0,0,1,1.4-1.407,1.4,1.4,0,0,1,1.409,1.364A1.414,1.414,0,0,1,3.9,80.568Zm.021-3.884a2.466,2.466,0,0,0-.01,4.93,2.521,2.521,0,0,0,2.456-2.467A2.48,2.48,0,0,0,3.925,76.684ZM3.9,80.568A1.371,1.371,0,0,1,2.511,79.2a1.426,1.426,0,0,1,1.4-1.407,1.4,1.4,0,0,1,1.409,1.364A1.414,1.414,0,0,1,3.9,80.568Zm.021-3.884a2.466,2.466,0,0,0-.01,4.93,2.521,2.521,0,0,0,2.456-2.467A2.48,2.48,0,0,0,3.925,76.684ZM3.9,80.568A1.371,1.371,0,0,1,2.511,79.2a1.426,1.426,0,0,1,1.4-1.407,1.4,1.4,0,0,1,1.409,1.364A1.414,1.414,0,0,1,3.9,80.568Zm.021-3.884a2.466,2.466,0,0,0-.01,4.93,2.521,2.521,0,0,0,2.456-2.467A2.48,2.48,0,0,0,3.925,76.684ZM3.9,80.568A1.371,1.371,0,0,1,2.511,79.2a1.426,1.426,0,0,1,1.4-1.407,1.4,1.4,0,0,1,1.409,1.364A1.414,1.414,0,0,1,3.9,80.568Zm3.672-2.982A3.951,3.951,0,0,0,3.909,75.06,3.962,3.962,0,0,0,.26,77.586a4.116,4.116,0,0,0,.146,3.087A32.181,32.181,0,0,0,2.76,85.229c.366.613.754,1.215,1.131,1.822a.422.422,0,0,0,.158-.195c.344-.545.7-1.087,1.025-1.642a31.9,31.9,0,0,0,2.361-4.58A4.056,4.056,0,0,0,7.576,77.586ZM6.449,80.313a34.462,34.462,0,0,1-2.5,4.754c0,.013-.025.019-.051.04a35.878,35.878,0,0,1-2.494-4.716,3.184,3.184,0,0,1-.173-2.436,2.9,2.9,0,0,1,3-1.833,2.886,2.886,0,0,1,2.535,2.591,3.3,3.3,0,0,1-.32,1.6ZM3.925,76.684a2.466,2.466,0,0,0-.01,4.93,2.521,2.521,0,0,0,2.456-2.467A2.48,2.48,0,0,0,3.925,76.684ZM3.9,80.568A1.371,1.371,0,0,1,2.511,79.2a1.426,1.426,0,0,1,1.4-1.407,1.4,1.4,0,0,1,1.409,1.364A1.414,1.414,0,0,1,3.9,80.568Zm.021-3.884a2.466,2.466,0,0,0-.01,4.93,2.521,2.521,0,0,0,2.456-2.467A2.48,2.48,0,0,0,3.925,76.684ZM3.9,80.568A1.371,1.371,0,0,1,2.511,79.2a1.426,1.426,0,0,1,1.4-1.407,1.4,1.4,0,0,1,1.409,1.364A1.414,1.414,0,0,1,3.9,80.568Zm.021-3.884a2.466,2.466,0,0,0-.01,4.93,2.521,2.521,0,0,0,2.456-2.467A2.48,2.48,0,0,0,3.925,76.684ZM3.9,80.568A1.371,1.371,0,0,1,2.511,79.2a1.426,1.426,0,0,1,1.4-1.407,1.4,1.4,0,0,1,1.409,1.364A1.414,1.414,0,0,1,3.9,80.568Zm.021-3.884a2.466,2.466,0,0,0-.01,4.93,2.521,2.521,0,0,0,2.456-2.467A2.48,2.48,0,0,0,3.925,76.684ZM3.9,80.568A1.371,1.371,0,0,1,2.511,79.2a1.426,1.426,0,0,1,1.4-1.407,1.4,1.4,0,0,1,1.409,1.364A1.414,1.414,0,0,1,3.9,80.568Zm.021-3.884a2.466,2.466,0,0,0-.01,4.93,2.521,2.521,0,0,0,2.456-2.467A2.48,2.48,0,0,0,3.925,76.684ZM3.9,80.568A1.371,1.371,0,0,1,2.511,79.2a1.426,1.426,0,0,1,1.4-1.407,1.4,1.4,0,0,1,1.409,1.364A1.414,1.414,0,0,1,3.9,80.568Z" transform="translate(-0.022 -63.166)" fill="#0ba118"/>
    <path id="Path_9" data-name="Path 9" d="M117.011,10.307a2.465,2.465,0,1,0-.109,4.928,2.505,2.505,0,0,0,2.5-2.442,2.467,2.467,0,0,0-2.391-2.486Zm-.062,3.876a1.369,1.369,0,0,1-1.4-1.364,1.406,1.406,0,0,1,2.81-.059A1.426,1.426,0,0,1,116.949,14.183Z" transform="translate(-96.352 -8.673)" fill="#fefefe"/>
    <path id="Path_10" data-name="Path 10" d="M11.861,85.31a2.466,2.466,0,0,0-.01,4.93,2.521,2.521,0,0,0,2.456-2.467A2.48,2.48,0,0,0,11.861,85.31Zm-.021,3.884a1.371,1.371,0,0,1-1.393-1.371,1.426,1.426,0,0,1,1.4-1.407,1.4,1.4,0,0,1,1.409,1.364,1.413,1.413,0,0,1-1.417,1.414Z" transform="translate(-7.959 -71.791)" fill="#fefefe"/>
    <path id="Path_11" data-name="Path 11" d="M117.011,10.307a2.465,2.465,0,1,0-.109,4.928,2.505,2.505,0,0,0,2.5-2.442,2.467,2.467,0,0,0-2.391-2.486Zm-.062,3.876a1.369,1.369,0,0,1-1.4-1.364,1.406,1.406,0,0,1,2.81-.059A1.426,1.426,0,0,1,116.949,14.183Z" transform="translate(-96.352 -8.673)" fill="#0ba118"/>
    <path id="Path_12" data-name="Path 12" d="M11.861,85.31a2.466,2.466,0,0,0-.01,4.93,2.521,2.521,0,0,0,2.456-2.467A2.48,2.48,0,0,0,11.861,85.31Zm-.021,3.884a1.371,1.371,0,0,1-1.393-1.371,1.426,1.426,0,0,1,1.4-1.407,1.4,1.4,0,0,1,1.409,1.364,1.413,1.413,0,0,1-1.417,1.414Z" transform="translate(-7.959 -71.791)" fill="#0ba118"/>
  </g>
</svg>
