<svg xmlns="http://www.w3.org/2000/svg" xmlns:xlink="http://www.w3.org/1999/xlink" viewBox="0 0 44.48 50"><defs><style>.cls-1{fill:url(#linear-gradient);}.cls-2{fill:url(#linear-gradient-2);}.cls-3{fill:url(#linear-gradient-3);}</style><linearGradient id="linear-gradient" x1="3.18" y1="29.55" x2="41.33" y2="29.55" gradientUnits="userSpaceOnUse"><stop offset="0" stop-color="#3c91e4"/><stop offset="0.51" stop-color="#9c6ed7"/><stop offset="1" stop-color="#c78edf"/></linearGradient><linearGradient id="linear-gradient-2" x1="0" y1="6.12" x2="44.48" y2="6.12" xlink:href="#linear-gradient"/><linearGradient id="linear-gradient-3" x1="13.14" y1="1.55" x2="31.26" y2="1.55" xlink:href="#linear-gradient"/></defs><title>dust</title><g id="Layer_2" data-name="Layer 2"><g id="Layer_1-2" data-name="Layer 1"><path class="cls-1" d="M41.31,10.57c0-1.17-.34-1.47-1.48-1.46-5.84.05-11.67,0-17.51,0H5c-1.91,0-1.81-.24-1.81,1.87,0,10.16.1,20.32,0,30.47a8,8,0,0,0,8.1,8.42q11,.18,21.95,0a8.06,8.06,0,0,0,8.1-8.41C41.16,31.19,41.27,20.88,41.31,10.57ZM12.72,41.45c-1.63,0-1.68,0-1.79-1.62-.3-4.27-.56-8.54-.82-12.81-.18-2.91-.3-5.82-.51-8.73-.08-1.07.29-1.38,1.33-1.35,3.26.11,2.67-.45,2.89,2.55C14.3,26,14.63,32.57,15,39.24,15.12,41.73,15.4,41.44,12.72,41.45ZM24.35,40c0,1.46,0,1.47-1.46,1.46-3.13,0-2.74.4-2.75-2.68s0-6.37,0-9.55c0-3.64,0-7.28,0-10.91,0-1.06.33-1.39,1.37-1.36,3.34.09,2.84-.43,2.85,2.8C24.36,26.5,24.35,33.24,24.35,40ZM34.83,19.4c-.4,6.93-.79,13.66-1.2,20.39-.1,1.66-.13,1.67-1.82,1.66-2.65,0-2.49.39-2.33-2.44.4-7,.89-14,1.3-21,0-.86.39-1.16,1.19-1.07a1.77,1.77,0,0,0,.23,0C34.92,16.94,34.92,16.94,34.83,19.4Z"/><path class="cls-2" d="M22.11,8.11c-6.9,0-13.8,0-20.7,0C.31,8.14,0,7.83,0,6.73.06,4.1,0,4.1,2.66,4.1H42.94c1.54,0,1.54,0,1.54,1.56,0,2.48,0,2.48-2.45,2.48q-10,0-19.92,0Z"/><path class="cls-3" d="M22.29,0c2.58,0,5.16,0,7.74,0,1,0,1.31.32,1.21,1.25a2.58,2.58,0,0,0,0,.68c.1.89-.29,1.18-1.18,1.17-4.66,0-9.32,0-14,0h-.91c-1.88,0-2.3-.58-1.88-2.48.15-.67.61-.57,1-.57h8Z"/></g></g></svg>