<svg xmlns="http://www.w3.org/2000/svg" viewBox="0 0 31.22 40"><defs><style>.cls-1{fill:#5f5733;}.cls-2{fill:#fd0000;}.cls-3{fill:#8c3838;}.cls-4{fill:none;stroke:#fff;stroke-miterlimit:10;stroke-width:0.49px;}.cls-5{fill:#fff;stroke:#000;stroke-width:0.33px;}</style></defs><title>2_1</title><g id="Layer_2" data-name="Layer 2"><g id="Layer_1-2" data-name="Layer 1"><rect class="cls-1" x="8.78" width="7.8" height="40"/><path class="cls-2" d="M2,2s18.54-1,25.37,2l3.9,6.83-5.85,5.86s-21.47-2-23.42-1Z"/><rect class="cls-3" y="1.95" width="1.95" height="13.66"/><line class="cls-4" x1="10.73" y1="15.61" x2="10.73" y2="40"/><line class="cls-4" x1="13.17" y1="19.02" x2="13.17" y2="30.73"/><line class="cls-4" x1="15.12" y1="27.8" x2="15.12" y2="37.07"/><path class="cls-5" d="M23.5,15.11a29.87,29.87,0,0,0-5.4-1.75c-.92-.2-1.86-.37-2.79-.48s-1.88-.19-2.82-.22A29.81,29.81,0,0,0,6.82,13l-1.22.19-1.82-8L5.17,5a39.48,39.48,0,0,1,7.44-.47c1.23,0,2.48.13,3.71.29s2.46.37,3.66.63a40,40,0,0,1,7.1,2.3l1.29.56L24.63,15.6Z"/><path d="M9.7,9.14c-.82,0-1.24.08-2.06.17.07.39.1.59.17,1,.89-.1,1.33-.14,2.22-.18l.1,1.18a28.12,28.12,0,0,0-3.54.36c-.48-2.11-.72-3.17-1.21-5.29a32.41,32.41,0,0,1,4.16-.43c0,.47.06.71.11,1.18-.94,0-1.41.08-2.35.19.06.34.08.51.14.85C8.3,8.06,8.73,8,9.59,8,9.63,8.44,9.66,8.67,9.7,9.14Z"/><path d="M12.49,11.28c0-2.15,0-3.23,0-5.38.81,0,1.21,0,2,.11.36.7.53,1,.84,1.74a11,11,0,0,1,.68,2h0a18.29,18.29,0,0,1,.19-2.25l.17-1.26c.62.08.93.13,1.54.24-.39,2.11-.59,3.17-1,5.28-.58-.11-.88-.15-1.47-.23-.26-.75-.41-1.12-.73-1.87s-.58-1.35-.83-2h0c0,.73,0,1.53-.07,2.41,0,.52,0,.79-.08,1.31C13.26,11.31,13,11.29,12.49,11.28Z"/><path d="M21,7.19a11.15,11.15,0,0,1,2,.45A4.27,4.27,0,0,1,25.25,9a2.06,2.06,0,0,1,.11,2.3,3,3,0,0,1-1.91,1.62,4.82,4.82,0,0,1-2.63-.22c-.65-.2-1.08-.36-1.32-.46C20.09,10.23,20.39,9.22,21,7.19Zm.22,4.46a1.6,1.6,0,0,0,.29.11,1.7,1.7,0,0,0,2.28-1,1.37,1.37,0,0,0-1-2,2.11,2.11,0,0,0-.49-.12C21.85,9.83,21.64,10.44,21.21,11.65Z"/></g></g></svg>