<svg xmlns="http://www.w3.org/2000/svg" viewBox="0 0 214.11 122.54"><defs><style>.cls-1{fill:none;stroke:#0ba118;stroke-linecap:round;stroke-miterlimit:10;stroke-width:1.23px;stroke-dasharray:4.78;}.cls-2{fill:#0ba118;}</style></defs><title>h1_1</title><g id="Layer_2" data-name="Layer 2"><g id="Layer_1-2" data-name="Layer 1"><polyline class="cls-1" points="213.5 121.92 213.54 121.94 64.5 31.92"/><circle class="cls-2" cx="64" cy="32.42" r="7"/><path class="cls-2" d="M24,0A24,24,0,1,1,0,24,24,24,0,0,1,24,0Zm0,4.8A19.2,19.2,0,1,0,43.2,24,19.2,19.2,0,0,0,24,4.8Zm0,2.4a16.74,16.74,0,0,1,6.86,1.46l-3.75,3.75A11.79,11.79,0,0,0,24,12a12,12,0,0,0-8.49,20.49l-3.39,3.39-.37-.39A16.8,16.8,0,0,1,24,7.2Zm15.34,9.94a16.82,16.82,0,0,1-3.46,18.74l-3.39-3.39A12,12,0,0,0,36,24a11.79,11.79,0,0,0-.41-3.11Zm-5.16-6.72,3.4,3.4-8.94,8.94A5.08,5.08,0,0,1,28.8,24,4.8,4.8,0,1,1,24,19.2a5.08,5.08,0,0,1,1.24.16l8.94-8.94Z"/></g></g></svg>