<svg xmlns="http://www.w3.org/2000/svg" viewBox="0 0 12.13 15.24"><defs><style>.cls-1{fill:#fff;}</style></defs><title>image-filter-white</title><g id="Layer_2" data-name="Layer 2"><g id="Front"><rect class="cls-1" x="1.37" width="2.27" height="12.41"/><path class="cls-1" d="M2.58,15.2,5,11.57a.08.08,0,0,0-.07-.13H.09a.09.09,0,0,0-.08.13L2.44,15.2A.08.08,0,0,0,2.58,15.2Z"/><rect class="cls-1" x="8.49" y="2.83" width="2.27" height="12.41" transform="translate(19.25 18.07) rotate(180)"/><path class="cls-1" d="M9.55,0,7.13,3.67a.09.09,0,0,0,.07.13h4.85a.08.08,0,0,0,.07-.13L9.7,0A.09.09,0,0,0,9.55,0Z"/></g></g></svg>