<svg xmlns="http://www.w3.org/2000/svg" width="28.903" height="28.918" viewBox="0 0 28.903 28.918">
  <g id="route_tracking" transform="translate(1482.26 -1718.964)">
    <path id="Path_24" data-name="Path 24" d="M-1473.354,1735.96a4.659,4.659,0,0,0-4.322-2.979,4.673,4.673,0,0,0-4.3,2.971,4.826,4.826,0,0,0,.171,3.645,37.746,37.746,0,0,0,2.776,5.369c.431.724.888,1.432,1.334,2.148a.5.5,0,0,0,.193-.229c.406-.643.82-1.282,1.208-1.935a37.4,37.4,0,0,0,2.782-5.4A4.808,4.808,0,0,0-1473.354,1735.96Zm-1.327,3.213a40.325,40.325,0,0,1-2.942,5.6c-.009.015-.03.023-.06.047a42.392,42.392,0,0,1-2.939-5.558,3.72,3.72,0,0,1-.2-2.869,3.411,3.411,0,0,1,3.533-2.161,3.4,3.4,0,0,1,2.991,3.052A4.048,4.048,0,0,1-1474.681,1739.173Zm18.611.994-9.375-2.447c-.466-.122-.931-.246-1.4-.37,1.059-.271,2.113-.486,3.166-.7,2.1-.43,4.2-.864,6.3-1.286.163-.033.2-.085.167-.238-.065-.294-.123-.589-.17-.886-.027-.17-.092-.2-.261-.163-1.322.283-2.649.552-3.973.827l-8.141,1.691a.655.655,0,0,0-.582.5c-.093.4.149.725.643.855l9.662,2.56c0,.016.006.033.01.049-.629.042-1.257.083-1.886.126l-7.212.494c-.695.048-1.392.08-2.083.159a.648.648,0,0,0-.421,1.086,2.151,2.151,0,0,0,.216.222q1.643,1.552,3.288,3.1c.065.062.141.112.225.179-.068.036-.083.05-.1.051q-3.87.312-7.74.616c-.168.014-.232.047-.213.227a5.317,5.317,0,0,1,.041.818c-.012.242.083.266.291.248,1.294-.116,2.588-.218,3.882-.326,1.754-.146,3.508-.288,5.261-.441a.635.635,0,0,0,.466-1.023,1.835,1.835,0,0,0-.244-.272q-1.629-1.566-3.258-3.132c-.061-.058-.162-.1-.16-.215q1.782-.123,3.554-.245l6.169-.435q1.972-.139,3.943-.28a.555.555,0,0,0,.573-.483C-1455.334,1740.6-1455.557,1740.3-1456.07,1740.167Zm2.676-16.244a.043.043,0,0,0-.015,0,.054.054,0,0,0-.024.016,14.613,14.613,0,0,1-1.3,3.479,60.059,60.059,0,0,1-3.095,5.347c-.121.188-.195.151-.3-.007-.461-.71-.905-1.431-1.34-2.158-.521-.872-1-1.766-1.483-2.661a18.456,18.456,0,0,1-1.341-3.1,4.235,4.235,0,0,1,.543-3.774,4.45,4.45,0,0,1,2.984-1.958c.1-.019.238.021.263-.142-.037.082-.114.049-.173.057a4.606,4.606,0,0,0-3.9,4.749,7.565,7.565,0,0,0,.764,2.548,49.732,49.732,0,0,0,3.747,6.672,1.309,1.309,0,0,0,.1.118,50.246,50.246,0,0,0,3.878-6.937,7.361,7.361,0,0,0,.679-2.224l.026,0,.022-.015A.056.056,0,0,0-1453.394,1723.923Z" transform="translate(0 0)" fill="#0ba118"/>
    <path id="Path_25" data-name="Path 25" d="M-1403,1723.089a8.277,8.277,0,0,0-.133-.883,4.758,4.758,0,0,0-1.664-2.359,4.092,4.092,0,0,0-2.328-.883h-1.017c-.037.082-.114.049-.173.057a4.606,4.606,0,0,0-3.9,4.749,7.568,7.568,0,0,0,.764,2.548,49.734,49.734,0,0,0,3.747,6.672,1.265,1.265,0,0,0,.1.118,50.246,50.246,0,0,0,3.878-6.937,7.358,7.358,0,0,0,.679-2.224.156.156,0,0,0,.011-.025c.028-.087-.024-.187.037-.269v-.113a.429.429,0,0,1,0-.339Zm-4.357-2.876a3.4,3.4,0,0,1,3.074,2.836,3.967,3.967,0,0,1-.383,2.189,38.022,38.022,0,0,1-2.709,5.185l-.245.412c-.324-.55-.643-1.079-.95-1.615a31.88,31.88,0,0,1-2.023-4.02,3.784,3.784,0,0,1-.281-2.523A3.393,3.393,0,0,1-1407.357,1720.213Z" transform="translate(-50.357 0)" fill="#0ba118"/>
    <path id="Path_26" data-name="Path 26" d="M-1379.569,1734.384a.25.25,0,0,1,0-.339Z" transform="translate(-73.788 -10.844)" fill="#0ba118"/>
    <path id="Path_27" data-name="Path 27" d="M-1379.567,1735.654v.283l-.022.014-.026,0,0-.021A.267.267,0,0,1-1379.567,1735.654Z" transform="translate(-73.79 -12)" fill="#0ba118"/>
    <path id="Path_29" data-name="Path 29" d="M-1400.967,1728.924a2.044,2.044,0,0,0-2.069,1.995,2.046,2.046,0,0,0,1.979,2.066,2.062,2.062,0,0,0,2.06-2.011A2.034,2.034,0,0,0-1400.967,1728.924Zm-.05,3.442a1.369,1.369,0,0,1-1.4-1.364,1.41,1.41,0,0,1,1.414-1.413,1.4,1.4,0,0,1,1.394,1.354A1.421,1.421,0,0,1-1401.017,1732.366Z" transform="translate(-56.963 -7.161)" fill="#0ba118"/>
    <path id="Path_30" data-name="Path 30" d="M-1470.871,1779.048a1.952,1.952,0,0,0-1.949,1.939,1.963,1.963,0,0,0,1.941,1.97,2,2,0,0,0,1.948-1.956A1.966,1.966,0,0,0-1470.871,1779.048Zm-.017,3.079a1.086,1.086,0,0,1-1.1-1.087,1.124,1.124,0,0,1,1.111-1.115,1.108,1.108,0,0,1,1.117,1.082A1.12,1.12,0,0,1-1470.888,1782.127Z" transform="translate(-6.787 -43.201)" fill="#0ba118"/>
    <g id="Group_99" data-name="Group 99">
      <path id="Path_28" data-name="Path 28" d="M-1439.287,1779.655a.555.555,0,0,1-.572.483q-1.971.144-3.943.28l-6.169.435-3.554.245c0,.12.1.157.16.215q1.626,1.569,3.258,3.132a1.822,1.822,0,0,1,.244.272.635.635,0,0,1-.466,1.023c-1.753.153-3.507.3-5.261.441-1.294.108-2.588.211-3.882.327-.209.018-.3-.006-.291-.248a5.347,5.347,0,0,0-.041-.818c-.019-.18.045-.214.213-.227q3.871-.3,7.74-.616c.015,0,.029-.015.1-.051-.084-.067-.16-.117-.225-.179q-1.645-1.549-3.288-3.1a2.143,2.143,0,0,1-.216-.222.648.648,0,0,1,.421-1.086c.691-.079,1.388-.111,2.083-.159l7.212-.494c.629-.043,1.257-.084,1.886-.126,0-.016-.006-.032-.01-.049l-9.661-2.559c-.494-.131-.736-.451-.643-.855a.654.654,0,0,1,.582-.5l8.141-1.691c1.325-.275,2.651-.545,3.973-.827.17-.036.235-.007.261.163.047.3.105.592.17.886.033.153,0,.205-.168.238-2.1.423-4.2.856-6.3,1.286-1.053.216-2.107.432-3.166.7.465.123.93.248,1.4.37l9.374,2.447C-1439.413,1778.932-1439.19,1779.235-1439.287,1779.655Z" transform="translate(-16.144 -38.631)" fill="#0ba118"/>
      <circle id="Ellipse_11" data-name="Ellipse 11" cx="2" cy="2" r="2" transform="translate(-1479.259 1735.964)" fill="#0ba118"/>
      <circle id="Ellipse_12" data-name="Ellipse 12" cx="2" cy="2" r="2" transform="translate(-1460.259 1721.964)" fill="#0ba118"/>
    </g>
  </g>
</svg>
