<svg xmlns="http://www.w3.org/2000/svg" viewBox="0 0 966.25 493.48"><defs><style>.cls-1{fill:#fff;}.cls-2,.cls-3,.cls-4,.cls-5,.cls-6,.cls-7,.cls-9{fill:none;}.cls-2,.cls-3,.cls-4,.cls-5,.cls-7,.cls-9{stroke:#0ba118;stroke-linecap:round;stroke-miterlimit:10;}.cls-2{stroke-width:0.78px;stroke-dasharray:3.03 3.03;}.cls-3{stroke-width:0.95px;stroke-dasharray:3.68 3.68;}.cls-4{stroke-width:1.09px;stroke-dasharray:4.27 4.27;}.cls-5,.cls-9{stroke-width:1.23px;}.cls-5{stroke-dasharray:4.77 4.77;}.cls-7{stroke-width:1.39px;stroke-dasharray:5.4;}.cls-8{fill:#0ba118;}.cls-9{stroke-dasharray:4.78;}</style></defs><title>stadium</title><g id="Layer_2" data-name="Layer 2"><g id="Layer_1-2" data-name="Layer 1"><ellipse class="cls-1" cx="479.21" cy="345.61" rx="178.98" ry="67.21"/><ellipse class="cls-2" cx="479.21" cy="349.71" rx="196.35" ry="77.84"/><ellipse class="cls-3" cx="479.97" cy="354.67" rx="238.27" ry="95.53"/><ellipse class="cls-4" cx="479.59" cy="362.82" rx="276.4" ry="110.03"/><ellipse class="cls-5" cx="481.1" cy="369.07" rx="308.5" ry="123.8"/><path class="cls-6" d="M370.1,155h24v24h-24Z"/><polyline class="cls-7" points="401.96 7.5 413.96 234.5 424.06 247.39"/><circle class="cls-8" cx="401.46" cy="7" r="7"/><polyline class="cls-7" points="567.96 7.5 546.96 235.5 540.96 247.5"/><circle class="cls-8" cx="567.46" cy="7" r="7"/><path class="cls-6" d="M155.1,154h24v24h-24Z"/><polyline class="cls-9" points="219.21 302.04 127.96 227.5 97.96 219.5"/><circle class="cls-8" cx="98.46" cy="218" r="7"/><polyline class="cls-9" points="739.72 302.04 831.96 228.5 860.96 222.5"/><circle class="cls-8" cx="860.46" cy="223" r="7"/><path class="cls-6" d="M182.1,105h48v48h-48Z"/><polyline class="cls-9" points="329.73 262.15 251.96 112.5 212.96 87.5"/><circle class="cls-8" cx="213.46" cy="88" r="7"/><polyline class="cls-9" points="654.19 262.15 731.96 112.5 770.96 87.5"/><circle class="cls-8" cx="770.46" cy="88" r="7"/><path class="cls-6" d="M666.1,252h24v24h-24Z"/><path class="cls-6" d="M654.1,240h48v48h-48Z"/><path class="cls-6" d="M666.1,203h24v24h-24Z"/><path class="cls-6" d="M333.1,218h24v24h-24Z"/><polyline class="cls-9" points="173.9 371.23 173.94 371.23 5.34 354.5"/><circle class="cls-8" cx="7" cy="354.38" r="7"/><polyline class="cls-9" points="788.15 371.23 788.11 371.23 956.71 354.5"/><circle class="cls-8" cx="959.25" cy="354.38" r="7"/></g></g></svg>