<svg xmlns="http://www.w3.org/2000/svg" viewBox="0 0 23 42.5"><defs><style>.cls-1{fill:#5f5733;}.cls-2,.cls-4{fill:none;}.cls-2{stroke:#fff;stroke-miterlimit:10;stroke-width:0.49px;}.cls-3{fill:#03770e;stroke:#000;}.cls-4{stroke:#08510d;}.cls-5{fill:#fff;}</style></defs><title>Go2</title><g id="Layer_2" data-name="Layer 2"><g id="Layer_1-2" data-name="Layer 1"><rect class="cls-1" x="7.17" y="2.5" width="7.8" height="40"/><line class="cls-2" x1="9.12" y1="18.11" x2="9.12" y2="42.5"/><line class="cls-2" x1="11.56" y1="21.52" x2="11.56" y2="33.23"/><line class="cls-2" x1="13.51" y1="30.3" x2="13.51" y2="39.57"/><circle class="cls-3" cx="11.5" cy="11.5" r="11"/><circle class="cls-4" cx="11.5" cy="11.5" r="11"/><path class="cls-5" d="M12.36,16.71a2.52,2.52,0,0,1-1,1.64c-1,.58-2.44.34-3.89-.86A7.8,7.8,0,0,1,4.79,11.2C5.18,4.73,11,3,12.13,3.73a1,1,0,0,1,.45,1.15,8.45,8.45,0,0,0-2.27,2.53,1.1,1.1,0,0,0-.83-.86c-.79-.21-2.85.89-3.09,4.37C6.17,14.11,8.09,15.69,9,15.4c.2-.07.37-.17.4-.28a7.26,7.26,0,0,1-.84-2.53l-.76.1a7.13,7.13,0,0,1,.11-3.28L10,9.55C9.45,12.52,9.91,14.21,12.36,16.71Z"/><path class="cls-5" d="M17.76,10.56c.47,2,1.29,3.23-.22,4.15s-5.16-.72-5.27-3.88c-.11-3.33,3.37-5.12,4.49-4.45S17.36,8.93,17.76,10.56Zm-3.9.16c.12,1.86,1.47,2.73,2.19,2.49s.34-1.19.13-2.57S16.12,8.22,15.5,8,13.74,8.91,13.86,10.72Z"/></g></g></svg>