<svg xmlns="http://www.w3.org/2000/svg" viewBox="0 0 38.84 28"><defs><style>.cls-1{fill:#fff;}.cls-2{fill:#ea2129;}.cls-3{fill:#21201e;}.cls-4{fill:#9d1d20;}.cls-5{fill:#e5242b;}.cls-6{fill:#e82127;}.cls-7{fill:#e8dfe4;}.cls-8{fill:#e02327;}.cls-9{fill:#bcbdbf;}.cls-10{fill:#252425;}.cls-11{fill:#252424;}.cls-12{fill:#242223;}.cls-13{fill:#c32227;}.cls-14{fill:#ed232e;}.cls-15{fill:#941b1d;}.cls-16{fill:#161514;}.cls-17{fill:#e82526;}.cls-18{fill:#ec202b;}.cls-19{fill:#ec1f25;}.cls-20{fill:#922e2c;}.cls-21{fill:#bbbcbe;}.cls-22{fill:#c5c4c6;}</style></defs><title>stop-tractor</title><g id="Layer_2" data-name="Layer 2"><g id="Layer_1-2" data-name="Layer 1"><path class="cls-1" d="M38.84,17.44c-.1,0-.11-.1-.13-.17a9.26,9.26,0,0,0-1.34-2.21,9.63,9.63,0,0,0-2.89-2.4,9.86,9.86,0,0,0-2.29-.88c-.07,0-.14,0-.18-.1v0h0c-.11-.44-.16-.9-.22-1.34-.27-1.75-.54-3.5-.81-5.25-.09-.59-.19-1.17-.26-1.76h0v0h0v0h0v0a7.65,7.65,0,0,0,0-1v0h0v0h0A.1.1,0,0,0,30.66,2H14.81a.13.13,0,0,0-.11.07h0a.53.53,0,0,0,0,.27.26.26,0,0,0,.18.1l2.65.69c.09,0,.2,0,.3,0l.06,0h0v0h0c0,.52-.15,1-.23,1.55-.3,1.88-.6,3.77-.83,5.66,0,.14,0,.29-.09.4h0a.41.41,0,0,1-.29,0l0,0h0l-.09-.07h0a.25.25,0,0,0-.14,0h0c-.42,0-.84-.06-1.26,0H13.68c-.83,0-1.67,0-2.5.09-.46,0-.92,0-1.37.1a.44.44,0,0,1-.28,0l0,0h0l0-.06a.7.7,0,0,1,0-.22c0-1.33,0-2.65,0-4a.82.82,0,0,0,0-.16,1.75,1.75,0,0,0-.4-.7c-.06-.09-.18-.06-.27-.07s-.25,0-.25-.26q0-1.49,0-3a1.13,1.13,0,0,1,.05-.3c.15-.54.29-1.07.44-1.61.07-.26.06-.28-.2-.35L8.47.12C8.41.1,8.32.1,8.31,0A3.4,3.4,0,0,0,9,.19c.15,0,.19.08.15.24-.18.63-.34,1.26-.52,1.88a1,1,0,0,0,0,.27c0,1,0,1.94,0,2.91,0,.15,0,.2.18.18a.46.46,0,0,1,.5.25,1.37,1.37,0,0,1,.27.86c0,1.38,0,2.75,0,4.13l2.23-.13c.65,0,1.29-.07,1.94-.05h1.24c.49,0,1,0,1.46,0l0,0,0,.11h.31c.05-.4.1-.79.15-1.19.15-1.2.34-2.4.52-3.6.15-.94.3-1.87.45-2.81a.17.17,0,0,1,0,0c-.12,0-.24,0-.36,0l-2.21-.57-.65-.18v0h0a1.08,1.08,0,0,1,0-.42s0,0,.07,0H30.58c.18,0,.23,0,.22.22s0,.6,0,.89c0,.06,0,.15-.07.17v0a7.8,7.8,0,0,1,.19,1.1c.21,1.31.4,2.62.6,3.93L32,11.5l0,.19a10.12,10.12,0,0,1,2.4.9,9.56,9.56,0,0,1,4.33,4.71Z"/><path class="cls-1" d="M8.25.26c-.18.69-.4,1.38-.54,2.08,0,1,0,2,0,3a1.7,1.7,0,0,1,0,.25v0l0,0c-.06.08-.16.06-.25.06A.38.38,0,0,0,7,5.94a1.79,1.79,0,0,0-.23.42c0,1.48,0,3,0,4.45a2.16,2.16,0,0,1,0,.31v0h0c0,.07-.13.08-.22.09A9.79,9.79,0,0,0,4,12a4.76,4.76,0,0,0-1.35.89.42.42,0,0,1-.2.14h0a1.44,1.44,0,0,1-.3-.13,2.27,2.27,0,0,0-.75-.15h0a.62.62,0,0,0-.42.4,3.17,3.17,0,0,0-.26,1.15,5.59,5.59,0,0,0,.12,1.81,2.33,2.33,0,0,0,.16.43.61.61,0,0,0,.38.35h.06a2,2,0,0,1,0,.71h0a.33.33,0,0,1-.16.13,8.31,8.31,0,0,0-.71.46,1,1,0,0,0-.38.56c0,.07,0,.17-.13.18a.06.06,0,0,0,0-.05A1.27,1.27,0,0,1,.77,18l.6-.35q0-.36,0-.71h0c-.22,0-.33-.17-.42-.33a3,3,0,0,1-.31-1.28A5.63,5.63,0,0,1,.7,13.57,2,2,0,0,1,1,12.88a.46.46,0,0,1,.35-.21A2.17,2.17,0,0,1,2.44,13a6.39,6.39,0,0,1,3.44-1.64l.84-.15q0-2.36,0-4.72a1.6,1.6,0,0,1,0-.17,1.68,1.68,0,0,0,.11-.18.65.65,0,0,1,.8-.45q0-1.58,0-3.16c0-.07,0-.14,0-.21C7.85,1.52,8,.76,8.27,0A.42.42,0,0,1,8.25.26Z"/><path class="cls-1" d="M7.24,28a.24.24,0,0,1,0-.21c0-.09,0-.15-.1-.15a2.47,2.47,0,0,1-.82-.15c-.12,0-.09.11-.11.17s-.1.16-.22.11l-.14-.05c-.3-.11-.3-.11-.2-.41,0,0,0,0,0-.07a7.47,7.47,0,0,1-.86-.46l-.07.11s0,.05,0,.06c-.25.13-.3-.14-.45-.22s-.13-.14,0-.24.14-.07.12-.18a3.12,3.12,0,0,1-.61-.73H3.59c-.09,0-.17.2-.28.11A.76.76,0,0,1,3,25.21c0-.13.14-.14.25-.17a4,4,0,0,0-.21-.57L3,24.16c0-.08-.06-.08-.13-.07-.26,0-.26,0-.31-.21a.66.66,0,0,0,0-.11c-.29,0-.29-.06-.25-.34.08-.6.14-1.2.21-1.79H2.06c0,.22,0,.45,0,.68,0,.06,0,.13,0,.18H2a3.29,3.29,0,0,1-.95,0H1A1.37,1.37,0,0,1,.47,22,3.53,3.53,0,0,1,0,21.13c.1,0,.09.09.12.15a2.62,2.62,0,0,0,.71,1,.65.65,0,0,0,.24.15l.06,0h0a4.77,4.77,0,0,0,.83,0l0,0v0H2v0H2c0-.16,0-.31,0-.47a.54.54,0,0,1,0-.18l0-.05h0a.54.54,0,0,1,.4,0h0a.28.28,0,0,1,0,.23c-.07.52-.12,1-.2,1.55,0,.17,0,.28.18.32h0c.09.19.19.35.45.31l0,0v.05c.07.23.15.47.24.7a.34.34,0,0,1,0,.19h0c-.24.19-.24.19-.08.46s.17.18.3.07a.14.14,0,0,1,.12,0h0c.2.25.41.5.62.73h0v0c0,.08,0,.12-.09.17a.13.13,0,0,0,0,.2l.1.09c.2.17.2.17.39,0l0,0h0a.16.16,0,0,1,.12,0c.24.16.49.29.74.43h0c.05.07,0,.13,0,.2a.13.13,0,0,0,.09.2l.2.07a.17.17,0,0,0,.25-.11.17.17,0,0,1,.1-.12h.07a4.38,4.38,0,0,0,.8.13l0,0h0A.31.31,0,0,1,7.24,28Z"/><path class="cls-2" d="M38.84,17.44v.16a.41.41,0,0,1-.39.11,1.18,1.18,0,0,1-.89-.61.66.66,0,0,0-.07-.09h0a2.11,2.11,0,0,1-.31-.47,8.71,8.71,0,0,0-3.39-3.14,8,8,0,0,0-3.11-.89,8.38,8.38,0,0,0-3.46.43,9.09,9.09,0,0,0-3.07,1.81,8.41,8.41,0,0,0-1.93,2.53,7.25,7.25,0,0,1-.63,1.07.9.9,0,0,1-.32.27.28.28,0,0,1-.43-.22,1,1,0,0,1,0-.48v0h0a9.33,9.33,0,0,1,1.47-2.71,9.68,9.68,0,0,1,9.49-3.56.52.52,0,0,1,.16,0l0,0a10.12,10.12,0,0,1,2.4.9,9.56,9.56,0,0,1,4.33,4.71Z"/><path class="cls-3" d="M9.5,10.91h0a0,0,0,0,1,0,0q0-2.16,0-4.32c0,1.45,0,2.9,0,4.35h0a.26.26,0,0,1-.21.09c-.77.06-1.53.13-2.3.23a.2.2,0,0,1-.19,0h0c0-1.55,0-3.1,0-4.65a1.13,1.13,0,0,0,0-.23,1.68,1.68,0,0,0,.11-.18.65.65,0,0,1,.8-.45s0-.08,0-.12q0-1.57,0-3.14a.22.22,0,0,0,0-.11C7.85,1.52,8,.76,8.27,0h0A3.4,3.4,0,0,0,9,.19c.15,0,.19.08.15.24-.18.63-.34,1.26-.52,1.88a1,1,0,0,0,0,.27c0,1,0,1.94,0,2.91,0,.15,0,.2.18.18a.46.46,0,0,1,.5.25,1.37,1.37,0,0,1,.27.86C9.49,8.16,9.5,9.53,9.5,10.91Z"/><path class="cls-3" d="M2.12,18.24a1.85,1.85,0,0,0,0-.35.42.42,0,0,0-.69-.28l0,0L.77,18A1.27,1.27,0,0,0,0,18.9.06.06,0,0,1,0,19v2.17A3.53,3.53,0,0,0,.47,22a1.37,1.37,0,0,0,.58.49h.79c.08,0,.16,0,.16-.11v0s0-.05,0-.08v0H2a1.52,1.52,0,0,0,0,.17H2c0-.06,0-.12,0-.18,0-.22,0-.45,0-.68l0,0a.44.44,0,0,0,0-.25Q2.12,19.8,2.12,18.24Zm-.17.1,0,0a2.73,2.73,0,0,0,0,.44c0,1,0,1.94,0,2.9q0,.06,0,.12c0-.13,0-.25,0-.38a1,1,0,0,1,0-.27Q2,20,2,18.78a3.09,3.09,0,0,0,0-.39v-.06H2Zm0-.06,0-.07A.09.09,0,0,1,1.92,18.27Z"/><path class="cls-2" d="M16.43,17.7v-.09h0l0-.21h0v-.13c0-.08,0-.16,0-.25q0-2.13,0-4.26a1.25,1.25,0,0,1,0-.18v-.08h0a.93.93,0,0,0,0-.27v-.05c0-.08,0-.16,0-.24,0-.24,0-.48,0-.71a.76.76,0,0,0,0-.26c0-.06,0-.12-.13-.11h.15a.12.12,0,0,0,.08,0l0,0c-.49,0-1-.06-1.46,0a10.67,10.67,0,0,1-1.24,0c-.65,0-1.29,0-1.94.05l-2.23.13H9.44l-1,.1-1.66.17h0s0,0,0,0l-.84.15A6.39,6.39,0,0,0,2.44,13l0,0a.88.88,0,0,0-.31.31,4,4,0,0,0-.64,1.59c0,.26-.06.51-.08.77h0l0,.31a5,5,0,0,0,0,.83v.09q0,.36,0,.71h0l.19,0c.37,0,.41,0,.46.37a6,6,0,0,1,0,.81c0,.95,0,1.9,0,2.85v0h.43a.25.25,0,0,0,.08-.2c.07-.51.14-1,.19-1.54A.57.57,0,0,1,3,19.45c.38-.25.77-.48,1.14-.74a1.3,1.3,0,0,1,.75-.21h.35a.42.42,0,0,0,.24-.06l0,0h0c.11-.14.31-.16.44-.27H6a.25.25,0,0,0,0-.22c-.05-.17-.12-.34-.18-.52v0h0a1.46,1.46,0,0,0-.09-.21c-.08-.19-.06-.22.14-.25a7.11,7.11,0,0,1,1.52,0A8.61,8.61,0,0,1,11.17,18a1.13,1.13,0,0,0,.37.17h.07c.41,0,.82,0,1.24,0l2.33-.1a3.89,3.89,0,0,0,.61-.06l.06,0h0a0,0,0,0,0,0,0h0a.24.24,0,0,0-.19,0h0a.63.63,0,0,1,.23,0h.16l.06,0a.18.18,0,0,1,.23.05h0c.07,0,.09,0,.09-.09A1,1,0,0,0,16.43,17.7Zm-.79.21h0Z"/><path class="cls-4" d="M37.48,17l-1.06.64h0c-.11,0-.13-.16-.17-.25A1.6,1.6,0,0,1,36.1,17h0c0-.1.13-.1.21-.12s.17-.11.09-.23l-.09-.15c-.14-.23-.14-.23-.38-.13a.28.28,0,0,1-.2,0h0c-.24-.3-.48-.59-.69-.9h0c0-.11.1-.15.18-.19s.11-.13,0-.22l-.15-.15c-.17-.16-.18-.16-.37,0a.3.3,0,0,1-.21.08h0c-.28-.24-.59-.44-.87-.68v0h0v0c0-.09,0-.14.1-.2s.12-.18-.05-.27l-.15-.08a.21.21,0,0,0-.33.06.29.29,0,0,1-.18.15h0c-.31-.13-.62-.28-.94-.39a.19.19,0,0,1-.12-.09h0A.37.37,0,0,1,32,13.2c0-.1,0-.16-.08-.19l-.19,0c-.24-.07-.25-.06-.37.17,0,.06-.06.14-.13.16h-.06c-.36-.07-.73-.09-1.09-.16h0c0-.07,0-.14,0-.22s0-.12,0-.15-.3,0-.45,0-.12.08-.14.16,0,.2-.09.27h0c-.37,0-.73.11-1.09.12h0c-.07,0-.07-.11-.08-.18s-.05-.22-.25-.17l-.17,0a.21.21,0,0,0-.17.26c0,.09,0,.19,0,.27h0l-1,.43h0c-.08,0-.08-.1-.1-.17s-.1-.21-.29-.1l-.14.08c-.17.1-.18.14-.11.33s.08.15,0,.23v0h0l-.91.69h0c-.1,0-.12-.12-.16-.19s-.15-.12-.24,0l-.05.05c-.24.24-.24.24-.06.51a.16.16,0,0,1,0,.13h0c-.2.27-.42.53-.61.81a.19.19,0,0,1-.13.1h0c-.09,0-.13-.07-.19-.12s-.1-.08-.16,0a.9.9,0,0,0-.22.32c-.09.16,0,.23.12.31s.11.08.12.16a.11.11,0,0,1,0,0h0c-.16.34-.28.7-.44,1h0c-.09,0-.16,0-.24-.06s-.18,0-.22.09l-.06.18c-.06.22,0,.25.17.35a.33.33,0,0,1,.16.11v0A10.91,10.91,0,0,1,22.51,20h0c-.08.06-.16,0-.24,0s-.17,0-.18.15,0,.14,0,.21a.21.21,0,0,0,.21.26c.08,0,.17,0,.22.09h0v0c0,.18.1.36,0,.54h0a.73.73,0,0,1-.37,0h-.6c-.16,0-.22.06-.22.22,0,.46,0,.92,0,1.38a.89.89,0,0,1-.32.72.57.57,0,0,1-.41.16H15.26c-.12,0-.12-.1-.13-.19a7.74,7.74,0,0,0-.7-2.09A8.09,8.09,0,0,0,12,18.55l-.35-.25s-.11-.06-.08-.11l0,0,4.27-.2h0l.14,0h.12l.23,0h0c.05,0,.08,0,.08-.08s0-.09,0-.14V17.6c0-.11,0-.22,0-.34s0-.06,0-.09c0-1.5,0-3,0-4.51,0,0,0-.06,0-.09,0-.22,0-.43,0-.65s0-.5,0-.75c0-.09,0-.19.06-.25h.34l0,0a.51.51,0,0,1,0,.35c0,.44-.05.88-.07,1.32,0,1-.06,2.07-.09,3.1,0,.62,0,1.24,0,1.86,0,.29,0,.3.29.3h3.65a.52.52,0,0,1,.28,0l0,0a1,1,0,0,0,0,.44.25.25,0,0,0,.42.2,1.33,1.33,0,0,0,.37-.39c.27-.4.46-.83.7-1.25a8.43,8.43,0,0,1,.9-1.32,8.86,8.86,0,0,1,2.33-2,8.6,8.6,0,0,1,2.92-1.08,8.4,8.4,0,0,1,7,2,8.89,8.89,0,0,1,1.89,2.33,1.1,1.1,0,0,1,.06.13Z"/><path class="cls-3" d="M21.77,12.22,20.39,9.11a.37.37,0,1,0-.68.3c.16.37.32.75.5,1.11.06.13,0,.17-.09.22l-2,.9h0a.19.19,0,0,0,.11,0c.66-.28,1.31-.58,2-.87a.16.16,0,0,0,.08-.25c-.08-.15-.14-.32-.22-.48s-.22-.47-.31-.71a.32.32,0,0,1,.17-.4.29.29,0,0,1,.39.14,2.65,2.65,0,0,1,.14.28c.29.68.61,1.36.91,2,.13.31.29.61.4.93a.33.33,0,0,1-.14.39.31.31,0,0,1-.4-.1,1.14,1.14,0,0,1-.14-.26c-.14-.32-.28-.64-.43-1a.19.19,0,0,0-.28-.11c-.63.28-1.27.55-1.9.85a.28.28,0,0,0-.13.09v0l2.08-.93c.11,0,.13,0,.17.08l.51,1.15a.37.37,0,1,0,.67-.3Zm0,0L20.39,9.11a.37.37,0,1,0-.68.3c.16.37.32.75.5,1.11.06.13,0,.17-.09.22l-2,.9h0a.19.19,0,0,0,.11,0c.66-.28,1.31-.58,2-.87a.16.16,0,0,0,.08-.25c-.08-.15-.14-.32-.22-.48s-.22-.47-.31-.71a.32.32,0,0,1,.17-.4.29.29,0,0,1,.39.14,2.65,2.65,0,0,1,.14.28c.29.68.61,1.36.91,2,.13.31.29.61.4.93a.33.33,0,0,1-.14.39.31.31,0,0,1-.4-.1,1.14,1.14,0,0,1-.14-.26c-.14-.32-.28-.64-.43-1a.19.19,0,0,0-.28-.11c-.63.28-1.27.55-1.9.85a.28.28,0,0,0-.13.09v0l2.08-.93c.11,0,.13,0,.17.08l.51,1.15a.37.37,0,1,0,.67-.3Zm0,0L20.39,9.11a.37.37,0,1,0-.68.3c.16.37.32.75.5,1.11.06.13,0,.17-.09.22l-2,.9h0a.19.19,0,0,0,.11,0c.66-.28,1.31-.58,2-.87a.16.16,0,0,0,.08-.25c-.08-.15-.14-.32-.22-.48s-.22-.47-.31-.71a.32.32,0,0,1,.17-.4.29.29,0,0,1,.39.14,2.65,2.65,0,0,1,.14.28c.29.68.61,1.36.91,2,.13.31.29.61.4.93a.33.33,0,0,1-.14.39.31.31,0,0,1-.4-.1,1.14,1.14,0,0,1-.14-.26c-.14-.32-.28-.64-.43-1a.19.19,0,0,0-.28-.11c-.63.28-1.27.55-1.9.85a.28.28,0,0,0-.13.09v0l2.08-.93c.11,0,.13,0,.17.08l.51,1.15a.37.37,0,1,0,.67-.3ZM32,11.5l-.49-3.18c-.2-1.31-.4-2.62-.6-3.93a7.8,7.8,0,0,0-.19-1.1l0,0h-.05a.72.72,0,0,0-.18,0H18.24a.8.8,0,0,0-.25,0h0l0,0h0l0,0c-.15.94-.31,1.87-.45,2.81-.19,1.2-.37,2.4-.52,3.6,0,.4-.1.79-.15,1.19v0c0,.76-.08,1.51-.1,2.27,0,1-.06,1.91-.08,2.87,0,.54,0,1.07,0,1.61,0,.18,0,.23.22.23h4.1l0-.09a9.59,9.59,0,0,1,8.67-6.33,10.52,10.52,0,0,1,2.39.2h0ZM21.07,15.2c0,.07,0,.14-.16.14H18.76c0-.39,0-.78,0-1.16a3.19,3.19,0,0,0-.43-1.94l2.08-.93c.11,0,.13,0,.17.08l.51,1.15a.37.37,0,1,0,.67-.3L20.39,9.11a.37.37,0,1,0-.68.3c.16.37.32.75.5,1.11.06.13,0,.17-.09.22l-2,.9h0a2.24,2.24,0,0,1-.17-.36c-.09-.3-.25-.45-.57-.38a.52.52,0,0,1-.15,0c.08-1.1.3-2.17.46-3.26.19-1.27.4-2.54.6-3.8a.36.36,0,0,0,0-.06c.07-.06.15,0,.22,0h6.38c.06.59,0,1.19.06,1.78.06,1.77.09,3.54.15,5.31a.22.22,0,0,1-.14.22A10.32,10.32,0,0,0,22,13.61,9.55,9.55,0,0,0,21.07,15.2Zm4.41-4.47c0-.65,0-1.28-.05-1.9q-.07-2.54-.14-5.08H30.4a11.12,11.12,0,0,1,.2,1.16c.2,1.3.39,2.61.61,3.91,0,.23-.07.22-.21.24a18.39,18.39,0,0,0-3.82.9A10.19,10.19,0,0,0,25.47,10.73Zm-3.71,1.49L20.39,9.11a.37.37,0,1,0-.68.3c.16.37.32.75.5,1.11.06.13,0,.17-.09.22l-2,.9h0a.19.19,0,0,0,.11,0c.66-.28,1.31-.58,2-.87a.16.16,0,0,0,.08-.25c-.08-.15-.14-.32-.22-.48s-.22-.47-.31-.71a.32.32,0,0,1,.17-.4.29.29,0,0,1,.39.14,2.65,2.65,0,0,1,.14.28c.29.68.61,1.36.91,2,.13.31.29.61.4.93a.33.33,0,0,1-.14.39.31.31,0,0,1-.4-.1,1.14,1.14,0,0,1-.14-.26c-.14-.32-.28-.64-.43-1a.19.19,0,0,0-.28-.11c-.63.28-1.27.55-1.9.85a.28.28,0,0,0-.13.09v0l2.08-.93c.11,0,.13,0,.17.08l.51,1.15a.37.37,0,1,0,.67-.3Zm0,0L20.39,9.11a.37.37,0,1,0-.68.3c.16.37.32.75.5,1.11.06.13,0,.17-.09.22l-2,.9h0a.19.19,0,0,0,.11,0c.66-.28,1.31-.58,2-.87a.16.16,0,0,0,.08-.25c-.08-.15-.14-.32-.22-.48s-.22-.47-.31-.71a.32.32,0,0,1,.17-.4.29.29,0,0,1,.39.14,2.65,2.65,0,0,1,.14.28c.29.68.61,1.36.91,2,.13.31.29.61.4.93a.33.33,0,0,1-.14.39.31.31,0,0,1-.4-.1,1.14,1.14,0,0,1-.14-.26c-.14-.32-.28-.64-.43-1a.19.19,0,0,0-.28-.11c-.63.28-1.27.55-1.9.85a.28.28,0,0,0-.13.09v0l2.08-.93c.11,0,.13,0,.17.08l.51,1.15a.37.37,0,1,0,.67-.3Zm0,0L20.39,9.11a.37.37,0,1,0-.68.3c.16.37.32.75.5,1.11.06.13,0,.17-.09.22l-2,.9h0a.19.19,0,0,0,.11,0c.66-.28,1.31-.58,2-.87a.16.16,0,0,0,.08-.25c-.08-.15-.14-.32-.22-.48s-.22-.47-.31-.71a.32.32,0,0,1,.17-.4.29.29,0,0,1,.39.14,2.65,2.65,0,0,1,.14.28c.29.68.61,1.36.91,2,.13.31.29.61.4.93a.33.33,0,0,1-.14.39.31.31,0,0,1-.4-.1,1.14,1.14,0,0,1-.14-.26c-.14-.32-.28-.64-.43-1a.19.19,0,0,0-.28-.11c-.63.28-1.27.55-1.9.85a.28.28,0,0,0-.13.09v0l2.08-.93c.11,0,.13,0,.17.08l.51,1.15a.37.37,0,1,0,.67-.3Z"/><path class="cls-2" d="M30.78,3.11a.12.12,0,0,1-.07.13H17.91l-.37,0-2.21-.57-.65-.18v0h0v0c0-.2,0-.28,0-.31a.49.49,0,0,1,.23,0H30.23a.6.6,0,0,0,.21,0h0a.52.52,0,0,1,.28,0h0l0,0C30.79,2.46,30.77,2.79,30.78,3.11Z"/><path class="cls-5" d="M30.8,3.1c0,.06,0,.15-.07.17H17.9c-.12,0-.24,0-.36,0h13a.24.24,0,0,0,.18,0,.2.2,0,0,0,0-.17c0-.29,0-.58,0-.87h0a1.64,1.64,0,0,0-.5,0H15l0,0s-.1,0-.13,0-.07,0-.08,0h0s0,0,0,.09,0,.18,0,.27v0h0a1.08,1.08,0,0,1,0-.42s0,0,.07,0H30.58c.18,0,.23,0,.22.22S30.8,2.8,30.8,3.1Z"/><path class="cls-6" d="M16.45,10.93c0,.07,0,.15,0,.22a.44.44,0,0,0,0,.21q0,3.07,0,6.14s0,.07,0,.11h0a.22.22,0,0,1,0,.08v0a1.47,1.47,0,0,1-.07-.51c0-1.52,0-3,0-4.57,0-.48,0-1,0-1.44a.86.86,0,0,0,0-.25c0-.15-.16,0-.23-.07l.12,0a1.06,1.06,0,0,1,.26,0l0,.11Z"/><path class="cls-7" d="M30.72,3.27v0H17.91a.17.17,0,0,1,0,0H30.72Z"/><path class="cls-8" d="M14.91,10.72a1,1,0,0,1-.47,0,2.89,2.89,0,0,1-.77,0Z"/><path class="cls-3" d="M30.16,26.9c0,.16,0,.32,0,.48a.17.17,0,0,1,0,.11l-.06.06A.75.75,0,0,1,30,28l0,0h-.58l0,0c-.09-.14,0-.28,0-.42s-.09,0-.1-.05,0-.05,0-.1a1.43,1.43,0,0,0,.19-.56.32.32,0,0,1,.36-.27C30.09,26.55,30.18,26.66,30.16,26.9Z"/><path class="cls-9" d="M1.37,15.67h0v0c0,.34,0,.67,0,1a.72.72,0,0,1,0,.1v0l0,0c-.22,0-.33-.17-.42-.33a3,3,0,0,1-.31-1.28A5.63,5.63,0,0,1,.7,13.57,2,2,0,0,1,1,12.88a.46.46,0,0,1,.35-.21l0,.05a.51.51,0,0,1,0,.21C1.38,13.84,1.4,14.76,1.37,15.67Z"/><path class="cls-3" d="M2.44,13l0,0a4.06,4.06,0,0,0-1,2.69c0,.39,0,.79-.06,1.18v0h0v0q0-2,0-4c0-.06,0-.12,0-.18v-.05A2.17,2.17,0,0,1,2.44,13Z"/><path class="cls-3" d="M6.76,6.52q0,2.31,0,4.63v0h0q0-2.36,0-4.72a1.6,1.6,0,0,1,0-.17C6.78,6.36,6.76,6.44,6.76,6.52Z"/><path class="cls-3" d="M7.7,5.59h0s0,.06,0,.07h0q0-1.58,0-3.16c0-.07,0-.14,0-.21s0,.15,0,.22C7.69,3.54,7.69,4.56,7.7,5.59Z"/><path class="cls-3" d="M36.91,20.67a5.11,5.11,0,0,1-.16,1.13l0,0a.25.25,0,0,1-.2,0c-.12,0-.24-.1-.36-.13s-.2-.07-.27.06a.25.25,0,0,0,.06.36,4.67,4.67,0,0,0,.42.24c.09.05.21.06.25.17v0l-.05,0c-.12.38-.3.73-.44,1.11h0c-.07,0-.1,0-.15-.07s-.24-.19-.37-.28-.18-.14-.28,0-.14.27,0,.39l.43.42s.09.06.09.11v0c-.08,0-.1.08-.13.12a7.51,7.51,0,0,1-.64.81h0c-.17-.08-.24-.26-.36-.39s-.16-.25-.33-.13a.28.28,0,0,0-.06.42,3.81,3.81,0,0,0,.33.54.08.08,0,0,1,0,.08l0,0c-.07-.07-.11,0-.15,0a5.88,5.88,0,0,1-.84.62h0c-.06,0-.06-.06-.08-.1s-.12-.29-.18-.43-.13-.19-.28-.14a.24.24,0,0,0-.17.3c.06.22.1.44.18.65,0,0,0,.08,0,.12l0,0c-.05-.1-.12,0-.18,0a7.6,7.6,0,0,1-1,.39h0c-.06,0-.06-.12-.07-.19s0-.27-.06-.4,0-.21-.19-.19-.27,0-.28.22a3.09,3.09,0,0,0,0,.75.77.77,0,0,1,0,.3h0v0l0,0a.19.19,0,0,1,0-.05c0-.3,0-.3-.34-.25a2.55,2.55,0,0,1-.57.06s-.07,0-.11,0h0a0,0,0,0,1,0,0l-.2,0v0h0a4.17,4.17,0,0,0,.06-.44,1,1,0,0,0,0-.14c0-.29-.07-.38-.36-.33a.2.2,0,0,0-.19.18,4,4,0,0,1-.12.48c0,.06,0,.15-.08.17s-.06.05,0,.07h0l-1.2-.16a.2.2,0,0,1,0,0,1.91,1.91,0,0,1,.18-.56c0-.11.1-.22-.06-.29s-.29-.06-.38.09a4.57,4.57,0,0,0-.25.41c0,.07-.06.15-.15.18h0a6.77,6.77,0,0,1-.93-.37.37.37,0,0,0-.2-.07v0a2.22,2.22,0,0,1,.3-.47c.07-.11.2-.21,0-.35a.29.29,0,0,0-.43,0,4,4,0,0,0-.35.36s-.07.1-.13.1h0l-1-.74v0h0c0-.1.13-.14.2-.19l.29-.23c.09-.07.16-.14.08-.26s-.21-.2-.34-.14-.35.21-.53.31-.09.09-.15.07h0c-.05-.15-.18-.24-.27-.36l-.36-.49s-.05-.12-.14-.12a.09.09,0,0,1,0,0s.06-.05.1-.06a3.6,3.6,0,0,0,.49-.22c.1,0,.19-.1.14-.23s-.11-.24-.27-.22a1.86,1.86,0,0,0-.35.1.75.75,0,0,1-.41.08h0a1.12,1.12,0,0,0-.15-.39,6.23,6.23,0,0,1-.27-.74h0a.46.46,0,0,1,.25-.09c.11,0,.23,0,.34-.05s.2-.07.18-.2-.06-.23-.21-.24-.36,0-.54,0-.16,0-.22,0h0a3.79,3.79,0,0,0-.11-.6h0c0-.19-.06-.37,0-.56v0c0-.07.11,0,.17,0l.44,0c.1,0,.22,0,.24-.13s0-.26-.14-.32-.35-.09-.52-.14-.17,0-.2-.12h0a7.65,7.65,0,0,1,.15-1.17h0c.07,0,.13,0,.18,0l.4.15c.1,0,.19.09.27,0a.27.27,0,0,0-.06-.38,3.55,3.55,0,0,0-.45-.26c-.07,0-.17-.07-.16-.18h0a5.23,5.23,0,0,1,.43-1.05h0c.07,0,.12,0,.16.06l.33.23c.09.07.18.16.3,0a.27.27,0,0,0,0-.39l-.37-.37c0-.05-.12-.09-.11-.18h0l.57-.74.16-.17h0c.11,0,.14.1.2.16s.15.21.25.3.15.13.25,0,.2-.16.13-.31-.18-.31-.26-.47-.1-.13-.08-.21v0a4.82,4.82,0,0,1,.9-.69h0c.07,0,.09.06.11.11a3.85,3.85,0,0,1,.18.41c0,.1.08.2.22.16a.27.27,0,0,0,.23-.31c0-.15-.07-.3-.12-.45s-.08-.18,0-.28v0a5.12,5.12,0,0,1,1-.43h0c.08,0,.08.1.09.17s.06.28.09.42,0,.2.17.19.25-.05.26-.21,0-.35,0-.52,0-.19.08-.25h0a5.2,5.2,0,0,1,1.13-.13h0s0,.08,0,.13,0,.28,0,.43,0,.23.12.26.29,0,.33-.18a4.11,4.11,0,0,1,.15-.52c0-.05,0-.13.1-.13h0a4.22,4.22,0,0,1,1.13.15l0,0s0,.1,0,.15a4.3,4.3,0,0,1-.16.41c0,.1-.07.2,0,.27a.27.27,0,0,0,.37,0c.12-.15.19-.34.29-.5s.05-.14.14-.15h0a7.59,7.59,0,0,1,1.06.46v0c0,.08,0,.13-.06.19s-.17.21-.24.32-.13.17,0,.27.26.14.38,0,.29-.28.43-.42.07-.11.13-.07l0,0a4.19,4.19,0,0,1,.85.65l0,0s0,.08-.05.12a4.23,4.23,0,0,1-.35.3c-.07.06-.19.11-.12.25a.3.3,0,0,0,.37.16c.15-.06.26-.17.4-.23s.16-.15.28-.09h0a4.9,4.9,0,0,1,.67.89v0c0,.07,0,.09-.1.11s-.29.13-.44.2-.18.1-.13.24.15.25.29.21.37-.12.56-.15.13,0,.18,0v0c.14.17.17.4.3.58h0c0,.15.11.27.12.42v0c0,.09-.12.1-.2.11l-.34,0c-.11,0-.22,0-.21.19s.08.26.24.28.33,0,.5,0,.16,0,.23,0h0A5.35,5.35,0,0,1,36.9,20h0a.32.32,0,0,1-.26,0l-.33,0c-.1,0-.2,0-.23.11a.25.25,0,0,0,.15.33c.16.06.33.08.49.13s.16,0,.2.1Z"/><path class="cls-3" d="M37.13,18.75a.41.41,0,0,0-.16,0l.05,0-.28,0H36a.36.36,0,0,1-.31-.45c0-.09.11-.11.18-.12l.38,0a.38.38,0,0,0,.25-.09l0,0c.07.13.18,0,.26,0s.28,0,.31.21a2,2,0,0,0,.07.28C37.2,18.65,37.21,18.71,37.13,18.75Z"/><path class="cls-3" d="M33.28,27.11c-.2.06-.18-.11-.22-.21a.37.37,0,0,1,0-.09l0-.06c-.1-.25-.14-.51-.22-.76s.1-.27.23-.33a.21.21,0,0,1,.3.11,6.23,6.23,0,0,0,.26.59v0a.78.78,0,0,0,.09.23l0,0C33.79,26.83,33.63,27,33.28,27.11Z"/><path class="cls-3" d="M37.14,22.24a2.2,2.2,0,0,0-.07.26c-.06.21-.1.23-.29.12l-.14-.09,0,0L36,22.19a.33.33,0,0,1-.14-.54c.06-.09.15-.07.23-.05a2.53,2.53,0,0,1,.33.12.87.87,0,0,0,.3.08h0c0,.12.16.11.24.15S37.2,22.08,37.14,22.24Z"/><path class="cls-3" d="M35,25.89c-.15.16-.21.15-.32,0l-.07-.13,0,0-.35-.56a.33.33,0,0,1,0-.38c.14-.23.3-.24.47,0l.37.46v0C35.38,25.6,35.36,25.51,35,25.89Z"/><path class="cls-3" d="M36.25,24.34c-.11.18-.16.18-.31,0l-.13-.14,0,0-.53-.5a.37.37,0,0,1,.14-.55c.07,0,.11,0,.15,0l.55.41,0,0C36.51,23.9,36.51,23.9,36.25,24.34Z"/><path class="cls-3" d="M31.52,27.78c-.07,0-.14.06-.22,0a.38.38,0,0,1,0-.08.56.56,0,0,1,0-.07h0a.8.8,0,0,0,0-.29,1.84,1.84,0,0,1,0-.83c0-.17.24-.16.39-.17s.15.13.16.22.06.41.09.61v0C32,27.66,32,27.66,31.52,27.78Z"/><path class="cls-3" d="M37.36,20.66c0,.1-.1.09-.17.07l-.28-.06h0l-.68-.19A.37.37,0,0,1,36,20a.18.18,0,0,1,.18-.07l.66.05h0c.08.05.17,0,.26,0s.17,0,.2.11A2.05,2.05,0,0,0,37.36,20.66Z"/><path class="cls-10" d="M37.36,20.66a.94.94,0,0,1,0-.54A2.43,2.43,0,0,1,37.36,20.66Z"/><path class="cls-11" d="M31.3,27.67h0a.66.66,0,0,0,0,.1l0,0c0-.09,0-.18,0-.27v-.12A.57.57,0,0,1,31.3,27.67Z"/><path class="cls-12" d="M37.13,18.75a.1.1,0,0,1-.1,0l-.18,0h0a.64.64,0,0,1,.18,0A.22.22,0,0,1,37.13,18.75Z"/><path class="cls-3" d="M30.33,27.5h-.1l0,0h0A.11.11,0,0,1,30.33,27.5Z"/><path class="cls-3" d="M12.27,23.38l0,.05,0,0c-.06.05-.15,0-.23,0s-.31,0-.34.22a.17.17,0,0,0,.14.23c.11,0,.24,0,.31.15h0a.11.11,0,0,1,0,0l0,0-.3.88h0c-.11,0-.19-.08-.28-.11s-.25,0-.32.1,0,.22.1.31.17.08.18.19a.16.16,0,0,1,0,0,3.88,3.88,0,0,1-.63.76h0c-.11,0-.16-.1-.23-.16s-.22-.12-.34,0a.2.2,0,0,0,0,.32.54.54,0,0,1,.14.27v0l-.68.38-.21.09h0c-.1,0-.1-.12-.13-.18s-.17-.23-.32-.17-.18.14-.13.34a.21.21,0,0,1,0,.22l0,0a2.91,2.91,0,0,1-.73.15.55.55,0,0,0-.21,0h0c-.09-.08-.06-.2-.07-.3s-.09-.22-.24-.22-.21.08-.21.22,0,.23-.15.26H7.11a2.47,2.47,0,0,1-.82-.15l0,0c-.09-.08,0-.18,0-.27s0-.23-.11-.29a.21.21,0,0,0-.32.11c0,.08-.09.18-.19.22h0a7.47,7.47,0,0,1-.86-.46h0c0-.11.09-.17.14-.25s.09-.24,0-.37-.23,0-.33.06-.11.15-.22.13h0a3.12,3.12,0,0,1-.61-.73.15.15,0,0,1,0,0c0-.1.11-.13.18-.19s.19-.15.1-.3-.14-.16-.34-.1-.17.12-.28.1h0a4,4,0,0,0-.21-.57L3,24.16a.22.22,0,0,1,0-.07c0-.09.12-.12.21-.15s.19-.09.19-.23-.06-.22-.22-.22H3a.21.21,0,0,1-.2,0l0,0a.29.29,0,0,1,0-.12,3.4,3.4,0,0,1,0-.82l0,0h0c.08-.06.19,0,.28,0s.25,0,.27-.17a.23.23,0,0,0-.2-.29A.36.36,0,0,1,3,21.81H3v0a.45.45,0,0,1,0-.29,1.83,1.83,0,0,1,.27-.6h0c.12,0,.22,0,.31.08a.21.21,0,0,0,.3-.11.19.19,0,0,0-.08-.29.43.43,0,0,1-.22-.23h0a1.6,1.6,0,0,1,.62-.75h0c.13,0,.18.13.26.2a.21.21,0,0,0,.32,0,.2.2,0,0,0,0-.3.54.54,0,0,1-.14-.28h0v0c.14-.22.39-.28.6-.4a.47.47,0,0,1,.26-.09h0c.11.07.14.2.21.3a.2.2,0,0,0,.29.08c.13-.06.14-.14.12-.26s-.11-.22,0-.34h0l0,0a2.1,2.1,0,0,1,1-.14h0a.64.64,0,0,1,.09.32.2.2,0,0,0,.23.18.19.19,0,0,0,.21-.2.36.36,0,0,1,.1-.3h0a1.85,1.85,0,0,1,.92.15l0,0h0a.38.38,0,0,1,0,.31A.21.21,0,0,0,9,19c.14.06.22,0,.29-.11s.09-.2.18-.27h0a1.67,1.67,0,0,1,.87.49h0a.48.48,0,0,1-.13.28c-.08.11-.1.21,0,.31s.2.1.34,0,.14-.18.27-.17h0a1.64,1.64,0,0,1,.63.75h0c0,.12-.15.16-.23.23s-.15.14-.07.26.14.21.31.15.2-.13.32-.09h0a2.08,2.08,0,0,1,.34.91h0c-.06.1-.17.11-.27.14s-.23.09-.2.25.12.19.26.19.23,0,.31.06v0l0,.05A3.88,3.88,0,0,1,12.27,23.38Z"/><path class="cls-4" d="M5.63,18.63h0a3.92,3.92,0,0,0-.85.51H4.72c-.08-.05-.12-.18-.23-.15s-.22.15-.32.24,0,.11,0,.17.1.08.09.15v0a3.21,3.21,0,0,0-.62.73l0,0c-.05,0-.09,0-.13,0s-.19,0-.25.06l-.1.17c-.07.12-.08.22.08.27s.09,0,.08.09v0a3.14,3.14,0,0,0-.32.89H3l0,0a.18.18,0,0,1-.12,0c-.21,0-.21,0-.26.26s0,.26.15.28a.13.13,0,0,1,.1.06h0a6.43,6.43,0,0,0,0,.9.25.25,0,0,1,0,.09,0,0,0,0,1,0,0c-.18,0-.23.15-.28.28v0c-.29,0-.29-.06-.25-.34.08-.6.14-1.2.21-1.79h0l.19-1.42c0-.15,0-.29.05-.44a.42.42,0,0,1,.18-.3c.47-.35,1-.62,1.46-.95a1.07,1.07,0,0,1,.47-.07,3.44,3.44,0,0,0,.67,0h0C5.63,18.45,5.64,18.54,5.63,18.63Z"/><path class="cls-3" d="M3.46,23.74a.21.21,0,0,1-.18.23c-.1,0-.21,0-.26.14l0,.05c0-.08-.06-.08-.13-.07-.26,0-.26,0-.31-.21a.66.66,0,0,0,0-.11v0c0-.16,0-.31.25-.28a.06.06,0,0,0,.07,0,.46.46,0,0,0,0-.07c.05.17.19.08.28.08C3.4,23.42,3.46,23.47,3.46,23.74Z"/><path class="cls-3" d="M5,26.41a2.28,2.28,0,0,1-.22.33v0l-.07.11s0,.05,0,.06c-.25.13-.3-.14-.45-.22s-.13-.14,0-.24.14-.07.12-.18h0c.12,0,.17-.14.25-.21s.19-.13.29,0S5.08,26.22,5,26.41Z"/><path class="cls-3" d="M7.85,27.94l0,0H7.24a.24.24,0,0,1,0-.21c0-.09,0-.15-.1-.15l0,0a.26.26,0,0,0,.12-.26c0-.22,0-.26.26-.27s.27,0,.29.27,0,.19,0,.29v0C7.85,27.75,7.89,27.85,7.85,27.94Z"/><path class="cls-3" d="M6.31,27.09c0,.11-.09.22,0,.34l0,0c-.12,0-.09.11-.11.17s-.1.16-.22.11l-.14-.05c-.3-.11-.3-.11-.2-.41,0,0,0,0,0-.07l0,0a1.18,1.18,0,0,0,.19-.28c.06-.16.2-.13.33-.08S6.35,26.92,6.31,27.09Z"/><path class="cls-3" d="M3.93,25.32a2.06,2.06,0,0,0-.27.23l0,0H3.59c-.09,0-.17.2-.28.11A.76.76,0,0,1,3,25.21c0-.13.14-.14.25-.17l0,0,.24-.12c.26-.1.38,0,.46.22C4.06,25.23,4,25.28,3.93,25.32Z"/><path class="cls-3" d="M2,18v4.48H2a5.93,5.93,0,0,1-.95,0H1l.08,0h0a2.53,2.53,0,0,1,.62,0c.19,0,.27-.06.23-.24s.09-.34-.07-.49.1-.18,0-.29a.21.21,0,0,1,0-.13q0-1.3,0-2.61v-.24a.27.27,0,0,1,0-.11h0C2,18.26,2,18.15,2,18Z"/><path class="cls-3" d="M2,22.49a3.29,3.29,0,0,1-.95,0Z"/><path class="cls-3" d="M9.47,10.91h0q0-2.21,0-4.42h0Z"/><path class="cls-3" d="M8.51,5.66V2.46h0V5.67Z"/><path class="cls-3" d="M1.94,18.33v3.11a.12.12,0,0,1,0-.1c0-1.09,0-2.18,0-3.27Z"/><path class="cls-4" d="M14.74,24.29s0,0-.1,0l-2.22-.13,0,0v0h0c0-.11.05-.22.08-.34s0-.25-.16-.26a.1.1,0,0,1-.09-.05v0a5.53,5.53,0,0,0,0-.94h0v0s.07-.06.11-.08.17-.09.12-.39c0-.14-.09-.18-.23-.16a.14.14,0,0,1-.11,0h0a4.48,4.48,0,0,0-.34-.9v0c0-.06.05-.08.1-.1s.13-.14.06-.24l-.05-.1c-.12-.21-.13-.21-.35-.11,0,0-.06,0-.08,0l0,0a3,3,0,0,0-.62-.74v0c0-.07.06-.1.09-.15s.06-.11,0-.16A1.25,1.25,0,0,0,10.6,19c-.07,0-.12,0-.16.06s-.05.11-.12.1h0a3.88,3.88,0,0,0-.85-.5h0v0c0-.09.1-.19,0-.27a.9.9,0,0,0-.37-.15c-.07,0-.1,0-.13.09s0,.14-.1.15h0a3.37,3.37,0,0,0-.93-.16h0c-.06,0,0-.09,0-.14s-.06-.2-.19-.2H7.48c-.15,0-.26,0-.22.23a.1.1,0,0,1,0,.1h0a7.84,7.84,0,0,0-1,.16h0c-.07-.1-.11-.23-.24-.27h0c.05-.21-.1-.37-.13-.56a1.16,1.16,0,0,0-.06-.18l0,0a1.06,1.06,0,0,1,.57-.09,8.55,8.55,0,0,1,3.58.62,8.17,8.17,0,0,1,2.42,1.55,7.56,7.56,0,0,1,2.09,3.26,5.58,5.58,0,0,1,.29,1.46A.31.31,0,0,1,14.74,24.29Z"/><path class="cls-13" d="M20.58,23.74l0,0a.79.79,0,0,1-.2,0H15.43c-.17,0-.22,0-.2.21.06.4.05.4-.36.38l-.23,0,0,0c.07-.1,0-.21,0-.31A6.74,6.74,0,0,0,14,21.68,7.56,7.56,0,0,0,12.8,20a8.07,8.07,0,0,0-1.91-1.55,8,8,0,0,0-2.19-.86,8.93,8.93,0,0,0-2.18-.23,5,5,0,0,0-.72.07H5.75c0-.11-.11-.22-.14-.34s0-.2.14-.21A8.41,8.41,0,0,1,7,16.78a9.07,9.07,0,0,1,2.92.58,9.61,9.61,0,0,1,1.47.72.35.35,0,0,0,.18.06.09.09,0,0,0,0,0s.06.06.09.08a8.22,8.22,0,0,1,2.28,2.25,8.14,8.14,0,0,1,1,2c.13.38.19.78.3,1.17a.3.3,0,0,1,.15,0h5a.35.35,0,0,1,.15,0Z"/><path class="cls-4" d="M10.73,15.92c-.16,0-.21,0-.24-.19-.27-1.19-.55-2.38-.82-3.58,0-.08-.1-.18,0-.22a.23.23,0,0,1,.33.16c.11.46.23.93.33,1.39.17.72.33,1.44.49,2.17l0,.09C10.91,15.87,10.9,16,10.73,15.92Z"/><path class="cls-4" d="M14.12,11.93c.13,0,.18,0,.21.17l.83,3.64c0,.07.08.18,0,.18s-.27.1-.31-.1c-.28-1.24-.57-2.48-.86-3.71C13.89,11.91,14,11.93,14.12,11.93Z"/><path class="cls-4" d="M12.85,15.92c-.14,0-.19,0-.21-.17l-.71-3.14-.12-.51c0-.06-.06-.16.05-.17s.25-.08.3.08a3.75,3.75,0,0,1,.09.38c.26,1.11.51,2.22.77,3.33C13.06,15.9,13,16,12.85,15.92Z"/><path class="cls-4" d="M13.94,15.92c-.16,0-.21,0-.24-.18-.27-1.21-.55-2.41-.82-3.61,0-.07-.07-.19,0-.18s.28-.07.32.12c.17.73.34,1.47.51,2.2.11.49.22,1,.34,1.47C14.13,15.88,14.12,16,13.94,15.92Z"/><path class="cls-4" d="M9.65,15.92c-.14,0-.2,0-.23-.16-.27-1.21-.56-2.41-.83-3.62,0-.06-.09-.19,0-.19s.3-.11.35.12.1.44.15.66c.23,1,.45,2,.68,3C9.83,15.88,9.83,16,9.65,15.92Z"/><path class="cls-4" d="M10.9,12c.22-.08.19.08.22.21.18.78.36,1.56.54,2.33l.28,1.22c0,.07.08.19-.06.19s-.26.08-.31-.12c-.11-.49-.23-1-.34-1.47-.16-.72-.32-1.43-.49-2.15C10.71,12,10.68,11.91,10.9,12Z"/><path class="cls-3" d="M5.94,18.13c.2,0,.22,0,.27.27l.07.28c.07.26,0,.36-.26.41a.17.17,0,0,1-.19-.1l-.21-.37-.11-.23c0-.14.1-.16.19-.19Z"/><path class="cls-14" d="M16.39,17.71q0-3.17,0-6.34c0-.07,0-.16,0-.22q0,3.34,0,6.68S16.39,17.75,16.39,17.71Z"/><path class="cls-6" d="M16.35,17.91a1.51,1.51,0,0,1-.5,0,0,0,0,0,0,0,0,1.16,1.16,0,0,1,.29,0,1.3,1.3,0,0,0-.29,0h-.28a.77.77,0,0,1,.41-.08c.06,0,.14,0,.19,0S16.32,17.79,16.35,17.91Z"/><path class="cls-3" d="M22.84,18.1c.16.19.41.24.6.37s.21.18.16.35-.12.29-.38.19l-.58-.21h0c-.43-.21-.43-.21-.29-.68,0-.14.12-.19.26-.12A.59.59,0,0,0,22.84,18.1Z"/><path class="cls-3" d="M35.06,15.5a1.49,1.49,0,0,0-.52.28c-.26.16-.36.15-.57-.08a.16.16,0,0,1,0-.26,5.76,5.76,0,0,0,.46-.38s.06-.06,0-.11.19-.06.26-.13a.2.2,0,0,1,.32,0l.06.07c.29.28.29.28,0,.52A.35.35,0,0,0,35.06,15.5Z"/><path class="cls-3" d="M36.12,17a1.92,1.92,0,0,0-.67.15.35.35,0,0,1-.46-.35c0-.08.06-.11.12-.13l.53-.24s.09,0,.09-.09a.42.42,0,0,0,.27-.07c.13-.07.23-.06.3.09s.08.15.13.22.1.29-.15.34C36.22,17,36.15,17,36.12,17Z"/><path class="cls-3" d="M26.41,13.91a3.51,3.51,0,0,0,.17.67.36.36,0,0,1-.32.46.16.16,0,0,1-.17-.12c-.06-.15-.13-.31-.19-.46s0-.14-.13-.15c.06-.11,0-.18-.06-.26a.21.21,0,0,1,.11-.33c.14-.06.25-.23.41-.17S26.31,13.8,26.41,13.91Z"/><path class="cls-3" d="M22.49,20c.24.1.49.13.74.21s.22.18.19.4-.16.16-.28.16l-.49-.06a.2.2,0,0,0-.15,0c-.08-.06-.19,0-.28-.07h-.1c-.1,0-.16-.35-.1-.59s.16-.12.26-.1Z"/><path class="cls-3" d="M23.62,16.4l.53.54c.13.14.12.31,0,.48s-.22,0-.32,0a2.32,2.32,0,0,0-.51-.33c0-.11-.14-.14-.22-.21a.17.17,0,0,1-.06-.25l.1-.19c.19-.31.19-.31.46-.06Z"/><path class="cls-3" d="M28.2,13.26a2.74,2.74,0,0,0,0,.73.34.34,0,0,1-.4.33c-.1,0-.13-.1-.15-.2a2.21,2.21,0,0,0-.15-.65c.07-.09,0-.17,0-.26s0-.28.21-.31.28-.13.41-.07.05.25.09.37Z"/><path class="cls-3" d="M31.92,13.44c-.17.2-.25.46-.4.67a.22.22,0,0,1-.25.12c-.31-.07-.36-.15-.23-.45a1.09,1.09,0,0,0,.16-.5c.11-.06.1-.19.15-.28s.14-.16.27-.11a1.88,1.88,0,0,0,.3.08c.15,0,.2.11.11.25S32,13.37,31.92,13.44Z"/><path class="cls-3" d="M24.85,15c.12.22.25.45.38.67s0,.28-.15.39-.2,0-.29-.05-.25-.37-.44-.5c0-.12-.13-.17-.18-.27a.18.18,0,0,1,0-.26l.24-.25c.11-.12.19-.1.27,0S24.8,14.91,24.85,15Z"/><path class="cls-3" d="M33.64,14.29c-.05,0-.07,0-.11,0l-.42.43a.36.36,0,0,1-.55-.07.18.18,0,0,1,0-.18,3.46,3.46,0,0,1,.3-.42.4.4,0,0,0,.09-.19c.1,0,.14-.15.2-.23a.19.19,0,0,1,.28,0l.07,0c.1.07.26.09.31.21s-.12.2-.18.3A.15.15,0,0,0,33.64,14.29Z"/><path class="cls-3" d="M30.06,13.13a2.54,2.54,0,0,0-.2.66.35.35,0,0,1-.53.2c-.1-.08-.06-.19,0-.29a2.42,2.42,0,0,0,0-.57s0-.09,0-.14a2,2,0,0,1,0-.21c0-.12.32-.18.61-.12s.1.15.09.24S30,13,30.06,13.13Z"/><path class="cls-15" d="M20.57,23.73H15.23c.05-.06.12,0,.18,0h5C20.47,23.69,20.53,23.67,20.57,23.73Z"/><path class="cls-1" d="M21.77,12.22a.37.37,0,1,1-.67.3l-.51-1.15c0-.08-.06-.13-.17-.08l-2.08.93a3.19,3.19,0,0,1,.43,1.94c0,.38,0,.77,0,1.16-.07-.07-.05-.17-.05-.26,0-.45,0-.89,0-1.34a2.33,2.33,0,0,0-.3-1.22.75.75,0,0,1-.09-.23.14.14,0,0,1,0-.07h0a.28.28,0,0,1,.13-.09c.63-.3,1.26-.56,1.9-.85a.19.19,0,0,1,.28.11c.15.32.29.64.43,1a1.14,1.14,0,0,0,.14.26.31.31,0,0,0,.4.1.33.33,0,0,0,.14-.39c-.12-.32-.27-.62-.4-.93-.3-.68-.61-1.36-.91-2a2.65,2.65,0,0,0-.14-.28.29.29,0,0,0-.39-.14.32.32,0,0,0-.17.4c.09.24.2.48.31.71s.13.32.22.48a.16.16,0,0,1-.08.25c-.66.29-1.31.59-2,.87a.19.19,0,0,1-.11,0h0c-.1,0-.13-.12-.17-.2s-.08-.18-.12-.27a.3.3,0,0,0-.34-.21c-.09,0-.21,0-.28-.08a.52.52,0,0,0,.15,0c.33-.07.49.08.57.38a2.24,2.24,0,0,0,.17.36h0l2-.9c.12-.05.15-.09.09-.22-.17-.37-.33-.74-.5-1.11a.37.37,0,1,1,.68-.3Z"/><path class="cls-1" d="M18.25,3.77c0-.11.12-.05.18-.05h6.22c.07,0,.14,0,.21,0H18.47C18.4,3.74,18.32,3.71,18.25,3.77Z"/><path class="cls-1" d="M30.4,3.73H25.29s.1,0,.14,0h4.84S30.37,3.7,30.4,3.73Z"/><path class="cls-4" d="M18.77,14.17c0,.38,0,.77,0,1.16H17.15c-.11,0-.14,0-.14-.15,0-1,0-2,.11-3,0-.44,0-.87.07-1.31a.52.52,0,0,0,.15,0c.33-.07.49.08.57.38a2.24,2.24,0,0,0,.17.36h0a1.17,1.17,0,0,1,.25.56v0A3.19,3.19,0,0,1,18.77,14.17Z"/><path class="cls-16" d="M24.86,3.73H18.47c-.07,0-.16,0-.22,0s0-.06,0-.07h6.39C24.72,3.69,24.8,3.66,24.86,3.73Z"/><path class="cls-16" d="M30.41,3.71v0H25.29c0-.06.09,0,.14,0h5Z"/><path class="cls-17" d="M14.91,2.14c.06-.06.13,0,.2,0H30.56c.07,0,.14,0,.2,0h-.31a.42.42,0,0,1-.21,0H15.12A.41.41,0,0,1,14.91,2.14Z"/><path class="cls-18" d="M14.91,2.14H30.45c-.07.07-.16,0-.24,0H14.91Z"/><path class="cls-19" d="M30.71,2h-16V2h16Z"/><path class="cls-3" d="M28.39,26.79l-.23.56v0c-.19.48-.13.44-.61.31-.25-.07-.26-.1-.13-.33,0-.06.05-.11.08-.17v0l.36-.61c.1-.17.23-.19.46-.09S28.44,26.67,28.39,26.79Z"/><path class="cls-3" d="M25.34,25.26c-.17.12-.33.26-.5.39l0,0c-.42.37-.35.27-.69-.06-.15-.14-.14-.21,0-.32l.17-.09,0,0,.68-.4c.14-.08.3,0,.4.19S25.45,25.18,25.34,25.26Z"/><path class="cls-3" d="M26.83,26.11a4.58,4.58,0,0,1-.44.62h0l0,0c-.26.38-.26.38-.71.11-.14-.09-.16-.17,0-.29l.16-.17,0,0,.51-.52a.36.36,0,0,1,.54.12A.13.13,0,0,1,26.83,26.11Z"/><path class="cls-3" d="M23.45,22.42c-.2,0-.4.07-.6.1h-.14c-.12,0-.28.11-.36,0a1.12,1.12,0,0,1-.14-.53c0-.08.06-.11.13-.11h1c.2,0,.28.08.3.32S23.61,22.41,23.45,22.42Z"/><path class="cls-3" d="M24.26,23.94c-.21.1-.41.2-.63.28l-.06,0-.19.09a.19.19,0,0,1-.3-.1,2.75,2.75,0,0,0-.15-.27c-.08-.13,0-.22.1-.26l.23-.05h0l.62-.19c.25-.08.36,0,.46.22A.17.17,0,0,1,24.26,23.94Z"/><path class="cls-3" d="M9.21,27.71c-.26.09-.26.09-.35-.17,0,0,0-.09-.08-.08h0l0,0c.1-.1,0-.21,0-.3a.24.24,0,0,1,.19-.3c.15-.05.28-.05.35.12a1.07,1.07,0,0,0,.14.27h0C9.55,27.59,9.55,27.59,9.21,27.71Z"/><path class="cls-3" d="M11.94,25.42l0,.07c-.15.27-.15.27-.41.1l-.07,0,0,0a1.56,1.56,0,0,0-.22-.18c-.11-.09-.19-.18-.1-.34s.17-.23.35-.16a2.58,2.58,0,0,1,.3.13l0,0C12.08,25.14,12.09,25.16,11.94,25.42Z"/><path class="cls-3" d="M10.77,26.83c-.25.21-.25.21-.43-.08v0a3.49,3.49,0,0,1-.24-.34c-.08-.15,0-.24.14-.32a.21.21,0,0,1,.3,0l.27.25h0C11,26.6,11,26.6,10.77,26.83Z"/><path class="cls-20" d="M12.43,24.12v.07l-.34,0v-.09h0a.28.28,0,0,1,.3,0Z"/><path class="cls-21" d="M25,20.34A4.7,4.7,0,1,1,29.72,25,4.7,4.7,0,0,1,25,20.34Z"/><path class="cls-21" d="M4.94,22.64a2.48,2.48,0,0,1,1.31-2,2.62,2.62,0,1,1-1.31,2.7,1.06,1.06,0,0,1,0-.14C4.94,23,4.94,22.84,4.94,22.64Z"/><path class="cls-3" d="M3.3,20.9s0,0,0-.06c-.27-.14-.27-.14-.12-.4l.08-.13c.08-.15.19-.18.32-.05s.07.06.12.05a.73.73,0,0,0,.27.24c.14.08.13.2.06.31s-.12.26-.31.17A.94.94,0,0,0,3.3,20.9Z"/><path class="cls-3" d="M8.82,18.42c.17-.33.17-.33.43-.23s.35.12.19.46c0,.09-.08.17-.13.26-.14.24-.17.25-.43.14s-.16-.11-.12-.24A.91.91,0,0,0,8.82,18.42Z"/><path class="cls-3" d="M4.26,19.57c-.22-.31-.22-.31,0-.48s.27-.22.51.06a1.58,1.58,0,0,0,.18.29.19.19,0,0,1,0,.3c-.11.08-.21.22-.38.07S4.39,19.61,4.26,19.57Z"/><path class="cls-3" d="M11.42,20.31h.06c.28-.17.28-.17.45.12a1,1,0,0,0,.06.12c.1.13.05.21-.08.26s-.11,0-.14.09-.24.09-.36.13-.25-.13-.34-.24,0-.17.08-.24S11.36,20.42,11.42,20.31Z"/><path class="cls-3" d="M12.11,21.79c.35,0,.35,0,.42.3s0,.26-.21.33l-.1.05a.78.78,0,0,0-.4,0c-.21,0-.2-.16-.23-.29a.18.18,0,0,1,.14-.23A1,1,0,0,0,12.11,21.79Z"/><path class="cls-3" d="M2.85,22.45c-.35-.09-.35-.09-.28-.47s.06-.24.29-.2H3a.68.68,0,0,0,.26.12c.22.07.24.1.21.37s-.15.18-.28.18Z"/><path class="cls-3" d="M10.29,19.14c.25-.26.25-.26.55,0s.18.19,0,.36l-.07.09c-.14,0-.2.13-.28.22s-.25,0-.36,0a.21.21,0,0,1-.06-.32A1.74,1.74,0,0,0,10.29,19.14Z"/><path class="cls-3" d="M12.43,24.12l-.35,0a.68.68,0,0,0-.3-.11c-.12,0-.22-.07-.19-.21s0-.33.26-.34.25.05.37,0c.34.11.34.11.29.48A.61.61,0,0,1,12.43,24.12Z"/><path class="cls-3" d="M7.22,18.25a.84.84,0,0,0,0-.13c0-.14,0-.22.17-.23H7.6c.24,0,.26,0,.25.26a.13.13,0,0,0,0,.12c-.09.09-.07.2-.08.31s0,.24-.21.24-.32,0-.33-.21S7.23,18.36,7.22,18.25Z"/><path class="cls-22" d="M4.94,22.64a1,1,0,0,1,0,.58A1.34,1.34,0,0,1,4.94,22.64Z"/><path class="cls-2" d="M15.83,17.89a.52.52,0,0,1,.32,0Z"/><path class="cls-3" d="M21.59,12.75a.37.37,0,0,1-.5-.23l-.51-1.15c0-.08-.06-.13-.17-.08l-2.08.93h0a4.24,4.24,0,0,1-.24-.57h0l2-.9c.12-.05.15-.09.09-.22-.17-.37-.33-.74-.5-1.11a.37.37,0,1,1,.68-.3l1.38,3.11A.37.37,0,0,1,21.59,12.75Z"/><path class="cls-3" d="M30.42,20.32a.72.72,0,0,1-.72.73.73.73,0,1,1,0-1.46A.72.72,0,0,1,30.42,20.32Z"/><path class="cls-3" d="M33.75,20.31a4.11,4.11,0,0,1-.27,1.46c0,.05,0,.18-.12.11s-.29,0-.21-.25A3.68,3.68,0,0,0,33.36,20a3,3,0,0,0-.21-.92c-.09-.22.1-.22.19-.28s.12.07.14.13A4,4,0,0,1,33.75,20.31Z"/><path class="cls-3" d="M29.23,16.49c0,.15,0,.18-.17.2a3.64,3.64,0,0,0-2.17,1.25.25.25,0,0,1-.39,0c0-.07,0-.09,0-.13a4,4,0,0,1,2.22-1.41l.28-.06C29.19,16.29,29.27,16.32,29.23,16.49Z"/><path class="cls-3" d="M30.28,16.32a4,4,0,0,1,2.6,1.5s.1.1,0,.13-.18.21-.31.07a4.47,4.47,0,0,0-.43-.45,3.66,3.66,0,0,0-1.81-.87.26.26,0,0,1-.15-.35S30.25,16.32,30.28,16.32Z"/><path class="cls-3" d="M32.94,22.75a4,4,0,0,1-1.84,1.37,3.22,3.22,0,0,1-.73.19c-.06,0-.19.1-.19,0s-.1-.27.14-.31a3.26,3.26,0,0,0,1-.33,3.66,3.66,0,0,0,1.09-.83C32.65,22.54,32.65,22.54,32.94,22.75Z"/><path class="cls-3" d="M29.13,24.31a3.82,3.82,0,0,1-2.21-1.06,4.62,4.62,0,0,1-.37-.4s-.14-.11,0-.16.17-.22.3-.06a4.21,4.21,0,0,0,.53.53,3.69,3.69,0,0,0,1.74.79s.08,0,.1,0S29.26,24.24,29.13,24.31Z"/><path class="cls-3" d="M25.68,20a3.61,3.61,0,0,1,.26-1.18c0-.09.07-.08.14,0s.22.15.15.35a3.57,3.57,0,0,0,0,2.47.26.26,0,0,1-.22.32c-.05,0-.06,0-.07-.08a3.44,3.44,0,0,1-.27-1.2A2.26,2.26,0,0,0,25.68,20Z"/><path class="cls-3" d="M32.2,19.09a.56.56,0,0,1-.56.55.57.57,0,0,1-.56-.56.56.56,0,0,1,.57-.56A.55.55,0,0,1,32.2,19.09Z"/><path class="cls-3" d="M28.32,19.09a.56.56,0,0,1-.56.55.58.58,0,0,1-.56-.56.56.56,0,0,1,.57-.56A.55.55,0,0,1,28.32,19.09Z"/><path class="cls-3" d="M30.26,18a.56.56,0,0,1-.58.53.56.56,0,1,1,.05-1.12A.56.56,0,0,1,30.26,18Z"/><path class="cls-3" d="M27.76,20.77a.56.56,0,0,1,0,1.11.56.56,0,1,1,0-1.11Z"/><path class="cls-3" d="M32.2,21.35a.55.55,0,0,1-.58.53.55.55,0,1,1,.05-1.11A.55.55,0,0,1,32.2,21.35Z"/><path class="cls-3" d="M29.7,23a.55.55,0,1,1,0-1.11.55.55,0,1,1,0,1.11Z"/><path class="cls-3" d="M29.13,24.31c.08-.09,0-.23.08-.31,0,.08,0,.18,0,.26S29.19,24.34,29.13,24.31Z"/><path class="cls-3" d="M25.68,20a1.11,1.11,0,0,1,0,.62A2.43,2.43,0,0,1,25.68,20Z"/><path class="cls-3" d="M6.83,23a.71.71,0,1,1,.71.7A.71.71,0,0,1,6.83,23Z"/><path class="cls-3" d="M8.91,22.54a.4.4,0,0,1-.4-.39.4.4,0,1,1,.8,0A.4.4,0,0,1,8.91,22.54Z"/><ellipse class="cls-3" cx="6.15" cy="22.15" rx="0.39" ry="0.4" transform="translate(-16.22 27.39) rotate(-87.66)"/><path class="cls-3" d="M6.15,24.13a.4.4,0,0,1-.39-.39.41.41,0,0,1,.4-.39.4.4,0,0,1,.4.41A.4.4,0,0,1,6.15,24.13Z"/><path class="cls-3" d="M8.91,24.13a.4.4,0,0,1-.4-.39.4.4,0,1,1,.8,0A.4.4,0,0,1,8.91,24.13Z"/><path class="cls-3" d="M7.14,24.52a.39.39,0,1,1,.37.42A.4.4,0,0,1,7.14,24.52Z"/><circle class="cls-3" cx="7.53" cy="21.35" r="0.39" transform="translate(-14.07 28.12) rotate(-87.96)"/></g></g></svg>