<svg id="vehicle" xmlns="http://www.w3.org/2000/svg" width="25.759" height="16.154" viewBox="0 0 25.759 16.154">
  <path id="Path_260" data-name="Path 260" d="M54.24,137.865v2.576h3.3s0-3.039,2.576-3.167a2.576,2.576,0,0,1,2.638,2.5,2.61,2.61,0,0,1-.068.663h7.211a3.507,3.507,0,0,1,.884-2.576H63.051a3.556,3.556,0,0,0-5.692,0Z" transform="translate(-54.24 -125.754)" fill="#010101"/>
  <path id="Path_261" data-name="Path 261" d="M57.4,101.19c-1.366,0-2.011,2.139-2.011,2.139l-.612,1.236-.516.643v3.428l2.808-.051a4.351,4.351,0,0,1,4.92-1.131V101.19Zm3.117,2.627-2.37.929a1.666,1.666,0,0,0-1.055,1.319v.7l-1.443-.025v-1.4l.637-1.907s.516-1.389,1.649-1.519h2.583Z" transform="translate(-54.256 -97.146)" fill="#010101"/>
  <path id="Path_262" data-name="Path 262" d="M77.152,144.12a2.007,2.007,0,1,0,1.422.588A2.011,2.011,0,0,0,77.152,144.12Zm0,3.015a1,1,0,1,1,1-1A1,1,0,0,1,77.152,147.135Z" transform="translate(-71.202 -131.987)" fill="#010101"/>
  <path id="Path_263" data-name="Path 263" d="M143.451,144.12a2.011,2.011,0,1,0,2.011,2.011A2.011,2.011,0,0,0,143.451,144.12Zm0,3.015a1,1,0,1,1,1.006-1A1,1,0,0,1,143.451,147.135Z" transform="translate(-125.009 -131.987)" fill="#010101"/>
  <path id="Path_264" data-name="Path 264" d="M162.23,144a2.86,2.86,0,0,1,.754,2.576h1.391V144Z" transform="translate(-141.881 -131.89)" fill="#010101"/>
  <path id="Path_265" data-name="Path 265" d="M105.824,93.709l-2.19,6.465-11.8-.1L89.492,91.8,88.1,91.52l-.232-.85,3.6.205.388,1.468,15.274.335.155.618Z" transform="translate(-81.533 -88.609)" fill="#0ba118"/>
  <path id="Path_266" data-name="Path 266" d="M119.31,82.743l4.843-3.013,4.894,3.478Z" transform="translate(-107.049 -79.73)" fill="#0ba118"/>
  <path id="Path_267" data-name="Path 267" d="M137.476,108.16h1.468l.155.156v.155h0v.188h.155v.207L139,109.3a.322.322,0,0,1-.188.283h-.565s-.155-.283-.232-.411v-.188l-.128-.258-.155-.256h-.13S137.45,108.186,137.476,108.16Z" transform="translate(-121.789 -102.803)" fill="#fff"/>
  <path id="Path_268" data-name="Path 268" d="M132.174,108.85l.232.309h0a.23.23,0,0,1,0,.309,1.056,1.056,0,0,1-.155.283v.13l-.309.514h-.565l-.437-.258h0v-.188h0l.205-.362h0v-.143a.7.7,0,0,1,.413-.232A.793.793,0,0,1,132.174,108.85Z" transform="translate(-116.487 -103.363)" fill="#fff"/>
  <path id="Path_269" data-name="Path 269" d="M145.287,116.441h0c.188-.188.232-.188.36,0h0l.188.309a1.717,1.717,0,0,1,.205.437.671.671,0,0,1,0,.413.614.614,0,0,1-.36.335,1.658,1.658,0,0,1-.386,0,.254.254,0,0,1-.283-.188l-.156-.283-.077-.335-.188-.283h0a2.818,2.818,0,0,1,.386-.258A2.061,2.061,0,0,1,145.287,116.441Z" transform="translate(-127.565 -109.409)" fill="#fff"/>
  <path id="Path_270" data-name="Path 270" d="M126.624,117.84h.7a2.293,2.293,0,0,1,.36,0,.377.377,0,0,1,.188.283h0a2.4,2.4,0,0,1,.258.413v.258c0,.1,0,0-.13,0h-.188v.188l-.258.437h0l-.188.335h0v-.13l-.247-.441-.232-.377h0v-.128a.26.26,0,0,1,0-.285h0l.155-.283h0v-.13a.217.217,0,1,1-.413-.128Z" transform="translate(-112.972 -110.653)" fill="#fff"/>
  <path id="Path_271" data-name="Path 271" d="M140.929,123.75h0a1.482,1.482,0,0,0,0,.258h1.34v.377l-.252.447h0a.36.36,0,0,1-.411.258h-.465c-.155,0-.155,0-.179.179a.758.758,0,0,1,0,.13h0l-.155-.285h0l-.335-.128h0a.283.283,0,0,1,0-.386l.232-.413h0l.128-.232S140.886,123.75,140.929,123.75Z" transform="translate(-124.161 -115.455)" fill="#fff"/>
  <path id="Path_272" data-name="Path 272" d="M129.733,128.4v.155h0S129.682,128.425,129.733,128.4Z" transform="translate(-115.489 -119.229)" fill="#fff"/>
  <path id="Path_273" data-name="Path 273" d="M130.914,126.078v-.188h1.031c.207,0,.207,0,.207.256V127c0,.077,0,.155-.155.155h-.644a.673.673,0,0,1-.439-.205v-.188a.639.639,0,0,1,0-.411Z" transform="translate(-116.439 -117.192)" fill="#fff"/>
</svg>
