<svg xmlns="http://www.w3.org/2000/svg" width="32.694" height="28.477" viewBox="0 0 32.694 28.477">
  <g id="ward_monitoring" transform="translate(1646.979 -1709.811)">
    <path id="Path_9" data-name="Path 9" d="M-1636.792,1754.053c-1.433.517-2.863,1.045-4.3,1.549a.878.878,0,0,0-.581.582c-1.371,3.63-2.756,7.254-4.13,10.883-.4,1.05-.832,2.087-1.176,3.158a1.349,1.349,0,0,0,.113-.122.38.38,0,0,0-.047.122c.133-.044.263-.1.4-.13q3.524-.874,7.05-1.737a.533.533,0,0,0,.465-.485q.324-1.785.689-3.564a.4.4,0,0,0-.288-.541c-.977-.41-1.945-.841-2.914-1.265a3.1,3.1,0,0,1-.437-.213.635.635,0,0,1-.228-.8.618.618,0,0,1,.747-.357,2.2,2.2,0,0,1,.332.129q1.361.608,2.722,1.22c.319.142.352.124.42-.228q.757-3.948,1.512-7.9C-1636.371,1753.961-1636.418,1753.918-1636.792,1754.053Zm.058.854q-.658,3.472-1.327,6.941c-.09.465-.164.51-.6.313q-1.243-.558-2.487-1.111a.829.829,0,0,0-1.181.368c-.211.418-.029.847.478,1.113.153.081.311.151.469.221.821.361,1.649.706,2.466,1.078.384.175.457.3.376.709-.2,1.018-.4,2.037-.59,3.056a.737.737,0,0,1-.62.647c-.873.207-1.742.431-2.612.65-1.362.343-2.733.652-4.092,1.01a.79.79,0,0,0-.366.149,1.571,1.571,0,0,0,.226-.406q1.077-2.833,2.152-5.668c.948-2.5,1.9-4.989,2.844-7.486a1.149,1.149,0,0,1,.713-.775c1.2-.42,2.4-.865,3.6-1.3.174-.063.377-.213.548-.06S-1636.7,1754.725-1636.734,1754.907Z" transform="translate(0 -31.937)" fill="#0ba118"/>
    <path id="Path_10" data-name="Path 10" d="M-1607.194,1778.489q0,2.155,0,4.311,0,2.14,0,4.279c0,.42-.023.44-.423.331-1.907-.518-3.813-1.044-5.723-1.555-.3-.079-.372-.211-.311-.508.244-1.185.472-2.373.7-3.562a.683.683,0,0,1,.354-.5c1.683-.994,3.361-2,5.042-3C-1607.241,1778.094-1607.195,1778.12-1607.194,1778.489Z" transform="translate(-24.083 -49.422)" fill="#0ba118"/>
    <path id="Path_11" data-name="Path 11" d="M-1604.31,1755.786c-.013.972-.007,1.945,0,2.918a.462.462,0,0,1-.224.462q-2.462,1.442-4.919,2.9a1.892,1.892,0,0,1-.232.092c.091-.5.169-.955.255-1.407q.608-3.2,1.22-6.4c.091-.476.109-.487.563-.3,1,.411,2,.829,3,1.23A.47.47,0,0,1-1604.31,1755.786Z" transform="translate(-26.961 -31.9)" fill="#0ba118"/>
    <path id="Path_12" data-name="Path 12" d="M-1579.3,1785.425c.166.944.287.786-.651,1.046-1.759.487-3.522.963-5.283,1.442-.422.115-.437.1-.437-.34q0-2.107,0-4.214t0-4.215c0-.112-.059-.27.064-.325s.208.086.3.154c1.226.9,2.454,1.806,3.67,2.724.242.184.4.178.6-.051a6.877,6.877,0,0,1,.523-.531c.082-.079.15-.225.278-.195s.112.2.132.3q.406,2.083.8,4.169C-1579.3,1785.4-1579.3,1785.414-1579.3,1785.425Z" transform="translate(-44.316 -49.884)" fill="#0ba118"/>
    <path id="Path_13" data-name="Path 13" d="M-1592.822,1724.5a.929.929,0,0,0-.3-.743,7.892,7.892,0,0,1-2.39-4.811,8.071,8.071,0,0,1,6.573-9.018,1.167,1.167,0,0,0,.466-.118c.125.169,0,.2-.126.228-.326.077-.657.129-.982.211a7.889,7.889,0,0,0-5.721,6.391,7.973,7.973,0,0,0,1.74,6.4,7.788,7.788,0,0,0,.65.678.794.794,0,0,1,.26.631c-.011.734,0,1.469-.007,2.2a.95.95,0,0,0,.425.852c1.068.773,2.112,1.577,3.179,2.351.407.3.529.294.861-.062,1.664-1.788,3.459-3.448,5.138-5.22a16.058,16.058,0,0,0,1.932-2.178,7.912,7.912,0,0,0-1.032-10.049,7.657,7.657,0,0,0-4.138-2.14c-.172-.031-.4.018-.486-.217l.013-.021.012-.018a.353.353,0,0,1,.034-.04l0,.055a8.021,8.021,0,0,1,7.037,7.076,7.707,7.707,0,0,1-2.145,6.491c-1.668,1.755-3.393,3.454-5.093,5.179-.478.485-.959.966-1.426,1.462a.326.326,0,0,1-.518.052q-1.851-1.4-3.722-2.765a.546.546,0,0,1-.242-.492C-1592.823,1726.079-1592.839,1725.29-1592.822,1724.5Z" transform="translate(-37.16)" fill="#0ba118"/>
    <path id="Path_14" data-name="Path 14" d="M-1552.615,1779.321c-.03-.1-.053-.209-.092-.31q-2.307-6.094-4.619-12.186c-.125-.331-.139-.335-.394-.076-1.253,1.27-2.5,2.543-3.759,3.807a.608.608,0,0,0-.185.608c.377,1.93.75,3.86,1.1,5.795a.594.594,0,0,0,.518.551q2.29.531,4.569,1.1c.932.233,1.878.408,2.792.708a.383.383,0,0,0-.033-.1A.984.984,0,0,0-1552.615,1779.321Zm-.552-.332c-2.183-.531-4.365-1.064-6.55-1.584a.853.853,0,0,1-.728-.777c-.31-1.755-.662-3.5-1-5.251a.878.878,0,0,1,.245-.854c1.121-1.14,2.214-2.306,3.359-3.421.267-.26.339-.247.467.09q2.155,5.679,4.307,11.36a2.446,2.446,0,0,0,.273.571A.9.9,0,0,0-1553.168,1778.989Z" transform="translate(-61.67 -41.033)" fill="#0ba118"/>
    <path id="Path_15" data-name="Path 15" d="M-1636.446,1754.357q-.755,3.949-1.512,7.9c-.067.351-.1.37-.42.228q-1.362-.609-2.722-1.22a2.2,2.2,0,0,0-.332-.129.618.618,0,0,0-.747.357.635.635,0,0,0,.228.8,3.1,3.1,0,0,0,.437.213c.97.425,1.938.855,2.914,1.265a.4.4,0,0,1,.288.541q-.368,1.776-.689,3.564a.533.533,0,0,1-.465.485q-3.528.855-7.05,1.737c-.135.033-.265.086-.4.13h-.065c.343-1.071.777-2.108,1.176-3.158,1.374-3.629,2.76-7.252,4.13-10.883a.878.878,0,0,1,.581-.582c1.438-.5,2.867-1.033,4.3-1.549C-1636.418,1753.918-1636.371,1753.961-1636.446,1754.357Z" transform="translate(0 -31.937)" fill="#0ba118"/>
    <path id="Path_16" data-name="Path 16" d="M-1580.483,1728.845a3.785,3.785,0,0,1,3.78-3.81,3.787,3.787,0,0,1,3.752,3.839,3.785,3.785,0,0,1-3.776,3.814A3.81,3.81,0,0,1-1580.483,1728.845Z" transform="translate(-48.076 -11.007)" fill="#0ba118"/>
    <path id="Path_17" data-name="Path 17" d="M-1579.684,1716.942a8.021,8.021,0,0,0-7.037-7.076.162.162,0,0,0-.038-.015,2.414,2.414,0,0,0-.273-.009h0a.223.223,0,0,1-.081-.031h-1.362a1.167,1.167,0,0,1-.466.118,8.071,8.071,0,0,0-6.573,9.018,7.892,7.892,0,0,0,2.39,4.811.929.929,0,0,1,.3.743c-.017.789,0,1.578-.008,2.367a.546.546,0,0,0,.242.492q1.867,1.374,3.722,2.765a.326.326,0,0,0,.518-.052c.468-.5.948-.977,1.426-1.462,1.7-1.725,3.425-3.424,5.093-5.179A7.707,7.707,0,0,0-1579.684,1716.942Zm-8.094-5.853a6.811,6.811,0,0,1,6.832,6.069,6.772,6.772,0,0,1-1.985,5.609c-1.462,1.5-2.943,2.986-4.416,4.477-.286.289-.288.289-.583-.01-1.465-1.484-2.935-2.963-4.393-4.454a6.857,6.857,0,0,1,1.934-11.1A6.034,6.034,0,0,1-1587.778,1711.089Z" transform="translate(-37.16)" fill="#0ba118"/>
    <path id="Path_18" data-name="Path 18" d="M-1552.615,1779.321h-.065c-.915-.3-1.861-.476-2.792-.708q-2.28-.569-4.569-1.1a.594.594,0,0,1-.518-.551c-.355-1.934-.728-3.865-1.1-5.795a.608.608,0,0,1,.185-.608c1.257-1.264,2.506-2.538,3.759-3.807.255-.258.269-.255.394.076q2.311,6.092,4.619,12.186C-1552.669,1779.112-1552.646,1779.218-1552.615,1779.321Z" transform="translate(-61.67 -41.033)" fill="#0ba118"/>
    <path id="Path_19" data-name="Path 19" d="M-1607.193,1782.8q0,2.14,0,4.279c0,.42-.023.44-.423.331-1.907-.518-3.813-1.044-5.723-1.555-.3-.079-.372-.211-.311-.508.244-1.185.472-2.373.7-3.562a.683.683,0,0,1,.354-.5c1.683-.994,3.361-2,5.042-3,.316-.188.363-.162.364.206Q-1607.19,1780.644-1607.193,1782.8Z" transform="translate(-24.083 -49.422)" fill="#0ba118"/>
    <path id="Path_20" data-name="Path 20" d="M-1579.952,1786.47c-1.759.487-3.522.963-5.283,1.442-.422.115-.437.1-.437-.34q0-2.107,0-4.214t0-4.215c0-.112-.059-.27.064-.325s.208.086.3.154c1.226.9,2.454,1.806,3.67,2.724.242.184.4.178.6-.051a6.877,6.877,0,0,1,.523-.531c.082-.079.15-.225.278-.195s.112.2.132.3q.406,2.083.8,4.169c0,.01,0,.021.005.031C-1579.135,1786.369-1579.014,1786.211-1579.952,1786.47Z" transform="translate(-44.316 -49.884)" fill="#0ba118"/>
    <path id="Path_21" data-name="Path 21" d="M-1604.313,1758.7a.462.462,0,0,1-.224.462q-2.462,1.442-4.919,2.9a1.892,1.892,0,0,1-.232.092c.091-.5.169-.955.255-1.407q.608-3.2,1.22-6.4c.091-.476.109-.487.563-.3,1,.411,2,.829,3,1.23a.47.47,0,0,1,.34.51C-1604.323,1756.758-1604.317,1757.731-1604.313,1758.7Z" transform="translate(-26.961 -31.9)" fill="#0ba118"/>
    <path id="Path_22" data-name="Path 22" d="M-1572.951,1728.874a3.785,3.785,0,0,1-3.776,3.814,3.81,3.81,0,0,1-3.756-3.843,3.785,3.785,0,0,1,3.78-3.81A3.787,3.787,0,0,1-1572.951,1728.874Z" transform="translate(-48.076 -11.007)" fill="#0ba118"/>
    <path id="Path_23" data-name="Path 23" d="M-1572.951,1728.874a3.785,3.785,0,0,1-3.776,3.814,3.81,3.81,0,0,1-3.756-3.843,3.785,3.785,0,0,1,3.78-3.81A3.787,3.787,0,0,1-1572.951,1728.874Z" transform="translate(-48.076 -11.007)" fill="#0ba118"/>
  </g>
</svg>
