<svg xmlns="http://www.w3.org/2000/svg" viewBox="0 0 37.55 45"><defs><style>.cls-1{fill:#414042;}.cls-2{fill:#47b549;}</style></defs><title>Asset 7</title><g id="Layer_2" data-name="Layer 2"><g id="Layer_1-2" data-name="Layer 1"><path class="cls-1" d="M4.44,38.79,6.3,43.07l1.75-4h.82L6.3,45,4.44,40.7,2.57,45,0,39H.82l1.76,4.09Z"/><path class="cls-1" d="M14.31,43.08h-3.2a1.18,1.18,0,0,0,.47.84,1.36,1.36,0,0,0,.81.27,1.42,1.42,0,0,0,1.13-.56l.57.44a2.08,2.08,0,0,1-1.74.84,1.89,1.89,0,0,1-1.4-.57,2,2,0,0,1-.56-1.43A1.91,1.91,0,0,1,11,41.53,1.86,1.86,0,0,1,12.35,41a1.9,1.9,0,0,1,1.39.59A2.14,2.14,0,0,1,14.31,43.08Zm-3.12-.63h2.29a1.21,1.21,0,0,0-1.13-.77A1.18,1.18,0,0,0,11.19,42.45Z"/><path class="cls-1" d="M16.3,39h.83L19,43.12,20.79,39h.84l-2.69,6Z"/><path class="cls-1" d="M22.54,41.87a2.88,2.88,0,0,1,.95-2.15,3.21,3.21,0,0,1,2.27-.89,3.09,3.09,0,0,1,2.23.9,2.86,2.86,0,0,1,.94,2.14A3,3,0,0,1,28,44.09a3.29,3.29,0,0,1-4.54,0A3,3,0,0,1,22.54,41.87Zm5.55,0a2.12,2.12,0,0,0-.69-1.61,2.37,2.37,0,0,0-1.7-.66,2.27,2.27,0,0,0-1.65.67,2.17,2.17,0,0,0-.68,1.6,2.12,2.12,0,0,0,.7,1.61,2.45,2.45,0,0,0,1.72.65,2.2,2.2,0,0,0,1.62-.67A2.16,2.16,0,0,0,28.09,41.91Z"/><path class="cls-1" d="M30.88,39h.78v5.8h-.78Z"/><path class="cls-1" d="M37.41,39.66l-.65.51a1.91,1.91,0,0,0-.46-.39,1.05,1.05,0,0,0-.59-.13,1.11,1.11,0,0,0-.69.19.58.58,0,0,0-.27.5.61.61,0,0,0,.23.46,3.15,3.15,0,0,0,.79.44,5.67,5.67,0,0,1,.87.45,2.08,2.08,0,0,1,.51.46,1.71,1.71,0,0,1,.3.52,1.92,1.92,0,0,1,.1.59A1.66,1.66,0,0,1,37,44.49a1.75,1.75,0,0,1-1.27.51,2.12,2.12,0,0,1-1.28-.4,2.41,2.41,0,0,1-.86-1.19l.79-.22a1.4,1.4,0,0,0,1.32,1,1,1,0,0,0,.72-.26.84.84,0,0,0,.29-.65.89.89,0,0,0-.15-.47,1.29,1.29,0,0,0-.38-.39,3.48,3.48,0,0,0-.71-.36,4.67,4.67,0,0,1-.74-.36,2,2,0,0,1-.46-.4,1.5,1.5,0,0,1-.28-.46,1.28,1.28,0,0,1-.09-.48,1.36,1.36,0,0,1,.5-1.06,1.76,1.76,0,0,1,1.22-.44,2.62,2.62,0,0,1,1,.2A2.07,2.07,0,0,1,37.41,39.66Z"/><path class="cls-2" d="M2.78,4.72c0,.82,2.67,11.71,3.54,12.63S11.24,19,12,19.52s7,12.12,7,12.12V29.39s-4.94-9.1-5-9.51c-.36-.52,3.43-4.18,3.72-4.92a35.84,35.84,0,0,0,.84-3.89c0-1.12-.79.4-1.77,3.37-.5,1.48-3.22,3.86-3.77,3.85A33,33,0,0,1,7.32,16.4a3.34,3.34,0,0,1-.7-2c.1-.59,3.19-3.59,2.83-3.95S6.5,13.11,6.22,12.94C5.85,12.94,3.46,4.72,2.78,4.72Z"/><path class="cls-2" d="M19,36.16V34.41A16.36,16.36,0,0,1,3.52,12.73l-.8-3a18.09,18.09,0,0,0,16,26.45H19"/><path class="cls-2" d="M19,1.74V0h-.21A18,18,0,0,0,5,6.32l.71,2.17A16.32,16.32,0,0,1,19,1.74Z"/><path class="cls-2" d="M35.15,4.72c0,.82-2.68,11.71-3.54,12.63S26.69,19,26,19.52s-7,12.12-7,12.12V29.39s4.95-9.1,5-9.51c.35-.52-3.43-4.18-3.72-4.92a35.84,35.84,0,0,1-.84-3.89c0-1.12.78.4,1.77,3.37.5,1.48,3.22,3.86,3.76,3.85A32.75,32.75,0,0,0,30.6,16.4a3.21,3.21,0,0,0,.7-2c-.1-.59-3.18-3.59-2.82-3.95s2.95,2.62,3.23,2.45C32.08,12.94,34.46,4.72,35.15,4.72Z"/><path class="cls-2" d="M19,36.16V34.41A16.33,16.33,0,0,0,35.3,18.08a16,16,0,0,0-.9-5.35l.81-3a18.09,18.09,0,0,1-16,26.45H19"/><path class="cls-2" d="M19,1.74V0h.21A18,18,0,0,1,32.91,6.32L32.2,8.49A16.32,16.32,0,0,0,19,1.74Z"/></g></g></svg>