<svg xmlns="http://www.w3.org/2000/svg" viewBox="0 0 35.02 55.34"><defs><style>.cls-1{fill:#fff;}.cls-2{fill:#1f85ea;}</style></defs><title>blue-location</title><g id="Layer_2" data-name="Layer 2"><g id="Layer_1-2" data-name="Layer 1"><circle class="cls-1" cx="17.03" cy="17.64" r="13.89"/><path class="cls-2" d="M35,17.19a19.77,19.77,0,0,0-.78-5.07,7.17,7.17,0,0,0-.44-1.52A19.58,19.58,0,0,0,30.88,6c-.34-.41-.74-.75-1.1-1.14l-.16-.16a17.85,17.85,0,0,0-4.35-3c-.51-.24-1-.45-1.56-.67s-1.33-.42-2-.61A20.87,20.87,0,0,0,19.22,0h-.44a.13.13,0,0,1-.18,0l0,0H16.62a.14.14,0,0,1-.2,0l0,0h-.54a9.16,9.16,0,0,1-1.27.15A17,17,0,0,0,5.83,4.39,17.36,17.36,0,0,0,.25,14.61a4.35,4.35,0,0,1-.1.52A15.3,15.3,0,0,0,0,18a3.53,3.53,0,0,0,0,.65A23.86,23.86,0,0,0,1.2,23.43c.21.55.38,1.11.57,1.67.67,1.78,1.42,3.53,2.16,5.28.27.52.5,1.05.73,1.59.46.87.83,1.79,1.28,2.67A26,26,0,0,1,7.12,37a.82.82,0,0,0,.12.2c.31.42.39,1,.82,1.34l2.65,5a2.59,2.59,0,0,0,.71,1.32c.92,1.61,1.83,3.23,2.74,4.84A2.93,2.93,0,0,0,15,51.05l2.61,4.29c.12-.19.21-.32.29-.46,2.56-4.26,5-8.56,7.39-13L27,38.81a27.8,27.8,0,0,0,2.15-4.12v-.21l.18-.44c1.15-2.42,2.26-4.85,3.26-7.33.66-1.63,1.17-3.32,1.75-5a2.31,2.31,0,0,0,.34-.79A8.42,8.42,0,0,0,35,18.58Zm-4.29,3.2a13.3,13.3,0,0,1-8.86,9.83,12.21,12.21,0,0,1-5.9.59,6.78,6.78,0,0,1-2-.41,11.7,11.7,0,0,1-4.1-1.89c-.31-.21-.59-.46-.88-.69a5.86,5.86,0,0,1-1.17-1.11A11.52,11.52,0,0,1,5,22.2a7.84,7.84,0,0,1-.61-2,13.24,13.24,0,0,1,.92-8.32,1.76,1.76,0,0,1,.14-.23,12.65,12.65,0,0,1,6.26-6.29,12.82,12.82,0,0,1,7.82-1.23,4.48,4.48,0,0,1,.94.19,6.07,6.07,0,0,1,1.67.5,11.79,11.79,0,0,1,4.61,2.83,5.6,5.6,0,0,1,1.11,1.17,12.08,12.08,0,0,1,2.58,4.84,6.46,6.46,0,0,1,.41,1.89A11.78,11.78,0,0,1,30.73,20.39Z"/><path class="cls-2" d="M13.92,23.55A4.23,4.23,0,0,0,17.17,25,24,24,0,0,0,20,24.91,2.55,2.55,0,0,0,21,24.5a1.53,1.53,0,0,0,.67-1.56c0-.16,0-.26.13-.36a34.7,34.7,0,0,1,3.88-2.11,2.53,2.53,0,0,1,.55-.18,1,1,0,0,1,1.11,1.54A3.72,3.72,0,0,1,26.08,23c-2.29,1.38-4.59,2.74-6.87,4.13a2.49,2.49,0,0,1-2.2.24,33,33,0,0,1-4-1.48A1.94,1.94,0,0,0,11,26c-.24.16-.51.3-.76.47s-.32.11-.42-.11C9,24.79,8.26,23.21,7.49,21.63c-.07-.15-.13-.29.08-.38a30.4,30.4,0,0,1,3.94-1.55,2.86,2.86,0,0,1,2.33.38c.77.47,1.51,1,2.23,1.52a4.32,4.32,0,0,0,2.34.81l1.58.1a1.31,1.31,0,0,1,.55.17.66.66,0,0,1,0,1.13,1.93,1.93,0,0,1-1.05.32A22.14,22.14,0,0,1,15.86,24a8.56,8.56,0,0,1-1.55-.45A.52.52,0,0,0,13.92,23.55Z"/><path class="cls-2" d="M21.25,10.07a11.15,11.15,0,0,1,.66,2.27,14.06,14.06,0,0,1,0,2.9,10.41,10.41,0,0,1-.42,2.41c-.06.2,0,.27.17.33a1.25,1.25,0,0,1,.71.64c.12.25.24.24.47.15a1.84,1.84,0,0,1,2.24.79c.13.24.12.37-.14.51-1.08.58-2.14,1.17-3.21,1.76a.3.3,0,0,1-.37,0,1.63,1.63,0,0,0-1.11-.31,5.51,5.51,0,0,1-2.28-.23A6.49,6.49,0,0,1,16,20.1c-.29-.26-.28-.45,0-.73a1.15,1.15,0,0,1,1-.32.33.33,0,0,0,.39-.19,1.23,1.23,0,0,1,1.76-.35c.2.15.29.15.41-.06a1.11,1.11,0,0,1,.62-.47.87.87,0,0,0,.63-.69c.24-.79.25-.8-.55-.79a4.89,4.89,0,0,1-2.11-.32,2.58,2.58,0,0,1-1.39-2.85,6.85,6.85,0,0,1,2.11-4A4.61,4.61,0,0,0,20,7.54c0-.14.11-.18.23-.09a15.56,15.56,0,0,1,4,3.35,4.11,4.11,0,0,1-.06,4.95,2,2,0,0,1-1.33.71c-.2,0-.26,0-.24-.26a14.88,14.88,0,0,0-.07-3.59,5.28,5.28,0,0,0-1.14-2.55c0-.05,0-.16-.11-.16a.13.13,0,0,1-.06,0,.07.07,0,0,0,0,.05C21.23,10,21.23,10,21.25,10.07Z"/></g></g></svg>