<svg xmlns="http://www.w3.org/2000/svg" viewBox="0 0 35 55.34"><defs><style>.cls-1{fill:#22db14;}.cls-2{fill:#fff;}</style></defs><title>circle-petrol</title><g id="Layer_2" data-name="Layer 2"><g id="Layer_1-2" data-name="Layer 1"><path class="cls-1" d="M35,17.19a19.7,19.7,0,0,0-.78-5.07c0-.56-.33-1-.44-1.52A19.37,19.37,0,0,0,30.86,6c-.34-.41-.74-.75-1.1-1.14l-.16-.16a17.74,17.74,0,0,0-4.35-3c-.51-.24-1-.45-1.56-.67s-1.33-.42-2-.61A23.12,23.12,0,0,0,19.2,0h-.44a.13.13,0,0,1-.21,0H16.6a.14.14,0,0,1-.22,0h-.54a10.49,10.49,0,0,1-1.27.15A16.93,16.93,0,0,0,5.81,4.39,17.36,17.36,0,0,0,.23,14.61a4.35,4.35,0,0,1-.1.52A15.33,15.33,0,0,0,0,18a3.55,3.55,0,0,0,0,.65,23.86,23.86,0,0,0,1.18,4.78c.21.55.38,1.11.57,1.67.67,1.78,1.42,3.53,2.16,5.28.27.52.5,1.05.73,1.59.46.87.83,1.79,1.28,2.67A24.84,24.84,0,0,1,7.1,37a1.06,1.06,0,0,0,.12.2c.31.42.39,1,.82,1.34l2.65,5a2.63,2.63,0,0,0,.71,1.32c.92,1.61,1.83,3.23,2.74,4.84A3,3,0,0,0,15,51.05l2.61,4.29c.12-.19.21-.32.29-.46,2.56-4.26,5.05-8.56,7.39-13L27,38.81a26.88,26.88,0,0,0,2.15-4.12c0-.06,0-.15,0-.21l.18-.44c1.15-2.42,2.26-4.85,3.26-7.33.66-1.63,1.17-3.32,1.75-5a2.31,2.31,0,0,0,.34-.79A8.25,8.25,0,0,0,35,18.58C35,18.12,35,17.65,35,17.19Zm-4.29,3.2a13.28,13.28,0,0,1-8.86,9.83,12.19,12.19,0,0,1-5.9.59A6.93,6.93,0,0,1,14,30.4a11.7,11.7,0,0,1-4.1-1.89c-.31-.21-.59-.46-.88-.69a5.86,5.86,0,0,1-1.17-1.11A11.58,11.58,0,0,1,5,22.2a8,8,0,0,1-.61-2,13.3,13.3,0,0,1,.92-8.32,1.76,1.76,0,0,1,.14-.23,12.65,12.65,0,0,1,6.26-6.29,12.82,12.82,0,0,1,7.82-1.23c.31,0,.63.12.94.19a6.07,6.07,0,0,1,1.67.5,11.79,11.79,0,0,1,4.61,2.83,5.6,5.6,0,0,1,1.11,1.17,12.08,12.08,0,0,1,2.58,4.84,6.39,6.39,0,0,1,.41,1.89A11.64,11.64,0,0,1,30.71,20.39Z"/><circle class="cls-2" cx="17.58" cy="17.64" r="13.89"/><path class="cls-1" d="M21.19,24.27c-.08-.06,0-.15,0-.23,0-2.53,0-5.05,0-7.58,0-.2-.11-.38-.09-.58.18-2.17,0-4.34.08-6.51a.06.06,0,0,1,0,0,.54.54,0,0,1,0,.28c0,2,0,3.91,0,5.86,0,.17.05.2.2.2h1.47c.14,0,.17,0,.17.18-.07,1.74-.05,3.49,0,5.23,0,.41,0,.81,0,1.22a.42.42,0,0,0,.3.42,1.82,1.82,0,0,0,1.6-.21.35.35,0,0,0,.16-.32V15.74a1.8,1.8,0,0,0,.41-.64s0-.06.09,0c0,2.32,0,4.64,0,7a1.05,1.05,0,0,1-.7,1.08,2.3,2.3,0,0,1-1.73.08.89.89,0,0,1-.64-.87c-.07-2,0-4,0-6,0-.13,0-.16-.15-.16-.32,0-.65,0-1,0-.16,0-.2,0-.2.19q0,3.6,0,7.18Z"/><path class="cls-1" d="M25.83,14.6a2.62,2.62,0,0,0,0-.28,8.47,8.47,0,0,0,0-1,2,2,0,0,0-.49-1.09,3,3,0,0,0-1.51-.82c-.35-.1-.36-.09-.45.27s-.08.33.25.41a3,3,0,0,1,.94.41s.12,0,.06.12a2,2,0,0,0-.34,1.05,3.31,3.31,0,0,0,.2,1.68.54.54,0,0,0,.61.4.88.88,0,0,0,.4-.49c0-.07,0-.15.1-.19a1.28,1.28,0,0,0,.31-.15C26,14.81,25.83,14.71,25.83,14.6Zm-.88.9c-.12,0-.18-.1-.23-.2A2.73,2.73,0,0,1,24.48,14a2.55,2.55,0,0,1,.21-1c.06-.11.11-.27.27-.27s.19.16.26.28a.45.45,0,0,1,0,.57,3.23,3.23,0,0,0-.29.43c0,.07-.11.16,0,.23s.17,0,.23-.1.16-.26.25-.38a2.62,2.62,0,0,1-.2,1.61C25.12,15.39,25.06,15.5,25,15.5Z"/><path class="cls-1" d="M22.64,24.41c0-.11,0-.14-.13-.14-.44,0-.88,0-1.32,0,0-.06,0-.13,0-.2V9.54a.74.74,0,0,0,0-.21.79.79,0,0,0-.24-.5,1.42,1.42,0,0,0-1.11-.41H13.42c-.4,0-.79,0-1.18,0A1.13,1.13,0,0,0,11.1,9.62v4.13q0,5.17,0,10.34c0,.15,0,.19-.19.19H9.72c-.14,0-.19,0-.19.18q0,.91,0,1.83c0,.19,0,.25.24.25H22.49c.1,0,.16,0,.15-.14Zm-3-11.18a.7.7,0,0,1-.78.77H13.09a.72.72,0,0,1-.82-.83q0-.72,0-1.44a.71.71,0,0,1,.79-.79H18.8a.71.71,0,0,1,.8.78Z"/></g></g></svg>