<svg xmlns="http://www.w3.org/2000/svg" viewBox="0 0 35 55.34"><defs><style>.cls-1{fill:#313330;}.cls-2{fill:#fff;}</style></defs><title>circle-garage</title><g id="Layer_2" data-name="Layer 2"><g id="Layer_1-2" data-name="Layer 1"><path class="cls-1" d="M35,17.19a19.7,19.7,0,0,0-.78-5.07c0-.56-.33-1-.44-1.52A19.37,19.37,0,0,0,30.86,6c-.34-.41-.74-.75-1.1-1.14l-.16-.16a17.74,17.74,0,0,0-4.35-3c-.51-.24-1-.45-1.56-.67s-1.33-.42-2-.61A23.12,23.12,0,0,0,19.2,0h-.44a.13.13,0,0,1-.21,0H16.6a.14.14,0,0,1-.22,0h-.54a10.49,10.49,0,0,1-1.27.15A16.93,16.93,0,0,0,5.81,4.39,17.36,17.36,0,0,0,.23,14.61a4.35,4.35,0,0,1-.1.52A15.33,15.33,0,0,0,0,18a3.55,3.55,0,0,0,0,.65,23.86,23.86,0,0,0,1.18,4.78c.21.55.38,1.11.57,1.67.67,1.78,1.42,3.53,2.16,5.28.27.52.5,1.05.73,1.59.46.87.83,1.79,1.28,2.67A24.84,24.84,0,0,1,7.1,37a1.06,1.06,0,0,0,.12.2c.31.42.39,1,.82,1.34l2.65,5a2.63,2.63,0,0,0,.71,1.32c.92,1.61,1.83,3.23,2.74,4.84A3,3,0,0,0,15,51.05l2.61,4.29c.12-.19.21-.32.29-.46,2.56-4.26,5.05-8.56,7.39-13L27,38.81a26.88,26.88,0,0,0,2.15-4.12c0-.06,0-.15,0-.21l.18-.44c1.15-2.42,2.26-4.85,3.26-7.33.66-1.63,1.17-3.32,1.75-5a2.31,2.31,0,0,0,.34-.79A8.25,8.25,0,0,0,35,18.58C35,18.12,35,17.65,35,17.19Zm-4.29,3.2a13.28,13.28,0,0,1-8.86,9.83,12.19,12.19,0,0,1-5.9.59A6.93,6.93,0,0,1,14,30.4a11.7,11.7,0,0,1-4.1-1.89c-.31-.21-.59-.46-.88-.69a5.86,5.86,0,0,1-1.17-1.11A11.58,11.58,0,0,1,5,22.2a8,8,0,0,1-.61-2,13.3,13.3,0,0,1,.92-8.32,1.76,1.76,0,0,1,.14-.23,12.65,12.65,0,0,1,6.26-6.29,12.82,12.82,0,0,1,7.82-1.23c.31,0,.63.12.94.19a6.07,6.07,0,0,1,1.67.5,11.79,11.79,0,0,1,4.61,2.83,5.6,5.6,0,0,1,1.11,1.17,12.08,12.08,0,0,1,2.58,4.84,6.39,6.39,0,0,1,.41,1.89A11.64,11.64,0,0,1,30.71,20.39Z"/><circle class="cls-2" cx="17.58" cy="17.64" r="13.89"/><path class="cls-1" d="M27,11.46c-2.52-1.14-5.06-2.25-7.59-3.37a10,10,0,0,0-2-.83h0a1.79,1.79,0,0,0-.81.22L8.88,10.91a3.78,3.78,0,0,0-1.26.65v2.61a.68.68,0,0,0,.53.14c.34,0,.48.15.46.48,0,.14,0,.28,0,.43V25h0v.7a1,1,0,0,0,.14.74h0a1.22,1.22,0,0,0,.27,0H26a1.51,1.51,0,0,0,.3,0h.05a1.1,1.1,0,0,0,.12-.75c0-3.51,0-7,0-10.53V14.7a.33.33,0,0,1,.37-.38.78.78,0,0,0,.53-.15V11.74A.67.67,0,0,0,27,11.46ZM9.63,13.26A.25.25,0,0,1,9.87,13H25.13a.25.25,0,0,1,.24.25v.41a.25.25,0,0,1-.24.25H9.87a.25.25,0,0,1-.24-.25Zm16,12c0,.36-.09.46-.46.46H10c-.32,0-.43-.06-.43-.42,0-3.31,0-6.61,0-9.92,0-.32.07-.41.4-.41,2.54,0,5.07,0,7.61,0s5.05,0,7.57,0c.36,0,.49,0,.49.46Q25.57,20.37,25.6,25.28Z"/><path class="cls-1" d="M22.31,19.13c-.37,0-.53-.09-.59-.45a15.77,15.77,0,0,0-.39-1.54,1,1,0,0,0-1.17-.85H17.62c-.88,0-1.76,0-2.63,0a1,1,0,0,0-1.05.69c-.16.42-.3.85-.44,1.28-.26.79-.25.8-1.09.86-.18,0-.28.06-.23.24s-.17.5.16.52.29.2.29.4v4.14c0,.79,0,.77.77.8.37,0,.52-.11.45-.47s.1-.35.37-.35h6.53c.3,0,.45.06.39.38s.08.49.43.43a.59.59,0,0,1,.23,0c.44.07.58-.06.57-.54,0-1.44,0-2.88,0-4.32,0-.22-.08-.51.32-.45.1,0,.11-.06.13-.15C22.91,19.25,22.81,19.09,22.31,19.13Zm-8.1-1.71a.87.87,0,0,1,.93-.63H20a.89.89,0,0,1,1,.77c.1.42.18.85.28,1.27,0,.21,0,.28-.22.28-2.44,0-4.89,0-7.4,0C13.85,18.51,14,18,14.21,17.42ZM14.32,22a4.51,4.51,0,0,0-.52,0C13,22,13,22,13,21.22c0-.53,0-.53.54-.41a1.36,1.36,0,0,1,1,.82C14.7,21.91,14.64,22,14.32,22ZM19,23.65c-.49,0-1,0-1.46,0s-1,0-1.5,0-.37-.16-.34-.42-.12-.5.32-.48c1,0,2,0,3,0,.43,0,.32.25.34.48S19.29,23.67,19,23.65Zm2.91-1.84c0,.23-.17.18-.3.18s-.38,0-.56,0a2.61,2.61,0,0,1-.28,0c-.17,0-.41.09-.48-.06s.06-.35.16-.51a1.6,1.6,0,0,1,1.27-.68s.08,0,.09,0C22,21.09,21.83,21.46,21.86,21.81Z"/></g></g></svg>