<svg xmlns="http://www.w3.org/2000/svg" xmlns:xlink="http://www.w3.org/1999/xlink" viewBox="0 0 74.07 48"><defs><style>.cls-1{fill:url(#linear-gradient);}.cls-2{fill:url(#linear-gradient-2);}</style><linearGradient id="linear-gradient" y1="21.02" x2="74.07" y2="21.02" gradientUnits="userSpaceOnUse"><stop offset="0" stop-color="#3c91e4"/><stop offset="0.51" stop-color="#9c6ed7"/><stop offset="1" stop-color="#c78edf"/></linearGradient><linearGradient id="linear-gradient-2" x1="17.26" y1="34.13" x2="42.72" y2="34.13" xlink:href="#linear-gradient"/></defs><title>dashboard</title><g id="Layer_2" data-name="Layer 2"><g id="Layer_1-2" data-name="Layer 1"><path class="cls-1" d="M74.07,34.52c-.33-.6-.12-1.24-.16-1.87,0,0,0-.07,0-.11h0a24.29,24.29,0,0,0-2-8.59c-3.45-8.57-9.1-15.26-17.31-19.49a36.53,36.53,0,0,0-33.11-.93C12.06,7.74,5.75,14.93,2,24.45A37.73,37.73,0,0,0,0,32.54v3c.41.94,0,2,.24,2.89l0,.12c.87,2.41,2,3.29,4.45,3.33q10,.12,19.91.18c.24,0,.56.11.66-.36l-1-1.25Q17.64,31.77,11,23.11A6.3,6.3,0,0,1,9.7,17.69c.54-2.39,1.82-4.33,4.27-5,2.63-.69,5.23-.56,7.36,1.53q8,7.82,16,15.62a4.7,4.7,0,0,0,2.23,1.26c5.07,1.33,8.14,4.53,8.87,9.78.13.93.47,1.15,1.35,1.14,6.58-.09,13.16-.12,19.73-.21,2.31,0,3.48-1,4.29-3.31l0-.13c.25-1.17-.18-2.39.24-3.54Zm-10-2.24c-2.28.21-4.55.54-6.81.87-.88.13-1.32,0-1.39-1-.1-1.51-1.12-3.32-.38-4.43s2.72-.6,4.16-.84c.8-.14,1.62-.22,2.43-.33,2.48-.33,2.48-.33,2.76,2.26.08.7.18,1.41.33,2.47C65.29,31.76,65.07,32.18,64.07,32.28ZM51.56,21c-.54-.62-1.15-1.17-1.73-1.75-1.65-1.67-1.65-1.67.06-3.38,1.39-1.39,2.8-2.76,4.18-4.16.44-.45.76-.69,1.3-.1.92,1,1.92,1.94,2.88,2.91.19.19.35.41.58.68-.23.26-.43.51-.65.73-1.69,1.7-3.43,3.37-5.08,5.12C52.47,21.7,52.09,21.59,51.56,21ZM39.88,13.82c-.85,1-2.88.15-4.38.33-1.32.17-1.67-.33-1.6-1.61.11-2.13.07-4.27,0-6.4,0-1,.16-1.4,1.25-1.32a37.38,37.38,0,0,0,4.1,0c.73,0,1,.23.92.94,0,1.26,0,2.52,0,3.78H40C40,11,40.61,13,39.88,13.82Z"/><path class="cls-2" d="M42.67,43a5.58,5.58,0,0,1-5.57,5c-2.21.45-5.37-2.11-5.46-4.07-.12-2.6-1.75-4.29-3.17-6.11-3.38-4.38-6.83-8.71-10.25-13.05-1.13-1.43-1.27-3-.36-3.85s2.53-.79,3.94.59q7.07,6.87,14.08,13.8a4.94,4.94,0,0,0,2.47,1.44A5.56,5.56,0,0,1,42.67,43Z"/></g></g></svg>