<svg xmlns="http://www.w3.org/2000/svg" viewBox="0 0 24.52 24.54"><defs><style>.cls-1{fill:#1f7e40;}</style></defs><title>distance-covered</title><g id="Layer_2" data-name="Layer 2"><g id="Layer_1-2" data-name="Layer 1"><path id="Path_2" data-name="Path 2" class="cls-1" d="M3.9,13.52a2.47,2.47,0,0,0,0,4.93A2.53,2.53,0,0,0,6.34,16,2.47,2.47,0,0,0,3.9,13.52Zm0,3.88a1.37,1.37,0,0,1-1.39-1.35v0a1.43,1.43,0,0,1,1.4-1.41,1.39,1.39,0,1,1,0,2.78Zm0-3.88a2.47,2.47,0,0,0,0,4.93A2.53,2.53,0,0,0,6.34,16,2.48,2.48,0,0,0,3.9,13.52Zm0,3.88a1.37,1.37,0,0,1-1.39-1.35v0a1.43,1.43,0,0,1,1.4-1.41,1.39,1.39,0,1,1,0,2.78Zm0-3.88a2.47,2.47,0,0,0,0,4.93A2.53,2.53,0,0,0,6.34,16,2.48,2.48,0,0,0,3.9,13.52Zm0,3.88a1.37,1.37,0,0,1-1.39-1.35v0a1.43,1.43,0,0,1,1.4-1.41,1.39,1.39,0,1,1,0,2.78Zm0-3.88a2.47,2.47,0,0,0,0,4.93A2.53,2.53,0,0,0,6.34,16,2.48,2.48,0,0,0,3.9,13.52Zm0,3.88a1.37,1.37,0,0,1-1.39-1.35v0a1.43,1.43,0,0,1,1.4-1.41,1.39,1.39,0,1,1,0,2.78Zm3.68-3a4,4,0,0,0-3.67-2.53A4,4,0,0,0,.23,14.42a4.13,4.13,0,0,0,.15,3.09,32.08,32.08,0,0,0,2.35,4.55c.37.62.76,1.22,1.13,1.83a.45.45,0,0,0,.16-.2c.35-.54.7-1.09,1-1.64a31.46,31.46,0,0,0,2.36-4.58A4.08,4.08,0,0,0,7.55,14.42ZM6.42,17.15a34.14,34.14,0,0,1-2.5,4.75s0,0,0,0a35.32,35.32,0,0,1-2.49-4.71,3.19,3.19,0,0,1-.18-2.44,2.87,2.87,0,0,1,5.54.76,3.28,3.28,0,0,1-.32,1.6ZM3.9,13.52a2.47,2.47,0,0,0,0,4.93A2.53,2.53,0,0,0,6.34,16,2.47,2.47,0,0,0,3.9,13.52Zm0,3.88a1.37,1.37,0,0,1-1.39-1.35v0a1.43,1.43,0,0,1,1.4-1.41,1.39,1.39,0,1,1,0,2.78Zm0-3.88a2.47,2.47,0,0,0,0,4.93A2.53,2.53,0,0,0,6.34,16,2.48,2.48,0,0,0,3.9,13.52Zm0,3.88a1.37,1.37,0,0,1-1.39-1.35v0a1.43,1.43,0,0,1,1.4-1.41,1.39,1.39,0,1,1,0,2.78Zm0-3.88a2.47,2.47,0,0,0,0,4.93A2.53,2.53,0,0,0,6.34,16,2.48,2.48,0,0,0,3.9,13.52Zm0,3.88a1.37,1.37,0,0,1-1.39-1.35v0a1.43,1.43,0,0,1,1.4-1.41,1.39,1.39,0,1,1,0,2.78ZM22.21,18l-8-2.08-1.19-.32c.9-.23,1.8-.41,2.7-.6L21.1,13.9c.14,0,.17-.07.14-.2s-.1-.5-.14-.75-.08-.17-.22-.14l-3.37.7L10.61,15a.57.57,0,0,0-.5.42c-.08.34.13.62.55.73l8.19,2.17v0l-1.6.11-6.12.41c-.59.05-1.18.07-1.77.14a.55.55,0,0,0-.36.92,1.7,1.7,0,0,0,.19.19c.92.88,1.85,1.76,2.79,2.63l.19.16-.08,0-6.57.53c-.15,0-.2,0-.18.19a4,4,0,0,1,0,.69c0,.21.07.23.25.21l3.29-.28,4.47-.37a.55.55,0,0,0,.51-.57.53.53,0,0,0-.12-.3,1.15,1.15,0,0,0-.21-.23l-2.76-2.66c-.06-.05-.14-.08-.14-.19l3-.2,5.23-.37,3.35-.24a.47.47,0,0,0,.48-.41c.1-.35-.09-.61-.53-.72ZM24.49,4.2h0a12.33,12.33,0,0,1-1.1,3,50.94,50.94,0,0,1-2.62,4.54c-.1.16-.16.13-.26,0-.39-.6-.77-1.21-1.13-1.83s-.86-1.5-1.26-2.26A15.72,15.72,0,0,1,16.94,5a3.6,3.6,0,0,1,.46-3.2A3.8,3.8,0,0,1,19.93.12c.08,0,.2,0,.23-.12,0,.07-.1,0-.15.05a3.9,3.9,0,0,0-3.31,4,6.58,6.58,0,0,0,.65,2.16,40.81,40.81,0,0,0,3.18,5.66l.08.1A42.87,42.87,0,0,0,23.9,6.12a6.28,6.28,0,0,0,.58-1.89h0ZM3.9,13.52a2.47,2.47,0,0,0,0,4.93A2.53,2.53,0,0,0,6.34,16,2.47,2.47,0,0,0,3.9,13.52Zm0,3.88a1.37,1.37,0,0,1-1.39-1.35v0a1.43,1.43,0,0,1,1.4-1.41,1.39,1.39,0,1,1,0,2.78Zm0-3.88a2.47,2.47,0,0,0,0,4.93A2.53,2.53,0,0,0,6.34,16,2.48,2.48,0,0,0,3.9,13.52Zm0,3.88a1.37,1.37,0,0,1-1.39-1.35v0a1.43,1.43,0,0,1,1.4-1.41,1.39,1.39,0,1,1,0,2.78Z"/><path id="Path_3" data-name="Path 3" class="cls-1" d="M20.65,1.63a2.47,2.47,0,1,0-.19,4.93h.08A2.5,2.5,0,0,0,23,4.12,2.47,2.47,0,0,0,20.65,1.63Zm-.06,3.88a1.37,1.37,0,0,1-1.4-1.34v0A1.41,1.41,0,0,1,22,4.09,1.42,1.42,0,0,1,20.59,5.51Z"/><path id="Path_4" data-name="Path 4" class="cls-1" d="M24.52,3.5c0-.25-.06-.5-.11-.75A4,4,0,0,0,23,.75,3.45,3.45,0,0,0,21,0h-.87c0,.07-.1,0-.14.05a3.9,3.9,0,0,0-3.31,4,6.58,6.58,0,0,0,.65,2.16,40.81,40.81,0,0,0,3.18,5.66l.08.1A42.87,42.87,0,0,0,23.9,6.12a6.28,6.28,0,0,0,.58-1.89v0c0-.07,0-.16,0-.23v-.1a.37.37,0,0,1,0-.29Zm-3.7-2.44a2.89,2.89,0,0,1,2.61,2.41,3.38,3.38,0,0,1-.32,1.85,31.17,31.17,0,0,1-2.3,4.4l-.22.35c-.27-.47-.55-.91-.81-1.37a26.49,26.49,0,0,1-1.71-3.41,3.17,3.17,0,0,1-.24-2.14A2.88,2.88,0,0,1,20.82,1.06Z"/><path id="Path_5" data-name="Path 5" class="cls-1" d="M24.51,3.88a.21.21,0,0,1,0-.28Z"/><path id="Path_6" data-name="Path 6" class="cls-1" d="M24.51,4v.24h0v0A.24.24,0,0,1,24.51,4Z"/><path id="Path_7" data-name="Path 7" class="cls-1" d="M22.76,18.72a.49.49,0,0,1-.49.41l-3.34.24-5.23.37-3,.2c0,.1.08.14.13.19l2.77,2.65a2.11,2.11,0,0,1,.19.23.54.54,0,0,1-.1.76.46.46,0,0,1-.3.11l-4.46.38-3.3.27c-.17,0-.25,0-.24-.21a5.32,5.32,0,0,0,0-.69c0-.16,0-.18.18-.19l6.57-.53a.2.2,0,0,0,.08,0L12,22.71,9.19,20.08,9,19.89A.55.55,0,0,1,9.37,19c.58-.07,1.17-.09,1.76-.13l6.13-.42,1.6-.1v-.05l-8.2-2.17c-.42-.11-.62-.38-.54-.72a.52.52,0,0,1,.5-.42l6.9-1.43,3.38-.7c.14,0,.2,0,.22.14s.09.5.14.75,0,.17-.14.2L15.77,15c-.9.19-1.79.37-2.7.6l1.19.32,8,2.08C22.65,18.11,22.84,18.36,22.76,18.72Z"/><path id="Path_8" data-name="Path 8" class="cls-1" d="M3.9,13.52a2.47,2.47,0,0,0,0,4.93A2.53,2.53,0,0,0,6.34,16,2.47,2.47,0,0,0,3.9,13.52Zm0,3.88a1.37,1.37,0,0,1-1.39-1.35v0a1.42,1.42,0,0,1,1.4-1.4A1.39,1.39,0,0,1,5.29,16,1.41,1.41,0,0,1,3.88,17.4Zm0-3.88a2.47,2.47,0,0,0,0,4.93A2.53,2.53,0,0,0,6.34,16,2.47,2.47,0,0,0,3.9,13.52Zm0,3.88a1.37,1.37,0,0,1-1.39-1.35v0a1.42,1.42,0,0,1,1.4-1.4A1.39,1.39,0,0,1,5.29,16,1.41,1.41,0,0,1,3.88,17.4Zm0-3.88a2.47,2.47,0,0,0,0,4.93A2.53,2.53,0,0,0,6.34,16,2.47,2.47,0,0,0,3.9,13.52Zm0,3.88a1.37,1.37,0,0,1-1.39-1.35v0a1.42,1.42,0,0,1,1.4-1.4A1.39,1.39,0,0,1,5.29,16,1.41,1.41,0,0,1,3.88,17.4Zm0-3.88a2.47,2.47,0,0,0,0,4.93A2.53,2.53,0,0,0,6.34,16,2.47,2.47,0,0,0,3.9,13.52Zm0,3.88a1.37,1.37,0,0,1-1.39-1.35v0a1.42,1.42,0,0,1,1.4-1.4A1.39,1.39,0,0,1,5.29,16,1.41,1.41,0,0,1,3.88,17.4Zm3.67-3a4,4,0,0,0-3.66-2.53A4,4,0,0,0,.23,14.42a4.13,4.13,0,0,0,.15,3.09,32.08,32.08,0,0,0,2.35,4.55c.37.62.76,1.22,1.13,1.82A.38.38,0,0,0,4,23.69c.35-.55.7-1.09,1-1.64a31.46,31.46,0,0,0,2.36-4.58,4.08,4.08,0,0,0,.14-3ZM6.42,17.15a34.71,34.71,0,0,1-2.5,4.75s0,0,0,0a34.83,34.83,0,0,1-2.49-4.72,3.16,3.16,0,0,1-.18-2.43,2.87,2.87,0,0,1,5.54.76,3.28,3.28,0,0,1-.32,1.6ZM3.9,13.52a2.47,2.47,0,0,0,0,4.93A2.53,2.53,0,0,0,6.34,16,2.47,2.47,0,0,0,3.9,13.52Zm0,3.88a1.37,1.37,0,0,1-1.39-1.35v0a1.42,1.42,0,0,1,1.4-1.4A1.39,1.39,0,0,1,5.29,16,1.41,1.41,0,0,1,3.88,17.4Zm0-3.88a2.47,2.47,0,0,0,0,4.93A2.53,2.53,0,0,0,6.34,16,2.47,2.47,0,0,0,3.9,13.52Zm0,3.88a1.37,1.37,0,0,1-1.39-1.35v0a1.42,1.42,0,0,1,1.4-1.4A1.39,1.39,0,0,1,5.29,16,1.41,1.41,0,0,1,3.88,17.4Zm0-3.88a2.47,2.47,0,0,0,0,4.93A2.53,2.53,0,0,0,6.34,16,2.47,2.47,0,0,0,3.9,13.52Zm0,3.88a1.37,1.37,0,0,1-1.39-1.35v0a1.42,1.42,0,0,1,1.4-1.4A1.39,1.39,0,0,1,5.29,16,1.41,1.41,0,0,1,3.88,17.4Zm0-3.88a2.47,2.47,0,0,0,0,4.93A2.53,2.53,0,0,0,6.34,16,2.47,2.47,0,0,0,3.9,13.52Zm0,3.88a1.37,1.37,0,0,1-1.39-1.35v0a1.42,1.42,0,0,1,1.4-1.4A1.39,1.39,0,0,1,5.29,16,1.41,1.41,0,0,1,3.88,17.4Zm0-3.88a2.47,2.47,0,0,0,0,4.93A2.53,2.53,0,0,0,6.34,16,2.47,2.47,0,0,0,3.9,13.52Zm0,3.88a1.37,1.37,0,0,1-1.39-1.35v0a1.42,1.42,0,0,1,1.4-1.4A1.39,1.39,0,0,1,5.29,16,1.41,1.41,0,0,1,3.88,17.4Z"/><path id="Path_9" data-name="Path 9" class="cls-1" d="M20.65,1.63a2.47,2.47,0,1,0-.19,4.93h.08A2.5,2.5,0,0,0,23,4.12,2.47,2.47,0,0,0,20.65,1.63Zm-.06,3.88a1.37,1.37,0,0,1-1.4-1.34v0A1.41,1.41,0,0,1,22,4.09,1.42,1.42,0,0,1,20.59,5.51Z"/><path id="Path_10" data-name="Path 10" class="cls-1" d="M3.9,13.52a2.47,2.47,0,0,0,0,4.93A2.53,2.53,0,0,0,6.34,16,2.47,2.47,0,0,0,3.9,13.52Zm0,3.88a1.37,1.37,0,0,1-1.4-1.35v0a1.42,1.42,0,0,1,1.4-1.4A1.39,1.39,0,0,1,5.29,16,1.41,1.41,0,0,1,3.88,17.4h0Z"/><path id="Path_11" data-name="Path 11" class="cls-1" d="M20.65,1.63a2.47,2.47,0,1,0-.19,4.93h.08A2.5,2.5,0,0,0,23,4.12,2.47,2.47,0,0,0,20.65,1.63Zm-.06,3.88a1.37,1.37,0,0,1-1.4-1.34v0A1.41,1.41,0,0,1,22,4.09,1.42,1.42,0,0,1,20.59,5.51Z"/><path id="Path_12" data-name="Path 12" class="cls-1" d="M3.9,14a2,2,0,0,0,0,4,2,2,0,0,0,2-2A2,2,0,0,0,3.9,14Zm0,3.13A1.11,1.11,0,0,1,2.76,16v0a1.15,1.15,0,0,1,1.13-1.13,1.12,1.12,0,1,1,0,2.24Z"/></g></g></svg>