<svg xmlns="http://www.w3.org/2000/svg" width="22.482" height="24.777" viewBox="0 0 22.482 24.777">
  <g id="dustbin" transform="translate(0.018 0.002)">
    <g id="Layer_1" data-name="Layer 1" transform="translate(-0.018 -0.002)">
      <path id="Path_274" data-name="Path 274" d="M19.969,7.111V7.8a.391.391,0,0,1-.225.383c-.241.133-.474.275-.707.416a4.009,4.009,0,0,0-.449.308c-.932.524-1.847,1.065-2.771,1.589l-2.871,1.664-2.371,1.365a1.207,1.207,0,0,1-.591.141,1.972,1.972,0,0,1-.99-.408L6.5,11.8,3.769,10.214,1.713,9.091c-.175-.1-.191-.092-.191.116V20.74a2.022,2.022,0,0,1,0,.225c0,.05,0,.133-.1.116a.225.225,0,0,1-.042-.125V9.349a1.814,1.814,0,0,0,0-.424c-.067-.133-.208-.158-.316-.233a2.608,2.608,0,0,0-.374-.2,4.41,4.41,0,0,0-.474-.275.541.541,0,0,1-.158-.15A.366.366,0,0,1,0,7.934a.283.283,0,0,1,0-.092A2.5,2.5,0,0,0,0,7.41c0-.083,0-.158.092-.208s.175,0,.25.083c.882.5,1.764,1.007,2.638,1.523L6.09,10.589c1.132.657,2.255,1.315,3.395,1.964a.932.932,0,0,0,.965,0c1.073-.607,2.138-1.24,3.2-1.847,1.664-.965,3.328-1.939,4.993-2.9.383-.225.782-.433,1.14-.691a.108.108,0,0,1,.183-.008Z" transform="translate(0.016 -1.184)" fill="#2f612c"/>
      <path id="Path_275" data-name="Path 275" d="M17.2,4.052l.183.108a4.5,4.5,0,0,1,.716.374c.275.15.533.316.832.466a.15.15,0,0,1,.092.083h0a4.743,4.743,0,0,1,.782.424.175.175,0,0,1,.108.158.541.541,0,0,1,0,.258,9.769,9.769,0,0,1-1.223.732L15.682,8.4l-2.787,1.631-2.5,1.415a.924.924,0,0,1-.915,0L4.44,8.529C3.076,7.713,1.661,6.906.255,6.1L.147,6.032A.2.2,0,0,1,0,5.907.349.349,0,0,1,.18,5.491l.433-.258C.7,5.175.8,5.142.887,5.084c.225-.15.474-.258.7-.408s.641-.341.907-.516.607-.341.915-.516a7.39,7.39,0,0,1,.749-.424l.2-.116c.316-.175.624-.366.94-.549.141-.067.266-.15.4-.225s.333-.183.491-.291c.383-.208.749-.433,1.123-.649L8.043.973c.275-.141.566-.349.874-.516A2.929,2.929,0,0,1,9.849,0a1.29,1.29,0,0,1,.832.25c.125.083.258.15.391.233l.582.333.949.557c.3.166.591.341.89.5s.474.291.716.416a.832.832,0,0,0,.2.116c.283.175.582.333.874.508s.366.216.557.316a3.844,3.844,0,0,0,.4.233l.782.458A.749.749,0,0,1,17.2,4.052Z" transform="translate(0.018 0.002)" fill="#51ab4c"/>
      <path id="Path_276" data-name="Path 276" d="M20.522,21.46c-.108.191-.325.233-.483.358a3.412,3.412,0,0,1-.632.408c-.092.042-.158.1-.241.141-.325.175-.632.366-.949.549-.133.067-.266.15-.4.225l-.483.283c-.308.158-.6.349-.907.516-.083.058-.175.1-.266.158l-.691.4c-.283.15-.549.325-.832.483h-.067c-.308.191-.624.366-.94.549l-.624.358c-.092,0-.175.108-.266.158a1.311,1.311,0,0,1-.541.25h-.075a.316.316,0,0,1-.3,0s-.042-.058,0-.092a.208.208,0,0,0,.108-.2V14.362a.541.541,0,0,1,.033-.325,1.2,1.2,0,0,0,.666-.216l2.03-1.165,3.52-2.055L20.522,9.27V21.46Z" transform="translate(-1.968 -1.555)" fill="#3b7c36"/>
      <path id="Path_277" data-name="Path 277" d="M10.272,14.044V26.092c0,.15,0,.241-.191.216s-.183,0-.266-.05l-.208-.108-1.323-.766-.674-.391a1.947,1.947,0,0,0-.225-.133c-.308-.191-.624-.366-.94-.549l-.4-.225a4.16,4.16,0,0,0-.491-.283c-.291-.183-.6-.349-.9-.524a1.406,1.406,0,0,0-.208-.133l-.724-.408c-.632-.374-1.248-.707-1.856-1.057a.3.3,0,0,1-.158-.15h0c.058-.075,0-.158,0-.233V9.409c0-.1,0-.133.125-.075.557.316,1.115.657,1.664.965s1.265.749,1.9,1.115l2.2,1.256,1.922,1.115A1.223,1.223,0,0,0,10.272,14.044Z" transform="translate(-0.272 -1.561)" fill="#346b31"/>
      <path id="Path_278" data-name="Path 278" d="M1.7,9.75V21.44c0,.075-.067-.058-.075-.108V9.841a.158.158,0,0,1,0-.067A.075.075,0,0,1,1.7,9.75Z" transform="translate(-0.258 -1.635)" fill="#316930"/>
      <path id="Path_279" data-name="Path 279" d="M.05,7.851V7.11a.241.241,0,0,1,.108.116c-.075.05-.067.133-.075.208a1.023,1.023,0,0,1-.033.416Z" transform="translate(0.007 -1.192)" fill="#295c25"/>
      <path id="Path_280" data-name="Path 280" d="M10.682,10.526c-.358-.166-.691-.383-1.032-.574l-4.668-2.7L4.15,6.748c0-.083.067-.1.116-.125L5.44,5.958,7.52,4.734,10.374,3.07c.1-.058.2-.158.333-.05s0,.125,0,.191V10.2A.321.321,0,0,1,10.682,10.526Z" transform="translate(-0.682 -0.497)" fill="#203320"/>
      <path id="Path_281" data-name="Path 281" d="M12,10.522V3.257c0-.083.058-.183,0-.258.058-.116.133,0,.183,0,.291.141.566.316.832.474l4.751,2.763c.216.125.441.241.649.374.058,0,.166.05.108.166L13.048,9.931C12.707,10.131,12.366,10.347,12,10.522Z" transform="translate(-2 -0.493)" fill="#142713"/>
      <path id="Path_282" data-name="Path 282" d="M17.039,6.6c-.05-.141-.2-.175-.308-.233-1.165-.682-2.338-1.348-3.511-2.03l-2.5-1.423c-.075-.05-.15-.15-.266-.092a6.79,6.79,0,0,0-.932.516c-.749.433-1.506.882-2.288,1.331-.641.366-1.281.749-1.922,1.123L3.95,6.568l-.79-.424.9-.516L7.545,3.589l2.879-1.664a.141.141,0,0,1,.166,0L13.6,3.647l3.029,1.747,1.231.749Z" transform="translate(-0.516 -0.317)" fill="#2f612c"/>
      <path id="Path_283" data-name="Path 283" d="M22.06,21.567V9.51h0Z" transform="translate(-3.689 -1.595)" fill="#3f773d"/>
      <path id="Path_284" data-name="Path 284" d="M12.225,29.724H12.05C12.133,29.69,12.183,29.674,12.225,29.724Z" transform="translate(-2.008 -4.984)" fill="#346b31"/>
      <circle id="Ellipse_68" data-name="Ellipse 68" cx="5.034" cy="5.034" r="5.034" transform="translate(12.039 12.907)" fill="#fff" stroke="#346b31" stroke-width="0.75"/>
      <g id="Layer_1-2" data-name="Layer 1-2" transform="translate(13.628 14.607)">
        <path id="Path_285" data-name="Path 285" d="M16.36,21.511a2.421,2.421,0,0,1,.716-.766.266.266,0,0,1,.358,0l.175.15,1.24,1.19c.058.058.075,0,.116,0l1.556-2.28,1.406-2.03a.433.433,0,0,1,.266-.216h.092a.391.391,0,0,1,.141,0,4.227,4.227,0,0,1,.749.533.166.166,0,0,1,.058.15v.141a.441.441,0,0,1-.067.225l-1.914,2.821-.541.832-1.073,1.573a1.365,1.365,0,0,1-.175.208.466.466,0,0,1-.3.175h-.175a.649.649,0,0,1-.333-.175c-.208-.175-.408-.358-.6-.541l-1.1-1.107c-.166-.166-.316-.349-.491-.516a.358.358,0,0,1-.108-.208Z" transform="translate(-16.36 -17.552)" fill="#3b7c36"/>
        <path id="Path_286" data-name="Path 286" d="M24.61,18.4h0v.158h0Z" transform="translate(-17.745 -17.695)" fill="#3b7c36"/>
      </g>
    </g>
  </g>
</svg>
