<svg xmlns="http://www.w3.org/2000/svg" viewBox="0 0 181.88 283.77"><defs><style>.cls-1{fill:none;stroke:#0ba118;stroke-linecap:round;stroke-miterlimit:10;stroke-width:1.23px;stroke-dasharray:4.78;}.cls-2{fill:#0ba118;}</style></defs><title>h3_1</title><g id="Layer_2" data-name="Layer 2"><g id="Layer_1-2" data-name="Layer 1"><polyline class="cls-1" points="181.27 283.15 103.5 43.5 64.5 18.5"/><circle class="cls-2" cx="65" cy="18" r="7"/><path class="cls-2" d="M34,32H6v2a2,2,0,0,1-2,2H2a2,2,0,0,1-2-2V14L5,2.42A4,4,0,0,1,8.64,0H31.36A4,4,0,0,1,35,2.42L40,14V34a2,2,0,0,1-2,2H36a2,2,0,0,1-2-2Zm2-14H4V28H36ZM4.35,14h31.3L31.36,4H8.64L4.35,14ZM9,26a3,3,0,1,1,3-3A3,3,0,0,1,9,26Zm22,0a3,3,0,1,1,3-3A3,3,0,0,1,31,26Z"/></g></g></svg>