<svg xmlns="http://www.w3.org/2000/svg" viewBox="0 0 20.07 28"><defs><style>.cls-1{opacity:0;}</style></defs><title>invisible-location</title><g id="Layer_2" data-name="Layer 2"><g id="Layer_1-2" data-name="Layer 1"><g class="cls-1"><path d="M20,10.83a10.27,10.27,0,0,1-.67,3.2,20.41,20.41,0,0,1-2.75,4.91c-1.27,1.78-2.66,3.47-3.91,5.26a29.78,29.78,0,0,0-2.11,3.41.54.54,0,0,1-.41.36.31.31,0,0,0-.25,0,.44.44,0,0,1-.39-.27A59.81,59.81,0,0,0,4.33,20,29.92,29.92,0,0,1,1.22,15,12,12,0,0,1,0,10.43,10.05,10.05,0,0,1,7.68.28,7.25,7.25,0,0,1,9.54,0a5.57,5.57,0,0,0,1,0,8.58,8.58,0,0,1,3.72.91A10.14,10.14,0,0,1,20,8.66a4.31,4.31,0,0,1,.09,1A8.83,8.83,0,0,0,20,10.83Z"/><path d="M20,10.83a3,3,0,0,1,0-1.15A4.92,4.92,0,0,1,20,10.83Z"/><path d="M10.54,0a2.41,2.41,0,0,1-1,0A4.18,4.18,0,0,1,10.54,0Z"/><path d="M9.94,28a.18.18,0,0,1,.25,0A.36.36,0,0,1,9.94,28Z"/><path d="M5,9.39a5.56,5.56,0,0,1,.79-2.12A5.1,5.1,0,1,1,5,10.8,7.37,7.37,0,0,1,5,9.47S4.93,9.41,5,9.39Z"/><path d="M5,9.39v.08c-.07-.05,0-.12,0-.2S4.94,9.35,5,9.39Z"/></g></g></g></svg>