<svg xmlns="http://www.w3.org/2000/svg" viewBox="0 0 68 41.08"><defs><style>.cls-1{fill:#414042;}.cls-2{fill:#47b549;}</style></defs><title>logo-rotate</title><g id="Layer_2" data-name="Layer 2"><g id="Layer_1-2" data-name="Layer 1"><path class="cls-1" d="M8,35.41l3.37,3.9,3.17-3.69h1.48l-4.65,5.45L8,37.15,4.66,41.07,0,35.62H1.48l3.19,3.73Z"/><path class="cls-1" d="M25.91,39.33h-5.8a1.36,1.36,0,0,0,.86.77,4.34,4.34,0,0,0,1.46.24,3.82,3.82,0,0,0,2.05-.51l1,.4a5.69,5.69,0,0,1-3.15.76,5.53,5.53,0,0,1-2.54-.52c-.68-.35-1-.78-1-1.3s.35-.9,1-1.26a5.46,5.46,0,0,1,2.52-.53,5.41,5.41,0,0,1,2.51.54A1.56,1.56,0,0,1,25.91,39.33Zm-5.65-.58h4.15a2.73,2.73,0,0,0-2-.71A2.72,2.72,0,0,0,20.26,38.75Z"/><path class="cls-1" d="M29.52,35.62H31l3.3,3.74,3.32-3.74h1.52l-4.86,5.46Z"/><path class="cls-1" d="M40.82,38.22c0-.76.58-1.41,1.72-2a9.55,9.55,0,0,1,4.12-.82,9.16,9.16,0,0,1,4,.83c1.13.55,1.7,1.2,1.7,1.95s-.56,1.48-1.68,2a9.26,9.26,0,0,1-4.11.83,9.14,9.14,0,0,1-4.1-.84C41.39,39.69,40.82,39,40.82,38.22Zm10,0c0-.59-.41-1.08-1.25-1.48a7.08,7.08,0,0,0-3.08-.6,6.8,6.8,0,0,0-3,.61c-.82.41-1.24.9-1.24,1.47s.43,1.06,1.28,1.46a7.22,7.22,0,0,0,3.11.6,6.49,6.49,0,0,0,2.93-.61C50.46,39.3,50.87,38.82,50.87,38.26Z"/><path class="cls-1" d="M55.93,35.61h1.41V40.9H55.93Z"/><path class="cls-1" d="M67.75,36.2l-1.17.47a5.09,5.09,0,0,0-.83-.36,3.73,3.73,0,0,0-1.08-.12,3.6,3.6,0,0,0-1.25.18c-.32.11-.48.27-.48.45s.13.3.41.42a8,8,0,0,0,1.44.41,13,13,0,0,1,1.57.41,4,4,0,0,1,.92.41,1.62,1.62,0,0,1,.54.48.92.92,0,0,1,.18.54c0,.44-.32.81-1,1.12a5.18,5.18,0,0,1-2.3.47,6.66,6.66,0,0,1-2.33-.37,3.19,3.19,0,0,1-1.55-1.09l1.43-.2a3,3,0,0,0,2.4.89,3.29,3.29,0,0,0,1.3-.23c.35-.16.52-.36.52-.6a.58.58,0,0,0-.27-.43,2.19,2.19,0,0,0-.68-.36,11.9,11.9,0,0,0-1.29-.32A11.79,11.79,0,0,1,62.93,38a3.67,3.67,0,0,1-.82-.36,1.74,1.74,0,0,1-.51-.41.71.71,0,0,1-.16-.45c0-.38.3-.7.9-1a5.58,5.58,0,0,1,2.2-.4,8.74,8.74,0,0,1,1.74.19A4.11,4.11,0,0,1,67.75,36.2Z"/><path class="cls-2" d="M5,4.31C5,5.06,9.88,15,11.45,15.84s8.9,1.5,10.2,2,12.7,11.07,12.7,11.07V26.83s-9-8.31-9.11-8.69c-.64-.47,6.21-3.8,6.74-4.49A19.25,19.25,0,0,0,33.5,10.1c0-1-1.42.37-3.21,3.08-.9,1.35-5.82,3.53-6.81,3.51A103.46,103.46,0,0,1,13.26,15c-.51-.29-1.44-1.25-1.26-1.79s5.76-3.27,5.11-3.61-5.33,2.4-5.84,2.24C10.6,11.81,6.27,4.31,5,4.31Z"/><path class="cls-2" d="M34.35,33v-1.6C18,31.41,4.76,24.74,4.76,16.5a8.56,8.56,0,0,1,1.62-4.88L4.93,8.86c-2.38,2.29-3.72,4.89-3.72,7.65C1.21,25.62,15.88,33,34,33h.39"/><path class="cls-2" d="M34.35,1.59V0H34C24,0,15.1,2.24,9.09,5.77l1.29,2C15.76,4,24.49,1.59,34.35,1.59Z"/><path class="cls-2" d="M63.66,4.31c0,.75-4.85,10.69-6.42,11.53s-8.9,1.5-10.2,2-12.7,11.07-12.7,11.07V26.83s9-8.31,9.11-8.69c.64-.47-6.22-3.8-6.74-4.49a19.25,19.25,0,0,1-1.52-3.55c0-1,1.42.37,3.21,3.08.89,1.35,5.82,3.53,6.81,3.51s9.7-1.44,10.22-1.72,1.44-1.25,1.26-1.79-5.77-3.27-5.11-3.61,5.33,2.4,5.84,2.24C58.09,11.81,62.42,4.31,63.66,4.31Z"/><path class="cls-2" d="M34.34,33v-1.6c16.34,0,29.59-6.67,29.59-14.91a8.56,8.56,0,0,0-1.62-4.88l1.45-2.76c2.37,2.29,3.72,4.89,3.72,7.65,0,9.11-14.66,16.5-32.75,16.5h-.39"/><path class="cls-2" d="M34.34,1.59V0h.39c10,0,18.86,2.24,24.86,5.77l-1.28,2C52.93,4,44.2,1.59,34.34,1.59Z"/></g></g></svg>