<svg xmlns="http://www.w3.org/2000/svg" viewBox="0 0 651.56 262"><defs><style>.cls-1{fill:#fff;}.cls-2,.cls-3{fill:none;stroke:#0ba118;stroke-linecap:round;stroke-miterlimit:10;}.cls-2{stroke-width:1.06px;stroke-dasharray:4.13 4.13;}.cls-3{stroke-width:1.29px;stroke-dasharray:5.02 5.02;}.cls-4{fill:#414042;}.cls-5{fill:#47b549;}</style></defs><title>logo-image</title><g id="Layer_2" data-name="Layer 2"><g id="Layer_1-2" data-name="Layer 1"><ellipse class="cls-1" cx="324.75" cy="118.63" rx="244.24" ry="91.72"/><ellipse class="cls-2" cx="324.75" cy="124.22" rx="267.94" ry="106.22"/><ellipse class="cls-3" cx="325.78" cy="131" rx="325.13" ry="130.35"/><path class="cls-4" d="M252.47,154,262,165,271,154.58h4.18L262,170l-9.53-11.05L242.93,170l-13.15-15.38H234l9,10.54Z"/><path class="cls-4" d="M302.94,165H286.57a3.67,3.67,0,0,0,2.42,2.18,12.05,12.05,0,0,0,4.13.68,10.67,10.67,0,0,0,5.77-1.44l3,1.13q-3.33,2.17-8.91,2.17a15.63,15.63,0,0,1-7.16-1.48c-1.93-1-2.89-2.21-2.89-3.67s1-2.55,2.92-3.56a15.47,15.47,0,0,1,7.13-1.5,15.24,15.24,0,0,1,7.09,1.53Q303,162.61,302.94,165Zm-16-1.62h11.73a7.75,7.75,0,0,0-5.77-2C290.16,161.42,288.18,162.09,287,163.42Z"/><path class="cls-4" d="M313.12,154.58h4.28l9.3,10.58,9.37-10.58h4.31L326.65,170Z"/><path class="cls-4" d="M345.05,161.93q0-3.23,4.83-5.54a27,27,0,0,1,11.63-2.3,25.91,25.91,0,0,1,11.42,2.32q4.79,2.33,4.79,5.52,0,3.39-4.73,5.73A26.21,26.21,0,0,1,361.37,170a25.93,25.93,0,0,1-11.56-2.35Q345.05,165.29,345.05,161.93Zm28.37.1q0-2.47-3.54-4.17a20.12,20.12,0,0,0-8.69-1.69,19,19,0,0,0-8.41,1.72c-2.34,1.15-3.5,2.53-3.5,4.14s1.2,3,3.59,4.14a20.56,20.56,0,0,0,8.8,1.69,18.38,18.38,0,0,0,8.27-1.73Q373.42,164.4,373.42,162Z"/><path class="cls-4" d="M387.69,154.56h4v14.93h-4Z"/><path class="cls-4" d="M421.06,156.22l-3.28,1.32a15.07,15.07,0,0,0-2.35-1,10.85,10.85,0,0,0-3.06-.33,10.48,10.48,0,0,0-3.53.49c-.91.33-1.36.76-1.36,1.28s.39.85,1.18,1.2a23.25,23.25,0,0,0,4,1.14,42.1,42.1,0,0,1,4.45,1.15,11.88,11.88,0,0,1,2.61,1.18,5.26,5.26,0,0,1,1.52,1.35,2.63,2.63,0,0,1,.5,1.52c0,1.24-.9,2.3-2.69,3.17A14.59,14.59,0,0,1,412.6,170a19.47,19.47,0,0,1-6.58-1,9.18,9.18,0,0,1-4.38-3.08l4.05-.57c1.47,1.68,3.73,2.51,6.77,2.51a9,9,0,0,0,3.67-.66c1-.44,1.46-1,1.46-1.68a1.66,1.66,0,0,0-.76-1.23,6.8,6.8,0,0,0-1.92-1,33.4,33.4,0,0,0-3.62-.91,37.63,37.63,0,0,1-3.83-.94,11,11,0,0,1-2.33-1,5,5,0,0,1-1.43-1.18,2,2,0,0,1-.45-1.25c0-1.07.85-2,2.56-2.73a15.16,15.16,0,0,1,6.2-1.13,23.69,23.69,0,0,1,4.91.52A12.06,12.06,0,0,1,421.06,156.22Z"/><path class="cls-5" d="M244,66.17c0,2.13,13.68,30.19,18.11,32.57s25.14,4.24,28.8,5.57,35.86,31.24,35.86,31.24v-5.79S301.45,106.3,301,105.24c-1.79-1.34,17.55-10.75,19-12.68.47-.59,4.28-8.71,4.28-10,0-2.9-4,1-9.05,8.67-2.54,3.83-16.44,10-19.25,9.94s-27.38-4.09-28.84-4.88-4.07-3.53-3.57-5S279.92,82,278.08,81,263,87.8,261.59,87.37C259.7,87.37,247.48,66.17,244,66.17Z"/><path class="cls-5" d="M326.76,147.22V142.7c-46.15,0-83.55-18.85-83.55-42.1a24.23,24.23,0,0,1,4.57-13.79L243.7,79c-6.71,6.46-10.5,13.81-10.5,21.59,0,25.74,41.4,46.61,92.47,46.61h1.09"/><path class="cls-5" d="M326.76,58.49V54h-1.09c-28.1,0-53.26,6.31-70.22,16.28l3.62,5.61C274.26,65.35,298.92,58.49,326.76,58.49Z"/><path class="cls-5" d="M409.51,66.17c0,2.13-13.68,30.19-18.11,32.57s-25.14,4.24-28.8,5.57-35.85,31.24-35.85,31.24v-5.79S352,106.3,352.46,105.24c1.8-1.34-17.55-10.75-19-12.68-.47-.59-4.28-8.71-4.28-10,0-2.9,4,1,9.06,8.67,2.53,3.83,16.43,10,19.23,9.94s27.4-4.09,28.85-4.88,4.07-3.53,3.56-5S373.57,82,375.41,81s15.07,6.76,16.5,6.33C393.81,87.37,406,66.17,409.51,66.17Z"/><path class="cls-5" d="M326.75,147.22V142.7c46.14,0,83.55-18.85,83.55-42.1a24.18,24.18,0,0,0-4.59-13.79l4.1-7.79c6.69,6.46,10.49,13.81,10.49,21.59,0,25.74-41.39,46.61-92.47,46.61h-1.08"/><path class="cls-5" d="M326.75,58.49V54h1.08c28.09,0,53.26,6.31,70.21,16.28l-3.62,5.61C379.24,65.35,354.58,58.49,326.75,58.49Z"/></g></g></svg>