<svg xmlns="http://www.w3.org/2000/svg" viewBox="0 0 25.01 25"><defs><style>.cls-1{fill:#0ba118;}</style></defs><title>percent_complete</title><g id="Layer_2" data-name="Layer 2"><g id="Layer_1-2" data-name="Layer 1"><path class="cls-1" d="M12.48,2c-.36,0-.71,0-1.06,0-.2,0-.28,0-.3-.23L10.94.4c0-.23.06-.31.29-.34a12.1,12.1,0,0,1,6.34,1,12.17,12.17,0,0,1,7.26,9.46A12,12,0,0,1,21.62,21,12,12,0,0,1,14,24.91a12.24,12.24,0,0,1-9.12-2.53c-.26-.19-.26-.34,0-.56a9.63,9.63,0,0,0,.76-.93c.19-.27.34-.23.57-.05a10.35,10.35,0,0,0,4.49,2A10.5,10.5,0,1,0,14.28,2.15,10.93,10.93,0,0,0,12.48,2Z"/><path class="cls-1" d="M18.57,14.64a4.51,4.51,0,0,1-.25,1.75,2.19,2.19,0,0,1-2.11,1.5A2.17,2.17,0,0,1,14,16.48a5.18,5.18,0,0,1,0-3.64,2.07,2.07,0,0,1,2.12-1.47,2.2,2.2,0,0,1,2.19,1.34A4.15,4.15,0,0,1,18.57,14.64Zm-3.08,0A3.48,3.48,0,0,0,15.66,16c.07.21.19.39.45.39a.47.47,0,0,0,.47-.39,4.65,4.65,0,0,0,0-2.59.48.48,0,0,0-.47-.42c-.29,0-.41.2-.49.44A3.79,3.79,0,0,0,15.49,14.64Z"/><path class="cls-1" d="M11.39,10.52a4.35,4.35,0,0,1-.28,1.87,2.16,2.16,0,0,1-2,1.4,2.11,2.11,0,0,1-2.25-1.33,5.14,5.14,0,0,1,0-3.8A2.09,2.09,0,0,1,8.93,7.28a2.25,2.25,0,0,1,2.16,1.4A4,4,0,0,1,11.39,10.52Zm-3.07,0a3.57,3.57,0,0,0,.15,1.29c.07.22.18.4.44.41a.47.47,0,0,0,.49-.4,4.66,4.66,0,0,0,0-2.59c-.07-.22-.2-.42-.48-.41s-.4.2-.47.43A3.55,3.55,0,0,0,8.32,10.55Z"/><path class="cls-1" d="M9.7,17.75c-.94,0-.94,0-.48-.81,1.65-3,3.31-6,4.95-8.94.24-.44.49-.67,1-.59a4.33,4.33,0,0,0,.72,0c.27,0,.35.08.2.35l-2.66,4.78c-.87,1.56-1.75,3.12-2.6,4.69-.21.4-.44.61-.89.53A1,1,0,0,0,9.7,17.75Z"/><path class="cls-1" d="M4.16,6.08A1.93,1.93,0,0,1,4,6.29,10.45,10.45,0,0,0,2.9,8.23c-.08.19-.17.27-.38.17-.44-.2-.88-.38-1.33-.55C1,7.77,1,7.67,1.05,7.48A12.42,12.42,0,0,1,2.47,5c.08-.11.17-.18.31-.07L4.05,6A.75.75,0,0,1,4.16,6.08Z"/><path class="cls-1" d="M.44,10.87l1.38.19c.21,0,.26.13.24.33a10.58,10.58,0,0,0,0,2.25c0,.18,0,.29-.21.31l-1.53.2c-.19,0-.23-.1-.24-.25a13,13,0,0,1,0-2.79C.1,10.86.25,10.85.44,10.87Z"/><path class="cls-1" d="M8.49,2.65c0,.12-.07.16-.16.2a11.18,11.18,0,0,0-2.06,1.2c-.13.09-.22.06-.31-.06l-.91-1.2c-.12-.15-.1-.25,0-.36A12.69,12.69,0,0,1,7.52,1c.15-.06.28-.08.36.11.19.47.39,1,.59,1.42A.29.29,0,0,1,8.49,2.65Z"/><path class="cls-1" d="M2.67,20.11c-.12,0-.16-.1-.22-.18a12.23,12.23,0,0,1-1.37-2.35c-.11-.23-.07-.35.17-.44.41-.15.82-.33,1.23-.51.2-.09.33-.08.43.15a10.24,10.24,0,0,0,1.15,2c.08.11.13.21,0,.32-.43.32-.85.65-1.27,1Z"/></g></g></svg>