<svg id="portal-vehicle" xmlns="http://www.w3.org/2000/svg" width="91.848" height="57.602" viewBox="0 0 91.848 57.602">
  <path id="Path_260" data-name="Path 260" d="M54.24,141.52V150.7H65.992s0-10.838,9.185-11.294a9.185,9.185,0,0,1,9.407,8.929,9.308,9.308,0,0,1-.242,2.365h25.714a12.5,12.5,0,0,1,3.151-9.185H85.658a12.679,12.679,0,0,0-20.3,0Z" transform="translate(-54.24 -98.337)" fill="#010101"/>
  <path id="Path_261" data-name="Path 261" d="M65.454,101.19c-4.871,0-7.169,7.626-7.169,7.626L56.1,113.224l-1.841,2.291v12.222l10.011-.181a15.514,15.514,0,0,1,17.543-4.031V101.19Zm11.113,9.366-8.452,3.312a5.94,5.94,0,0,0-3.763,4.7v2.479l-5.147-.087v-4.985l2.271-6.8s1.841-4.952,5.879-5.415h9.212Z" transform="translate(-54.247 -86.771)" fill="#010101"/>
  <path id="Path_262" data-name="Path 262" d="M82.316,144.12a7.156,7.156,0,1,0,5.069,2.1A7.169,7.169,0,0,0,82.316,144.12Zm0,10.75a3.581,3.581,0,1,1,3.581-3.581A3.581,3.581,0,0,1,82.316,154.87Z" transform="translate(-61.097 -100.857)" fill="#010101"/>
  <path id="Path_263" data-name="Path 263" d="M148.609,144.12a7.169,7.169,0,1,0,7.169,7.169A7.169,7.169,0,0,0,148.609,144.12Zm0,10.75a3.581,3.581,0,1,1,3.588-3.581A3.581,3.581,0,0,1,148.609,154.87Z" transform="translate(-82.851 -100.857)" fill="#010101"/>
  <path id="Path_264" data-name="Path 264" d="M162.23,144a10.2,10.2,0,0,1,2.688,9.185h4.959V144Z" transform="translate(-89.672 -100.817)" fill="#010101"/>
  <path id="Path_265" data-name="Path 265" d="M151.888,101.508l-7.807,23.053-42.067-.37L93.655,94.708,88.7,93.7l-.826-3.03,12.853.732,1.384,5.234,54.464,1.2.551,2.2Z" transform="translate(-65.274 -83.319)" fill="#0ba118"/>
  <path id="Path_266" data-name="Path 266" d="M119.31,90.474,136.578,79.73l17.449,12.4Z" transform="translate(-75.59 -79.73)" fill="#0ba118"/>
  <path id="Path_267" data-name="Path 267" d="M137.484,108.16h5.234l.551.558v.551h0v.672h.551v.739l-.921,1.559a1.149,1.149,0,0,1-.672,1.008h-2.016s-.551-1.008-.827-1.465v-.672l-.457-.921-.551-.914h-.464S137.39,108.254,137.484,108.16Z" transform="translate(-81.549 -89.058)" fill="#fff"/>
  <path id="Path_268" data-name="Path 268" d="M135.341,108.85l.826,1.1h0a.82.82,0,0,1,0,1.1,3.767,3.767,0,0,1-.551,1.008v.464l-1.1,1.834H132.5l-1.559-.921h0v-.672h0l.732-1.29h0v-.511a2.479,2.479,0,0,1,1.472-.827A2.828,2.828,0,0,1,135.341,108.85Z" transform="translate(-79.406 -89.284)" fill="#fff"/>
  <path id="Path_269" data-name="Path 269" d="M147.076,116.8h0c.672-.672.826-.672,1.283,0h0l.672,1.1a6.123,6.123,0,0,1,.732,1.559,2.391,2.391,0,0,1,0,1.471,2.19,2.19,0,0,1-1.283,1.2,5.913,5.913,0,0,1-1.377,0,.907.907,0,0,1-1.008-.672l-.558-1.008-.275-1.2-.672-1.008h0a10.051,10.051,0,0,1,1.377-.921A7.347,7.347,0,0,1,147.076,116.8Z" transform="translate(-83.884 -91.729)" fill="#fff"/>
  <path id="Path_270" data-name="Path 270" d="M126.663,117.858h2.479a8.176,8.176,0,0,1,1.283,0,1.344,1.344,0,0,1,.672,1.008h0a8.568,8.568,0,0,1,.921,1.471v.921c0,.37,0,0-.464,0h-.672v.672l-.921,1.559h0l-.672,1.2h0v-.464l-.88-1.572-.826-1.344h0v-.457a.927.927,0,0,1,0-1.014h0l.551-1.008h0v-.464a.773.773,0,1,1-1.471-.457Z" transform="translate(-77.984 -92.232)" fill="#fff"/>
  <path id="Path_271" data-name="Path 271" d="M142.3,123.75h0a5.283,5.283,0,0,0,0,.92h4.777v1.344l-.9,1.592h0a1.284,1.284,0,0,1-1.465.921h-1.66c-.551,0-.551,0-.638.638a2.71,2.71,0,0,1,0,.464h0l-.551-1.015h0l-1.2-.457h0a1.008,1.008,0,0,1,0-1.377l.826-1.471h0l.457-.826S142.145,123.75,142.3,123.75Z" transform="translate(-82.508 -94.173)" fill="#fff"/>
  <path id="Path_272" data-name="Path 272" d="M129.791,128.4v.551h0S129.609,128.487,129.791,128.4Z" transform="translate(-79.002 -95.699)" fill="#fff"/>
  <path id="Path_273" data-name="Path 273" d="M131,126.562v-.672h3.675c.739,0,.739,0,.739.914v3.03c0,.275,0,.551-.551.551h-2.3a2.4,2.4,0,0,1-1.566-.732v-.672a2.279,2.279,0,0,1,0-1.465Z" transform="translate(-79.386 -94.875)" fill="#fff"/>
</svg>
