<svg version="1.1" id="Capa_1" xmlns="http://www.w3.org/2000/svg" xmlns:xlink="http://www.w3.org/1999/xlink" x="0px" y="0px"
	 viewBox="0 0 477.112 477.112" style="enable-background:new 0 0 477.112 477.112;" xml:space="preserve">
<path style="fill:Red;" d="M238.556,8c-88.366,0-160,71.634-160,160c0,88.368,160,296,160,296s160-207.632,160-296
	C398.556,79.634,326.922,8,238.556,8z M238.556,216c-26.51,0-48-21.49-48-48s21.49-48,48-48s48,21.49,48,48S265.066,216,238.556,216
	z"/>
<circle style="fill:Red;" cx="238.556" cy="168" r="48"/> 
	<path style="fill:White;" d="M238.556,224c-30.928,0-56-25.072-56-56s25.072-56,56-56s56,25.072,56,56
		C294.521,198.913,269.469,223.965,238.556,224z M238.556,128c-22.091,0-40,17.909-40,40s17.909,40,40,40s40-17.909,40-40
		C278.53,145.92,260.636,128.026,238.556,128z"/>
</svg>
