<svg xmlns="http://www.w3.org/2000/svg" viewBox="0 0 14.99 25"><defs><style>.cls-1{fill:#0ba118;}.cls-2{fill:#fff;}.cls-3{fill:none;stroke:#0ba118;stroke-miterlimit:10;}</style></defs><title>route-percent</title><g id="Layer_2" data-name="Layer 2"><g id="Layer_1-2" data-name="Layer 1"><path class="cls-1" d="M8.35,0a2.76,2.76,0,0,1,2.36,1.36,2.53,2.53,0,0,1,.38,1.19,2.88,2.88,0,0,1-.72,2.14L9.44,5.87,8.53,7l-.15.19c-.05.07-.07,0-.11,0l-.64-.81L6.25,4.65A2.92,2.92,0,0,1,5.56,3a2.78,2.78,0,0,1,2.18-3A2.92,2.92,0,0,1,8.35,0ZM10,2.75a1.7,1.7,0,0,0-3.4,0,1.7,1.7,0,1,0,3.4,0Z"/><path class="cls-1" d="M6.78,21.91a1.08,1.08,0,0,1-.25.69l-.69.87c0,.07-.07.07-.12,0l-.66-.83a1,1,0,0,1-.24-1,1,1,0,0,1,.9-.71,1,1,0,0,1,1,.55A.89.89,0,0,1,6.78,21.91Zm-1-.59a.59.59,0,0,0-.6.62.6.6,0,1,0,1.2,0A.58.58,0,0,0,5.78,21.32Z"/><path class="cls-1" d="M6.68,23.59l-.32,0c-.09,0-.05-.07-.05-.12s0-.09.06-.09l.54,0c.09,0,.06.06.06.11s0,.1-.07.09H6.68Z"/><path class="cls-1" d="M7.65,15.34a2.88,2.88,0,0,0-.42,0c-.09,0-.1,0-.09-.15s.06-.07.11-.06l.44,0c.12,0,.12,0,.11.13S7.72,15.33,7.65,15.34Z"/><path class="cls-1" d="M2.8,14.41l-.06.13s0,0-.06,0l-.51-.23s0,0,0-.09.06-.12.19-.06a3.08,3.08,0,0,0,.38.16A.09.09,0,0,1,2.8,14.41Z"/><path class="cls-1" d="M3.58,7.5s0,0,0,0l0,.05c0,.13,0,.13-.09.17l-.42.15C3,7.92,3,7.83,3,7.79s0-.08,0-.1l.53-.18Z"/><path class="cls-1" d="M2,8.49c-.06,0-.07-.09-.11-.13s0,0,0-.07L2.34,8c.06,0,.09,0,.1,0s.1.1,0,.15A3.35,3.35,0,0,0,2,8.47Z"/><path class="cls-1" d="M12,22.74s0,.05,0,.06l-.51.18c-.05,0-.07,0-.09-.05s0-.13.09-.17l.38-.14C11.94,22.59,12,22.63,12,22.74Z"/><path class="cls-1" d="M4,14.78c0,.13,0,.15-.15.12l-.45-.11c-.09,0,0-.08,0-.13s0-.09.1-.07l.48.12S4,14.72,4,14.78Z"/><path class="cls-1" d="M13.16,22.14a.06.06,0,0,1,0,.06,3.82,3.82,0,0,1-.48.29s-.05,0-.07,0l0-.07s0-.07,0-.1A2.22,2.22,0,0,0,13,22s.09,0,.12,0Z"/><path class="cls-1" d="M11.63,15.49a.81.81,0,0,1,0,.11c0,.05,0,.06-.08,0a3.88,3.88,0,0,0-.49-.11c-.1,0-.06-.07-.06-.13s0-.09.1-.08l.5.12S11.64,15.46,11.63,15.49Z"/><path class="cls-1" d="M10.12,23.15a0,0,0,0,1,.05-.06l.52-.12a.05.05,0,0,1,.07,0c.05.14,0,.15-.1.18l-.39.09C10.15,23.3,10.12,23.28,10.12,23.15Z"/><path class="cls-1" d="M6.08,7.05c.07,0,.06.06.07.12s0,.09-.09.09l-.45,0s-.08,0-.1,0a.26.26,0,0,1,0-.15s0,0,0,0Z"/><path class="cls-1" d="M4.78,7.22c.12,0,.09.06.1.1s0,.08,0,.1l-.53.1c-.08,0-.06,0-.08-.1s0-.08,0-.1Z"/><path class="cls-1" d="M14.16,18.13s0,0-.05,0a4.24,4.24,0,0,0-.18-.5c0-.06,0-.07.06-.09s.11,0,.14.05a3.47,3.47,0,0,1,.16.41C14.33,18.08,14.29,18.13,14.16,18.13Z"/><path class="cls-1" d="M.39,10.4a3.33,3.33,0,0,1,.18-.56s0,0,.06,0,.15.06.1.19a2.8,2.8,0,0,0-.13.41c0,.05,0,.07-.08.05S.4,10.48.39,10.4Z"/><path class="cls-1" d="M.87,12.87c0,.06-.08.07-.13.1s-.05,0-.07,0a3.75,3.75,0,0,1-.21-.5c0-.09,0-.08.09-.1s.09,0,.11.05a2.44,2.44,0,0,0,.19.44Z"/><path class="cls-1" d="M9.91,15.2l.38,0c.12,0,.06.09.07.15s0,.06-.08,0l-.49,0c-.06,0-.1,0-.09-.09s0-.15.11-.12A.34.34,0,0,0,9.91,15.2Z"/><path class="cls-1" d="M12.25,15.69h0a4.53,4.53,0,0,1,.48.27s.05.06,0,.09,0,.13-.13.08l-.45-.24s-.06,0,0-.08S12.2,15.72,12.25,15.69Z"/><path class="cls-1" d="M14.51,20a2.53,2.53,0,0,1-.12.56s0,.06-.08,0-.14,0-.09-.18a1.86,1.86,0,0,0,.08-.41c0-.06,0-.08.09-.07S14.52,20,14.51,20Z"/><path class="cls-1" d="M6.42,15.27l-.47,0c-.08,0-.09-.05-.08-.12s0-.1.11-.09l.45,0c.07,0,.11,0,.1.1S6.5,15.29,6.42,15.27Z"/><path class="cls-1" d="M1.06,9.35a.26.26,0,0,1-.13-.1s0-.05,0-.08a3,3,0,0,1,.33-.38c.07-.08.1,0,.14,0s.05.07,0,.12a2.91,2.91,0,0,0-.33.37S1.09,9.35,1.06,9.35Z"/><path class="cls-1" d="M9,23.48c-.11,0-.08-.09-.09-.14s0-.07.08-.07.32,0,.47-.06.1,0,.11.08,0,.11-.06.12Z"/><path class="cls-1" d="M4.6,15c0-.14,0-.15.14-.13l.46.07c.07,0,.07.05,0,.09s0,.12-.07.11l-.53-.08S4.58,15,4.6,15Z"/><path class="cls-1" d="M8.86,15.38l-.38,0s-.07,0-.06-.06,0-.14.06-.14.37,0,.56,0c0,0,0,0,0,0v0c0,.15,0,.15-.14.15Z"/><path class="cls-1" d="M14.53,19.24c0,.12-.07.16-.18.13s0,0,0-.05a4.75,4.75,0,0,0-.05-.53c0-.08.05-.07.09-.07s.11,0,.11.05Z"/><path class="cls-1" d="M14.08,21.24l0,.07a3.36,3.36,0,0,1-.34.41s0,0-.08,0l-.07-.07s0,0,0-.08a3.89,3.89,0,0,0,.32-.39s0-.06.07,0A.57.57,0,0,1,14.08,21.24Z"/><path class="cls-1" d="M7.74,23.57h0c-.11,0-.11,0-.11-.12s0-.09.09-.09l.49,0c.06,0,.07,0,.07.07s0,.14-.13.15Z"/><path class="cls-1" d="M13.32,16.41a.06.06,0,0,1,0,0c.12.13.24.26.35.4s0,.09,0,.12-.09.09-.15,0a3.57,3.57,0,0,0-.31-.37s-.07,0,0-.07A.26.26,0,0,1,13.32,16.41Z"/><path class="cls-1" d="M1.24,13.38l0,0a2.5,2.5,0,0,0,.39.34s0,.05,0,.09a.21.21,0,0,0,0,.06c0,.06-.06,0-.1,0s-.25-.21-.37-.33-.08-.08,0-.16S1.2,13.39,1.24,13.38Z"/><path class="cls-1" d="M.31,11.35v-.21c0-.07,0-.07.09-.06s.11,0,.11.06a4.61,4.61,0,0,0,0,.52c0,.1-.09.06-.14.08s-.06,0-.07-.07S.31,11.46.31,11.35Z"/><path class="cls-1" d="M7.09,7.22H6.84c-.08,0-.07,0-.07-.1s0-.11.07-.1h.52s.08,0,.07.05,0,.14-.07.15Z"/><circle class="cls-1" cx="4.78" cy="21.44" r="3.56"/><path class="cls-2" d="M7,22.25a1.57,1.57,0,0,1-.09.6.74.74,0,0,1-.72.51.74.74,0,0,1-.76-.48,1.79,1.79,0,0,1,0-1.25.72.72,0,0,1,.73-.5.74.74,0,0,1,.74.46A1.36,1.36,0,0,1,7,22.25Zm-1,0a1.16,1.16,0,0,0,0,.45c0,.07.07.13.16.13a.16.16,0,0,0,.16-.13,1.55,1.55,0,0,0,0-.88c0-.08-.06-.15-.16-.15s-.14.07-.17.15A1.26,1.26,0,0,0,6,22.25Z"/><path class="cls-2" d="M4.59,20.84a1.51,1.51,0,0,1-.1.64A.73.73,0,0,1,3.8,22,.73.73,0,0,1,3,21.51a1.77,1.77,0,0,1,0-1.3.7.7,0,0,1,.74-.47.75.75,0,0,1,.73.47A1.4,1.4,0,0,1,4.59,20.84Zm-1,0a1.09,1.09,0,0,0,0,.44c0,.08.06.14.15.14a.16.16,0,0,0,.17-.13,1.68,1.68,0,0,0,0-.89.16.16,0,0,0-.16-.14.19.19,0,0,0-.17.15A1.24,1.24,0,0,0,3.54,20.85Z"/><path class="cls-2" d="M4,23.31c-.32,0-.32,0-.17-.28C4.41,22,5,21,5.53,20c.09-.15.17-.23.35-.2h.24c.1,0,.12,0,.07.12-.3.54-.6,1.09-.91,1.63s-.6,1.07-.88,1.6c-.08.14-.16.21-.31.18Z"/><path class="cls-3" d="M7.36,7.22S0,6.85.53,11.66c0,0-.91,4.18,9.3,3.55a.43.43,0,0,1,.16,0c.65,0,4.86.46,4.48,4.54a2.94,2.94,0,0,1-.36,1.19c-.52.91-1.94,2.43-5.58,2.35"/></g></g></svg>