<svg xmlns="http://www.w3.org/2000/svg" viewBox="0 0 35.44 56"><defs><style>.cls-1{fill:#fff;}.cls-2,.cls-3{fill:#1bc136;}.cls-3{stroke:#1bc136;stroke-miterlimit:10;stroke-width:0.21px;}</style></defs><title>start</title><g id="Layer_2" data-name="Layer 2"><g id="Layer_1-2" data-name="Layer 1"><circle class="cls-1" cx="17.81" cy="17.85" r="14.06"/><path class="cls-2" d="M35.44,17.4a20.32,20.32,0,0,0-.79-5.14,7.28,7.28,0,0,0-.45-1.53,19.54,19.54,0,0,0-3-4.66c-.35-.41-.75-.76-1.12-1.15L30,4.76a18,18,0,0,0-4.4-3c-.52-.24-1-.46-1.58-.68S22.64.62,22,.43A24.11,24.11,0,0,0,19.45,0H19a.13.13,0,0,1-.18,0l0,0h-2a.14.14,0,0,1-.2,0l0,0h-.54a9.44,9.44,0,0,1-1.29.15A17.16,17.16,0,0,0,5.9,4.44,17.6,17.6,0,0,0,.25,14.78a4.51,4.51,0,0,1-.1.53A15.62,15.62,0,0,0,0,18.21a3.64,3.64,0,0,0,0,.66,24.45,24.45,0,0,0,1.19,4.84c.21.56.39,1.12.58,1.69C2.47,27.2,3.23,29,4,30.74c.28.53.51,1.06.74,1.61.47.88.84,1.81,1.3,2.7A24.17,24.17,0,0,1,7.2,37.44l.12.2c.32.43.4,1,.83,1.36l2.69,5.06a2.69,2.69,0,0,0,.71,1.34c.94,1.62,1.86,3.26,2.78,4.89a3,3,0,0,0,.87,1.37L17.84,56c.12-.19.21-.32.29-.47,2.59-4.31,5.11-8.66,7.48-13.15l1.73-3.11a28,28,0,0,0,2.18-4.17v-.21l.18-.44C30.86,32,32,29.54,33,27c.66-1.65,1.18-3.36,1.77-5.06a2.28,2.28,0,0,0,.34-.8,8.64,8.64,0,0,0,.33-2.37Zm-4.35,3.23a13.42,13.42,0,0,1-9,10,12.37,12.37,0,0,1-6,.6,6.93,6.93,0,0,1-2-.42A11.72,11.72,0,0,1,10,28.85c-.32-.21-.6-.47-.89-.7A5.75,5.75,0,0,1,8,27a11.73,11.73,0,0,1-2.88-4.57,7.88,7.88,0,0,1-.62-2A13.48,13.48,0,0,1,5.39,12a1.76,1.76,0,0,1,.14-.23,12.85,12.85,0,0,1,6.34-6.37,13,13,0,0,1,7.91-1.24,4.57,4.57,0,0,1,.95.19,6.12,6.12,0,0,1,1.69.51,11.93,11.93,0,0,1,4.67,2.86,5.5,5.5,0,0,1,1.12,1.19,12.21,12.21,0,0,1,2.61,4.89,6.35,6.35,0,0,1,.42,1.92A11.86,11.86,0,0,1,31.09,20.63Z"/><path class="cls-3" d="M25.57,16.77,13.84,10A1.25,1.25,0,0,0,12,11.08V24.62a1.25,1.25,0,0,0,1.87,1.08l11.73-6.77A1.25,1.25,0,0,0,25.57,16.77Z"/></g></g></svg>