<svg xmlns="http://www.w3.org/2000/svg" xmlns:xlink="http://www.w3.org/1999/xlink" viewBox="0 0 65.1 48"><defs><style>.cls-1{fill:url(#linear-gradient);}.cls-2{fill:url(#linear-gradient-2);}</style><linearGradient id="linear-gradient" y1="28.33" x2="65.1" y2="28.33" gradientUnits="userSpaceOnUse"><stop offset="0" stop-color="#3c91e4"/><stop offset="0.51" stop-color="#9c6ed7"/><stop offset="1" stop-color="#c78edf"/></linearGradient><linearGradient id="linear-gradient-2" x1="22.76" y1="10.17" x2="64.44" y2="10.17" xlink:href="#linear-gradient"/></defs><title>tractor</title><g id="Layer_2" data-name="Layer 2"><g id="Layer_1-2" data-name="Layer 1"><path class="cls-1" d="M62,19.92A16.33,16.33,0,0,0,64.18,23c.95,1.35,1,1.33-.67,1.72-1.4.32-2.79.67-4.34,1,1.74,2,3.36,3.88,5,5.71a2.66,2.66,0,0,1,.75,1.84c0,1.31.06,2.63.16,3.93.05.72-.26.93-.88.93H61.27c.36.71.94,1,1.37,1.36s.57.48.36,1-.58.21-.87.16-.76-.29-1.25-.15c.35.51.66,1,1,1.46A.74.74,0,0,1,62,43c-.34.45-.61,0-.88-.09s-.66-.36-1.1-.6a5.56,5.56,0,0,0,.56,1.82.75.75,0,0,1-.27,1c-.4.28-.55-.13-.74-.32a10.33,10.33,0,0,1-.79-.94l-.25.15c0,.56.05,1.12.11,1.68s.07.85-.46,1-.52-.34-.71-.59-.31-.69-.66-.92a6.76,6.76,0,0,0-.42,1.9c-.08.45-.36.55-.71.6s-.37-.31-.45-.55c-.13-.43-.25-.86-.43-1.47-.3.63-.54,1.1-.75,1.58s-.35.86-1,.72-.27-.61-.32-.93A2.92,2.92,0,0,0,52.49,46c-.38.46-.79.9-1.14,1.38a.69.69,0,0,1-1,.27c-.49-.21-.14-.52-.11-.78s.3-.77.18-1.32c-.54.37-1.05.7-1.53,1.08a.68.68,0,0,1-.92,0c-.42-.29-.11-.55,0-.8s.42-.75.75-1.34c-.79.28-1.34.44-1.87.68a.75.75,0,0,1-1-.19c-.38-.45.12-.59.29-.83s.6-.45.73-1c-.62,0-1.19.07-1.76.12a.71.71,0,0,1-.84-.42c-.22-.5.25-.56.5-.74s.63-.4,1-.65A4.4,4.4,0,0,0,43.93,41a.72.72,0,0,1-.63-.68c-.1-.51.36-.42.61-.52s.79-.23,1.27-.36a5.2,5.2,0,0,0-1.71-.92.71.71,0,0,1-.46-.81c.05-.5.44-.33.72-.35A3.53,3.53,0,0,0,45,37.11c-.46-.38-.91-.78-1.39-1.14a.7.7,0,0,1-.26-1c.22-.47.52-.12.79-.1s.77.31,1.32.18c-.31-.45-.57-.87-.86-1.27s-.62-.7-.22-1.18.73,0,1.06.16a6.17,6.17,0,0,1,.91.5,4.69,4.69,0,0,0-.53-1.8.74.74,0,0,1,.22-1c.46-.33.59.15.83.33s.54.5,1,.92c0-.78-.07-1.35-.14-1.91,0-.41,0-.74.44-.92s.55.26.73.51.39.64.58,1c.09-.05.18-.07.19-.11.65-2.33.66-2.21-1.7-1.82a3.92,3.92,0,0,0-3.28,2.6,62.1,62.1,0,0,1-3.49,7,1.26,1.26,0,0,0-.11.49c-.15,1.51-.15,1.51-1.62,1.51-3.93,0-7.87,0-11.8,0-1,0-1.57-.17-1.43-1.3,0-.31.05-.63-.44-.63-1.08,0-2.17,0-3.26,0l-.08.28c.49.41,1,.83,1.47,1.22a.67.67,0,0,1,.21.91c-.17.37-.48.16-.73.12-.42-.08-.84-.2-1.47-.36.49.71.83,1.26,1.22,1.77a.66.66,0,0,1-.07.93c-.26.32-.49.06-.72-.06L21,42.24c.28.74.46,1.25.65,1.75s.31.75-.14,1.09-.64-.16-.89-.35a10.74,10.74,0,0,1-.9-.84,4.67,4.67,0,0,0,.07,1.81c.05.45.06.83-.46,1s-.53-.32-.71-.56-.3-.69-.76-1c-.11.65-.25,1.24-.3,1.83a.72.72,0,0,1-.74.71c-.45,0-.4-.39-.49-.66s-.21-.71-.39-1.35c-.36.74-.64,1.26-.87,1.81a.71.71,0,0,1-.89.47c-.47-.09-.3-.48-.32-.75s0-.76,0-1.26a5.71,5.71,0,0,0-1.37,1.42.66.66,0,0,1-.89.24c-.43-.21-.2-.52-.14-.8s.19-.79.36-1.43c-.67.46-1.17.78-1.64,1.13a.73.73,0,0,1-1,.06c-.47-.36,0-.6.1-.86s.36-.67.59-1.1a4.52,4.52,0,0,0-1.79.53.77.77,0,0,1-1-.21c-.37-.47.12-.61.32-.81a7.67,7.67,0,0,1,.92-.66l-.19-.34c-.6,0-1.2,0-1.79.13a.69.69,0,0,1-.86-.53c-.16-.47.3-.45.51-.61s.68-.44,1.09-.69A5.58,5.58,0,0,0,5.14,41a.7.7,0,0,1-.65-.67c-.06-.49.35-.45.61-.54s.78-.22,1.28-.36a6.68,6.68,0,0,0-1.81-.94.68.68,0,0,1-.42-.83c.08-.4.42-.3.67-.31a3.85,3.85,0,0,0,1.45-.15c-.56-.47-1-.87-1.5-1.24A.72.72,0,0,1,4.55,35c.17-.48.5-.17.77-.12s.79.17,1.46.31c-.47-.67-.77-1.15-1.13-1.59a.7.7,0,0,1-.07-1c.34-.44.61-.06.89.07s.66.37,1.08.61a4.58,4.58,0,0,0-.49-1.68c-.13-.4-.31-.77.14-1.1s.63.18.9.35.46.6.9.7a5,5,0,0,0-.11-1.73c0-.42,0-.74.45-.92s.56.25.73.51.4.67.74,1.24c.15-.9.27-1.5.35-2.1a.7.7,0,0,1,.68-.65c.48-.08.43.35.52.6s.23.77.34,1.16c.13-.05.22-.05.25-.09,1-1.9,1-1.91-1.06-1.92-1.18,0-2.35,0-3.52,0a1.08,1.08,0,0,0-1.17.75c-1.4,3-2.85,5.89-4.29,8.84C2.6,37.86.69,38.39.14,38c-.34-.28,0-.57.15-.8C1.52,34.92,2.78,32.7,4,30.47a5.7,5.7,0,0,1,.3-.54A18.17,18.17,0,0,0,7.61,19.78,23.25,23.25,0,0,1,8,16.91c.12-.74,0-1.22-.88-1.06a2.94,2.94,0,0,1-.42,0c-.33,0-.7.08-.71-.48s.3-.53.66-.53h.42c3.93,0,7.86,0,11.8,0,.71,0,.89.14,1,.91.79,4.1,1.72,8.16,2.6,12.24a1.47,1.47,0,0,0,.88,1.07c-.44-2.35-.86-4.61-1.28-6.88s-.94-4.73-1.34-7.11c-.13-.75-.44-.92-1.15-.91-5,0-10,0-15,0a1.18,1.18,0,0,1-1.37-1c-.48-1.57-1.06-3.11-1.54-4.5,2.66,0,5.27,0,7.89,0,3,.06,6,.25,9,.33.74,0,1.19.19,1.27,1a.44.44,0,0,0,0,.1c.14,1.3.77,1.82,2.16,2,7.66,1,15.3,2.08,23,3.15l14,1.94a3.63,3.63,0,0,1,1.36.44ZM12.34,25.37h0c1.38,0,2.76,0,4.14,0,.61,0,.85-.17.83-.82,0-2,0-3.93,0-5.89,0-.6-.21-.76-.78-.76-2.52,0-5,.05-7.55,0-.57,0-.77.2-.83.75-.21,2-.45,4-.7,6-.06.54.19.64.65.63C9.51,25.36,10.93,25.37,12.34,25.37Zm12.23,11.8c0-.77-.14-1.49-.11-2.2a3.37,3.37,0,0,0-1.15-2.9c-1.52-1.34-1.46-1.41-2.71.21,0,0,0,.07,0,.22.61,0,1.25-.08,1.88-.16.45-.06.63.21.76.54s-.24.43-.45.56a4.29,4.29,0,0,0-1.17.83l1.84.31c.41.07.71.23.72.71s-.38.39-.64.51-.86.1-1.23.51A9.37,9.37,0,0,0,24.57,37.17Zm29.14-7.38c.51-.61.9-1,1.24-1.49s.52-.53,1-.35.19.58.16.88-.34.76-.15,1.26c.55-.39,1.09-.75,1.61-1.13.32-.24.57-.12.84.06s.13.48,0,.71l-.75,1.38,2.54-.9c-.3-.34-.56-.57-.76-.84a4.12,4.12,0,0,0-4.07-1.75C53.55,27.8,53.53,27.65,53.71,29.79Zm-36.8.44c.72-.51,1.29-.88,1.83-1.3.34-.26.56-.05.83.1s.12.47,0,.69c-.21.4-.43.79-.79,1.41l2.53-.91c-1.26-1.59-2.5-2.93-4.85-2.61-1.7.23-1.72,0-1.59,1.77,0,.05.07.1.16.24.41-.48.8-.94,1.17-1.42a.7.7,0,0,1,.91-.24c.41.19.23.52.17.8S17.07,29.61,16.91,30.23Zm44,6a17.66,17.66,0,0,0,2.29.91V33.62a1,1,0,0,0-.35-.73c-.58-.58-1.15-1.18-1.75-1.76-.13-.12-.25-.48-.55-.12s-.8.88-1.36,1.49c.86-.06,1.47-.09,2.07-.16a.66.66,0,0,1,.75.4c.21.44-.14.53-.38.7s-.82.35-1.12.84c.62.1,1.18.21,1.75.29a.8.8,0,0,1,.79.68c.07.54-.41.45-.7.55S61.66,36,60.94,36.24Zm-9.34-6.4a7.87,7.87,0,0,0,.95-2.1c-.52-.13-1.26-.27-1.39.06C50.92,28.43,51.35,29.1,51.6,29.84ZM13,36.71c0-.3-.17-.51-.49-.51a.47.47,0,0,0-.5.51.45.45,0,0,0,.43.47C12.76,37.21,12.94,37,13,36.71Zm1.4-1.58a.45.45,0,0,0-.5.5.47.47,0,0,0,.52.48.49.49,0,0,0,0-1Zm37.37,1.53c-.06-.31-.22-.51-.54-.46a.46.46,0,0,0-.41.58.44.44,0,0,0,.48.41C51.63,37.17,51.76,37,51.77,36.66Zm3.29,2.7c.3,0,.52-.19.49-.53a.45.45,0,0,0-.48-.43c-.34,0-.49.19-.48.52S54.79,39.33,55.06,39.36Zm-40.62.12a.47.47,0,0,0-.55.48.5.5,0,0,0,.52.51.46.46,0,0,0,.46-.45A.46.46,0,0,0,14.44,39.48Z"/><path class="cls-2" d="M62,19.92l-1.67-2.29a1.17,1.17,0,0,0-1.11-.75L28,12.54l-4.61-.64c-.23,0-.49,0-.66-.32a1.76,1.76,0,0,0,.56-1.7c-.1-.66.57-.86,1.14-.83.85,0,1.23-.18,1.71-1.06a5.72,5.72,0,0,0,1-3c0-.53.44-1,1.08-.48a1,1,0,0,1,.24.2c.59.77,1.48.12,2.11.43s.38,1.42,1.28,1.6a16.86,16.86,0,0,0,3.48,0c.35,0,.41-.36.43-.62A2.17,2.17,0,0,1,37,4.4a1.54,1.54,0,0,0,.84-1.71,10.09,10.09,0,0,1,0-1.65C37.88.24,39-.33,39.52.21a3.83,3.83,0,0,0,3.61.93c.45-.08.95-.15,1.09.46.35,1.61,1.61,2.1,3,2.44,1,.23,1.65.63,1.63,1.75,0,.45.24.61.66.53a.71.71,0,0,1,1,.54c.35,1.68,1.64,2.27,3.09,2.59,1.28.27,2,.91,1.95,2.28,0,1,.94,1.26,1.46,1.8a7.13,7.13,0,0,1,1.49,2.07c.26.61.62,1,1.33.86a3.32,3.32,0,0,1,1.31.22,1.38,1.38,0,0,1,1.22,1.51c0,.56.1,1,.9.87s.74.69,1.26,1.14C63.5,20.35,62.73,20.54,62,19.92Z"/></g></g></svg>