<svg xmlns="http://www.w3.org/2000/svg" viewBox="0 0 24.26 25.23"><defs><style>.cls-1{fill:#1f7e40;}</style></defs><title>travel-time</title><g id="Layer_2" data-name="Layer 2"><g id="Layer_1-2" data-name="Layer 1"><path id="Path_13" data-name="Path 13" class="cls-1" d="M24.23,1,24,.59c-.22.1-.43.22-.64.34l-.35.21-.16.1L22.75,1,22.9,1l.38-.21L24,.43,23.82.18,23.74,0s0,0-.06,0c-.4.13-.78.28-1.17.45A11.65,11.65,0,0,0,19.92,2a7.68,7.68,0,0,0-2,2.25,5.93,5.93,0,0,0-.77,2.82,7.19,7.19,0,0,0,.16,1.47A8.66,8.66,0,0,0,17.78,10c.13.34.33.65.47,1a4,4,0,0,1,.21.67,2,2,0,0,1,0,.65,1.41,1.41,0,0,1-.22.57,2.28,2.28,0,0,1-.48.5,4.56,4.56,0,0,1-.59.42A12.34,12.34,0,0,1,14.36,15a7.56,7.56,0,0,1,.32,3.8c0,.14-.08.43-.14.63a8.51,8.51,0,0,1-5.69,5.77l0,.07,1.12-.39c1-.35,2-.73,2.92-1.13a34.93,34.93,0,0,0,5.62-2.94,14.15,14.15,0,0,0,4.29-4.08,7.13,7.13,0,0,0,1-2.71,6.12,6.12,0,0,0-.29-2.91,7,7,0,0,0-.92-1.75c-.17-.24-.35-.48-.54-.7s-.23-.26-.35-.38a5.3,5.3,0,0,1-.46-.6,3.3,3.3,0,0,1-.51-1.15A3,3,0,0,1,20.81,5a6.1,6.1,0,0,1,1.64-2.5,11.75,11.75,0,0,1,1.44-1.2l.31-.21C24.28,1,24.27,1,24.23,1ZM20.75,15.12a8.27,8.27,0,0,1-1.63,1.71,14.39,14.39,0,0,1-1.91,1.27l-.59-.92A12.16,12.16,0,0,0,19,15.65a6.72,6.72,0,0,0,.94-1l.06-.08.1.07.34.19.28.16.1.06Zm0-5.09h0a5,5,0,0,1,.8,2.59l-.86,0a4.1,4.1,0,0,0-.45-2,10.53,10.53,0,0,0-.58-1c-.17-.28-.32-.57-.47-.86l.34-.14.27-.11s.29.5.44.72.35.5.51.75ZM21,2.77A7.1,7.1,0,0,0,19.69,4.5a4.3,4.3,0,0,0-.45,1.92h-.56a4.91,4.91,0,0,1,.82-2.48,9,9,0,0,1,.86-1.07l.24-.24.12-.12.26.24h0l0,0Z"/><path id="Path_14" data-name="Path 14" class="cls-1" d="M16.13,16.76a8.07,8.07,0,1,0-8.07,8.06A8.06,8.06,0,0,0,16.13,16.76Zm-8.07,6a6,6,0,1,1,6-6h0a6,6,0,0,1-6,6Z"/><path id="Path_15" data-name="Path 15" class="cls-1" d="M8.05,16.8V13H6.57v5.28H12V16.8Z"/></g></g></svg>