<svg id="Group_85" data-name="Group 85" xmlns="http://www.w3.org/2000/svg" width="24.26" height="25.229" viewBox="0 0 24.26 25.229">
  <path id="Path_13" data-name="Path 13" d="M225,.96,224.811.6c-.219.1-.431.219-.64.339q-.179.1-.353.209l-.154.1-.141-.2.152-.086q.188-.105.381-.205c.219-.113.441-.222.668-.32l-.131-.247-.078-.146c-.02-.038-.013-.047-.057-.032-.4.132-.789.285-1.171.453a11.816,11.816,0,0,0-2.592,1.52,7.852,7.852,0,0,0-2.006,2.252,5.935,5.935,0,0,0-.763,2.823,6.875,6.875,0,0,0,.161,1.47,8.492,8.492,0,0,0,.467,1.433c.127.339.327.652.467.987a4.645,4.645,0,0,1,.214.664,1.824,1.824,0,0,1,.035.654,1.35,1.35,0,0,1-.218.569,2.3,2.3,0,0,1-.48.5,5.257,5.257,0,0,1-.593.421,12.223,12.223,0,0,1-2.842,1.209,7.526,7.526,0,0,1,.312,3.8c-.021.134-.08.424-.139.632a8.49,8.49,0,0,1-5.688,5.762l-.039.073c.375-.124.747-.254,1.118-.385q1.482-.526,2.927-1.138a35.139,35.139,0,0,0,5.611-2.933,14.2,14.2,0,0,0,4.295-4.085,7.118,7.118,0,0,0,1.046-2.706,6.054,6.054,0,0,0-.285-2.91,7.006,7.006,0,0,0-.919-1.755c-.173-.24-.356-.472-.546-.7-.108-.13-.226-.252-.343-.376a5.028,5.028,0,0,1-.464-.6,3.256,3.256,0,0,1-.511-1.155,3.007,3.007,0,0,1,.073-1.5,6.075,6.075,0,0,1,1.642-2.494,11.291,11.291,0,0,1,1.436-1.2q.153-.108.311-.212C225.054,1.027,225.045,1.037,225,.96Zm-3.476,14.169a8.575,8.575,0,0,1-1.632,1.709,15.3,15.3,0,0,1-1.908,1.27l-.591-.924a12.462,12.462,0,0,0,2.352-1.528,6.96,6.96,0,0,0,.934-.977l.061-.081.106.063.332.193.284.165.1.057Zm0-5.09.005.008.006.01a5.028,5.028,0,0,1,.8,2.585l-.863-.015a4.1,4.1,0,0,0-.452-1.97,10.289,10.289,0,0,0-.573-.986c-.174-.279-.326-.564-.473-.856l.336-.139.269-.115s.291.5.443.723C221.195,9.535,221.371,9.782,221.529,10.039Zm.2-7.262a7.051,7.051,0,0,0-1.262,1.733,4.222,4.222,0,0,0-.448,1.917l-.56-.007a4.87,4.87,0,0,1,.822-2.486,7.637,7.637,0,0,1,.861-1.072c.077-.081.159-.158.239-.236.029-.028.118-.118.118-.118l.263.233,0,0C221.748,2.753,221.737,2.765,221.726,2.777Z" transform="translate(-200.774 0)" fill="#0ba118"/>
  <path id="Path_14" data-name="Path 14" d="M25.738,207.707a8.063,8.063,0,1,0-8.063,8.063A8.072,8.072,0,0,0,25.738,207.707Zm-8.063,6.021a6.021,6.021,0,1,1,6.021-6.021A6.028,6.028,0,0,1,17.676,213.728Z" transform="translate(-9.613 -190.941)" fill="#0ba118"/>
  <path id="Path_15" data-name="Path 15" d="M144.6,267.641v-3.8h-1.48v5.282h5.435v-1.48Z" transform="translate(-136.553 -250.833)" fill="#0ba118"/>
</svg>
