<svg xmlns="http://www.w3.org/2000/svg" viewBox="0 0 22.14 24"><defs><style>.cls-1{fill:#1f7e40;}</style></defs><title>user</title><g id="Layer_2" data-name="Layer 2"><g id="Layer_1-2" data-name="Layer 1"><path class="cls-1" d="M11.06,24H.93A.81.81,0,0,1,0,23.06a10.23,10.23,0,0,1,6.27-9.34.38.38,0,0,1,.47.06,6.79,6.79,0,0,0,4.34,1.49,6.8,6.8,0,0,0,4.32-1.5.39.39,0,0,1,.47,0A10.25,10.25,0,0,1,22,21.25a8.32,8.32,0,0,1,.18,1.86.81.81,0,0,1-.89.89Z"/><path class="cls-1" d="M11,12.67A6.34,6.34,0,1,1,17.4,6.34,6.34,6.34,0,0,1,11,12.67Z"/></g></g></svg>